<ttFont>
    <TTGlyph name="A" xMin="10" yMin="0" xMax="625" yMax="703">
      <contour>
        <pt x="326" y="703" on="1"/>
        <pt x="625" y="0" on="1"/>
        <pt x="561" y="0" on="1"/>
        <pt x="464" y="227" on="1"/>
        <pt x="169" y="227" on="1"/>
        <pt x="74" y="0" on="1"/>
        <pt x="10" y="0" on="1"/>
        <pt x="307" y="703" on="1"/>
      </contour>
      <contour>
        <pt x="193" y="284" on="1"/>
        <pt x="440" y="284" on="1"/>
        <pt x="341" y="517" on="1"/>
        <pt x="333" y="536" on="0"/>
        <pt x="320" y="579" on="0"/>
        <pt x="316" y="595" on="1"/>
        <pt x="312" y="578" on="0"/>
        <pt x="300" y="535" on="0"/>
        <pt x="292" y="517" on="1"/>
      </contour>
    </TTGlyph>
    <TTGlyph name="AE" xMin="0" yMin="0" xMax="850" yMax="684">
      <contour>
        <pt x="850" y="0" on="1"/>
        <pt x="382" y="0" on="1"/>
        <pt x="382" y="227" on="1"/>
        <pt x="190" y="227" on="1"/>
        <pt x="73" y="0" on="1"/>
        <pt x="0" y="0" on="1"/>
        <pt x="359" y="684" on="1"/>
        <pt x="830" y="684" on="1"/>
        <pt x="830" y="627" on="1"/>
        <pt x="443" y="627" on="1"/>
        <pt x="443" y="390" on="1"/>
        <pt x="760" y="390" on="1"/>
        <pt x="760" y="333" on="1"/>
        <pt x="443" y="333" on="1"/>
        <pt x="443" y="57" on="1"/>
        <pt x="850" y="57" on="1"/>
      </contour>
      <contour>
        <pt x="219" y="284" on="1"/>
        <pt x="382" y="284" on="1"/>
        <pt x="382" y="623" on="1"/>
        <pt x="379" y="611" on="0"/>
        <pt x="363" y="563" on="0"/>
        <pt x="347" y="531" on="1"/>
      </contour>
    </TTGlyph>
    <TTGlyph name="Aacute" xMin="10" yMin="0" xMax="625" yMax="826">
      <contour>
        <pt x="326" y="703" on="1"/>
        <pt x="625" y="0" on="1"/>
        <pt x="561" y="0" on="1"/>
        <pt x="464" y="227" on="1"/>
        <pt x="169" y="227" on="1"/>
        <pt x="74" y="0" on="1"/>
        <pt x="10" y="0" on="1"/>
        <pt x="307" y="703" on="1"/>
      </contour>
      <contour>
        <pt x="193" y="284" on="1"/>
        <pt x="440" y="284" on="1"/>
        <pt x="341" y="517" on="1"/>
        <pt x="333" y="536" on="0"/>
        <pt x="320" y="579" on="0"/>
        <pt x="316" y="595" on="1"/>
        <pt x="312" y="578" on="0"/>
        <pt x="300" y="535" on="0"/>
        <pt x="292" y="517" on="1"/>
      </contour>
      <contour>
        <pt x="296" y="763" on="1"/>
        <pt x="490" y="826" on="1"/>
        <pt x="508" y="768" on="1"/>
        <pt x="308" y="723" on="1"/>
      </contour>
    </TTGlyph>
    <TTGlyph name="Acircumflex" xMin="10" yMin="0" xMax="625" yMax="890">
      <contour>
        <pt x="326" y="703" on="1"/>
        <pt x="625" y="0" on="1"/>
        <pt x="561" y="0" on="1"/>
        <pt x="464" y="227" on="1"/>
        <pt x="169" y="227" on="1"/>
        <pt x="74" y="0" on="1"/>
        <pt x="10" y="0" on="1"/>
        <pt x="307" y="703" on="1"/>
      </contour>
      <contour>
        <pt x="193" y="284" on="1"/>
        <pt x="440" y="284" on="1"/>
        <pt x="341" y="517" on="1"/>
        <pt x="333" y="536" on="0"/>
        <pt x="320" y="579" on="0"/>
        <pt x="316" y="595" on="1"/>
        <pt x="312" y="578" on="0"/>
        <pt x="300" y="535" on="0"/>
        <pt x="292" y="517" on="1"/>
      </contour>
      <contour>
        <pt x="437" y="719" on="1"/>
        <pt x="317" y="831" on="1"/>
        <pt x="197" y="718" on="1"/>
        <pt x="160" y="755" on="1"/>
        <pt x="269" y="858" on="1"/>
        <pt x="283" y="872" on="0"/>
        <pt x="306" y="890" on="0"/>
        <pt x="317" y="890" on="1"/>
        <pt x="328" y="890" on="0"/>
        <pt x="351" y="872" on="0"/>
        <pt x="365" y="858" on="1"/>
        <pt x="474" y="756" on="1"/>
      </contour>
    </TTGlyph>
    <TTGlyph name="Adieresis" xMin="10" yMin="0" xMax="625" yMax="858">
      <contour>
        <pt x="326" y="703" on="1"/>
        <pt x="625" y="0" on="1"/>
        <pt x="561" y="0" on="1"/>
        <pt x="464" y="227" on="1"/>
        <pt x="169" y="227" on="1"/>
        <pt x="74" y="0" on="1"/>
        <pt x="10" y="0" on="1"/>
        <pt x="307" y="703" on="1"/>
      </contour>
      <contour>
        <pt x="193" y="284" on="1"/>
        <pt x="440" y="284" on="1"/>
        <pt x="341" y="517" on="1"/>
        <pt x="333" y="536" on="0"/>
        <pt x="320" y="579" on="0"/>
        <pt x="316" y="595" on="1"/>
        <pt x="312" y="578" on="0"/>
        <pt x="300" y="535" on="0"/>
        <pt x="292" y="517" on="1"/>
      </contour>
      <contour>
        <pt x="381" y="813" on="1"/>
        <pt x="381" y="832" on="0"/>
        <pt x="407" y="858" on="0"/>
        <pt x="425" y="858" on="1"/>
        <pt x="444" y="858" on="0"/>
        <pt x="470" y="832" on="0"/>
        <pt x="470" y="813" on="1"/>
        <pt x="470" y="795" on="0"/>
        <pt x="444" y="769" on="0"/>
        <pt x="425" y="769" on="1"/>
        <pt x="407" y="769" on="0"/>
        <pt x="381" y="795" on="0"/>
      </contour>
      <contour>
        <pt x="160" y="813" on="1"/>
        <pt x="160" y="832" on="0"/>
        <pt x="186" y="858" on="0"/>
        <pt x="204" y="858" on="1"/>
        <pt x="223" y="858" on="0"/>
        <pt x="249" y="832" on="0"/>
        <pt x="249" y="813" on="1"/>
        <pt x="249" y="795" on="0"/>
        <pt x="223" y="769" on="0"/>
        <pt x="204" y="769" on="1"/>
        <pt x="186" y="769" on="0"/>
        <pt x="160" y="795" on="0"/>
      </contour>
    </TTGlyph>
    <TTGlyph name="Agrave" xMin="10" yMin="0" xMax="625" yMax="826">
      <contour>
        <pt x="326" y="703" on="1"/>
        <pt x="625" y="0" on="1"/>
        <pt x="561" y="0" on="1"/>
        <pt x="464" y="227" on="1"/>
        <pt x="169" y="227" on="1"/>
        <pt x="74" y="0" on="1"/>
        <pt x="10" y="0" on="1"/>
        <pt x="307" y="703" on="1"/>
      </contour>
      <contour>
        <pt x="193" y="284" on="1"/>
        <pt x="440" y="284" on="1"/>
        <pt x="341" y="517" on="1"/>
        <pt x="333" y="536" on="0"/>
        <pt x="320" y="579" on="0"/>
        <pt x="316" y="595" on="1"/>
        <pt x="312" y="578" on="0"/>
        <pt x="300" y="535" on="0"/>
        <pt x="292" y="517" on="1"/>
      </contour>
      <contour>
        <pt x="324" y="723" on="1"/>
        <pt x="124" y="768" on="1"/>
        <pt x="142" y="826" on="1"/>
        <pt x="336" y="763" on="1"/>
      </contour>
    </TTGlyph>
    <TTGlyph name="Aring" xMin="10" yMin="0" xMax="625" yMax="866">
      <contour>
        <pt x="10" y="0" on="1"/>
        <pt x="290" y="663" on="1"/>
        <pt x="255" y="671" on="0"/>
        <pt x="216" y="724" on="0"/>
        <pt x="216" y="762" on="1"/>
        <pt x="216" y="807" on="0"/>
        <pt x="270" y="866" on="0"/>
        <pt x="317" y="866" on="1"/>
        <pt x="362" y="866" on="0"/>
        <pt x="418" y="809" on="0"/>
        <pt x="418" y="764" on="1"/>
        <pt x="418" y="726" on="0"/>
        <pt x="378" y="671" on="0"/>
        <pt x="343" y="663" on="1"/>
        <pt x="625" y="0" on="1"/>
        <pt x="561" y="0" on="1"/>
        <pt x="464" y="227" on="1"/>
        <pt x="169" y="227" on="1"/>
        <pt x="74" y="0" on="1"/>
      </contour>
      <contour>
        <pt x="193" y="284" on="1"/>
        <pt x="440" y="284" on="1"/>
        <pt x="341" y="517" on="1"/>
        <pt x="333" y="536" on="0"/>
        <pt x="320" y="579" on="0"/>
        <pt x="316" y="595" on="1"/>
        <pt x="312" y="578" on="0"/>
        <pt x="300" y="535" on="0"/>
        <pt x="292" y="517" on="1"/>
      </contour>
      <contour>
        <pt x="318" y="822" on="1"/>
        <pt x="293" y="822" on="0"/>
        <pt x="265" y="789" on="0"/>
        <pt x="265" y="763" on="1"/>
        <pt x="265" y="737" on="0"/>
        <pt x="288" y="705" on="0"/>
        <pt x="311" y="703" on="1"/>
        <pt x="321" y="703" on="1"/>
        <pt x="344" y="705" on="0"/>
        <pt x="369" y="737" on="0"/>
        <pt x="369" y="763" on="1"/>
        <pt x="369" y="789" on="0"/>
        <pt x="343" y="822" on="0"/>
      </contour>
    </TTGlyph>
    <TTGlyph name="Atilde" xMin="10" yMin="0" xMax="625" yMax="861">
      <contour>
        <pt x="326" y="703" on="1"/>
        <pt x="625" y="0" on="1"/>
        <pt x="561" y="0" on="1"/>
        <pt x="464" y="227" on="1"/>
        <pt x="169" y="227" on="1"/>
        <pt x="74" y="0" on="1"/>
        <pt x="10" y="0" on="1"/>
        <pt x="307" y="703" on="1"/>
      </contour>
      <contour>
        <pt x="193" y="284" on="1"/>
        <pt x="440" y="284" on="1"/>
        <pt x="341" y="517" on="1"/>
        <pt x="333" y="536" on="0"/>
        <pt x="320" y="579" on="0"/>
        <pt x="316" y="595" on="1"/>
        <pt x="312" y="578" on="0"/>
        <pt x="300" y="535" on="0"/>
        <pt x="292" y="517" on="1"/>
      </contour>
      <contour>
        <pt x="115" y="787" on="1"/>
        <pt x="129" y="828" on="0"/>
        <pt x="190" y="860" on="0"/>
        <pt x="235" y="860" on="1"/>
        <pt x="257" y="860" on="0"/>
        <pt x="301" y="849" on="0"/>
        <pt x="343" y="836" on="0"/>
        <pt x="384" y="825" on="0"/>
        <pt x="404" y="825" on="1"/>
        <pt x="429" y="825" on="0"/>
        <pt x="465" y="839" on="0"/>
        <pt x="476" y="861" on="1"/>
        <pt x="525" y="840" on="1"/>
        <pt x="511" y="799" on="0"/>
        <pt x="450" y="767" on="0"/>
        <pt x="405" y="767" on="1"/>
        <pt x="384" y="767" on="0"/>
        <pt x="340" y="778" on="0"/>
        <pt x="296" y="791" on="0"/>
        <pt x="255" y="802" on="0"/>
        <pt x="236" y="802" on="1"/>
        <pt x="211" y="802" on="0"/>
        <pt x="175" y="788" on="0"/>
        <pt x="164" y="766" on="1"/>
      </contour>
    </TTGlyph>
    <TTGlyph name="B" xMin="10" yMin="-11" xMax="553" yMax="724">
      <contour>
        <pt x="320" y="694" on="1"/>
        <pt x="365" y="694" on="0"/>
        <pt x="439" y="668" on="0"/>
        <pt x="492" y="620" on="0"/>
        <pt x="522" y="554" on="0"/>
        <pt x="522" y="514" on="1"/>
        <pt x="522" y="460" on="0"/>
        <pt x="471" y="387" on="0"/>
        <pt x="426" y="367" on="1"/>
        <pt x="484" y="344" on="0"/>
        <pt x="553" y="247" on="0"/>
        <pt x="553" y="186" on="1"/>
        <pt x="553" y="141" on="0"/>
        <pt x="521" y="69" on="0"/>
        <pt x="461" y="17" on="0"/>
        <pt x="374" y="-11" on="0"/>
        <pt x="320" y="-11" on="1"/>
        <pt x="272" y="-11" on="0"/>
        <pt x="198" y="-8" on="0"/>
        <pt x="172" y="-6" on="1"/>
        <pt x="142" y="-3" on="0"/>
        <pt x="119" y="0" on="1"/>
        <pt x="119" y="631" on="1"/>
        <pt x="87" y="636" on="0"/>
        <pt x="30" y="662" on="0"/>
        <pt x="10" y="690" on="1"/>
        <pt x="43" y="724" on="1"/>
        <pt x="64" y="704" on="0"/>
        <pt x="122" y="684" on="0"/>
        <pt x="162" y="684" on="1"/>
        <pt x="185" y="684" on="0"/>
        <pt x="217" y="687" on="0"/>
        <pt x="249" y="691" on="0"/>
        <pt x="288" y="694" on="0"/>
      </contour>
      <contour>
        <pt x="180" y="334" on="1"/>
        <pt x="180" y="49" on="1"/>
        <pt x="209" y="47" on="0"/>
        <pt x="281" y="44" on="0"/>
        <pt x="317" y="44" on="1"/>
        <pt x="401" y="44" on="0"/>
        <pt x="494" y="120" on="0"/>
        <pt x="494" y="190" on="1"/>
        <pt x="494" y="220" on="0"/>
        <pt x="469" y="272" on="0"/>
        <pt x="425" y="311" on="0"/>
        <pt x="363" y="333" on="0"/>
        <pt x="326" y="334" on="1"/>
        <pt x="322" y="334" on="1"/>
      </contour>
      <contour>
        <pt x="317" y="639" on="1"/>
        <pt x="285" y="639" on="0"/>
        <pt x="247" y="636" on="0"/>
        <pt x="220" y="633" on="0"/>
        <pt x="196" y="629" on="0"/>
        <pt x="180" y="629" on="1"/>
        <pt x="180" y="389" on="1"/>
        <pt x="319" y="389" on="1"/>
        <pt x="382" y="389" on="0"/>
        <pt x="462" y="454" on="0"/>
        <pt x="462" y="514" on="1"/>
        <pt x="462" y="574" on="0"/>
        <pt x="383" y="639" on="0"/>
      </contour>
    </TTGlyph>
    <TTGlyph name="C" xMin="60" yMin="-10" xMax="604" yMax="694">
      <contour>
        <pt x="60" y="342" on="1"/>
        <pt x="60" y="417" on="0"/>
        <pt x="108" y="545" on="0"/>
        <pt x="194" y="640" on="0"/>
        <pt x="315" y="694" on="0"/>
        <pt x="388" y="694" on="1"/>
        <pt x="496" y="694" on="0"/>
        <pt x="604" y="618" on="0"/>
        <pt x="604" y="555" on="1"/>
        <pt x="604" y="527" on="0"/>
        <pt x="580" y="480" on="0"/>
        <pt x="527" y="445" on="0"/>
        <pt x="445" y="426" on="0"/>
        <pt x="388" y="426" on="1"/>
        <pt x="130" y="426" on="1"/>
        <pt x="121" y="387" on="0"/>
        <pt x="121" y="342" on="1"/>
      </contour>
      <contour>
        <pt x="388" y="639" on="1"/>
        <pt x="303" y="639" on="0"/>
        <pt x="178" y="553" on="0"/>
        <pt x="146" y="478" on="1"/>
        <pt x="388" y="478" on="1"/>
        <pt x="433" y="478" on="0"/>
        <pt x="492" y="488" on="0"/>
        <pt x="527" y="508" on="0"/>
        <pt x="541" y="537" on="0"/>
        <pt x="541" y="555" on="1"/>
        <pt x="541" y="597" on="0"/>
        <pt x="463" y="639" on="0"/>
      </contour>
      <contour>
        <pt x="348" y="-10" on="1"/>
        <pt x="274" y="-10" on="0"/>
        <pt x="165" y="44" on="0"/>
        <pt x="94" y="139" on="0"/>
        <pt x="60" y="268" on="0"/>
        <pt x="60" y="342" on="1"/>
        <pt x="121" y="342" on="1"/>
        <pt x="121" y="276" on="0"/>
        <pt x="150" y="167" on="0"/>
        <pt x="207" y="89" on="0"/>
        <pt x="292" y="45" on="0"/>
        <pt x="348" y="45" on="1"/>
        <pt x="379" y="45" on="0"/>
        <pt x="446" y="62" on="0"/>
        <pt x="507" y="86" on="0"/>
        <pt x="557" y="113" on="0"/>
        <pt x="573" y="123" on="1"/>
        <pt x="599" y="78" on="1"/>
        <pt x="584" y="66" on="0"/>
        <pt x="533" y="35" on="0"/>
        <pt x="467" y="8" on="0"/>
        <pt x="390" y="-10" on="0"/>
      </contour>
    </TTGlyph>
    <TTGlyph name="Ccedilla" xMin="60" yMin="-257" xMax="604" yMax="694">
      <contour>
        <pt x="60" y="342" on="1"/>
        <pt x="60" y="417" on="0"/>
        <pt x="108" y="545" on="0"/>
        <pt x="194" y="640" on="0"/>
        <pt x="315" y="694" on="0"/>
        <pt x="388" y="694" on="1"/>
        <pt x="496" y="694" on="0"/>
        <pt x="604" y="618" on="0"/>
        <pt x="604" y="555" on="1"/>
        <pt x="604" y="527" on="0"/>
        <pt x="580" y="480" on="0"/>
        <pt x="527" y="445" on="0"/>
        <pt x="445" y="426" on="0"/>
        <pt x="388" y="426" on="1"/>
        <pt x="130" y="426" on="1"/>
        <pt x="121" y="387" on="0"/>
        <pt x="121" y="342" on="1"/>
      </contour>
      <contour>
        <pt x="121" y="342" on="1"/>
        <pt x="121" y="276" on="0"/>
        <pt x="150" y="167" on="0"/>
        <pt x="207" y="89" on="0"/>
        <pt x="292" y="45" on="0"/>
        <pt x="348" y="45" on="1"/>
        <pt x="379" y="45" on="0"/>
        <pt x="446" y="62" on="0"/>
        <pt x="507" y="86" on="0"/>
        <pt x="557" y="113" on="0"/>
        <pt x="573" y="123" on="1"/>
        <pt x="599" y="78" on="1"/>
        <pt x="584" y="66" on="0"/>
        <pt x="537" y="38" on="0"/>
        <pt x="476" y="12" on="0"/>
        <pt x="405" y="-7" on="0"/>
        <pt x="366" y="-9" on="1"/>
        <pt x="366" y="-66" on="1"/>
        <pt x="391" y="-69" on="0"/>
        <pt x="426" y="-100" on="0"/>
        <pt x="426" y="-126" on="1"/>
        <pt x="426" y="-158" on="0"/>
        <pt x="393" y="-230" on="0"/>
        <pt x="355" y="-257" on="1"/>
        <pt x="321" y="-224" on="1"/>
        <pt x="330" y="-214" on="0"/>
        <pt x="348" y="-195" on="0"/>
        <pt x="362" y="-176" on="0"/>
        <pt x="371" y="-153" on="0"/>
        <pt x="371" y="-139" on="1"/>
        <pt x="371" y="-126" on="0"/>
        <pt x="358" y="-113" on="0"/>
        <pt x="340" y="-107" on="0"/>
        <pt x="320" y="-105" on="0"/>
        <pt x="313" y="-103" on="1"/>
        <pt x="313" y="-8" on="1"/>
        <pt x="248" y="-2" on="0"/>
        <pt x="152" y="57" on="0"/>
        <pt x="90" y="150" on="0"/>
        <pt x="60" y="272" on="0"/>
        <pt x="60" y="342" on="1"/>
      </contour>
      <contour>
        <pt x="388" y="639" on="1"/>
        <pt x="303" y="639" on="0"/>
        <pt x="178" y="553" on="0"/>
        <pt x="146" y="478" on="1"/>
        <pt x="388" y="478" on="1"/>
        <pt x="433" y="478" on="0"/>
        <pt x="492" y="488" on="0"/>
        <pt x="527" y="508" on="0"/>
        <pt x="541" y="537" on="0"/>
        <pt x="541" y="555" on="1"/>
        <pt x="541" y="597" on="0"/>
        <pt x="463" y="639" on="0"/>
      </contour>
    </TTGlyph>
    <TTGlyph name="D" xMin="5" yMin="-10" xMax="709" yMax="724">
      <contour>
        <pt x="114" y="631" on="1"/>
        <pt x="82" y="636" on="0"/>
        <pt x="25" y="662" on="0"/>
        <pt x="5" y="690" on="1"/>
        <pt x="38" y="724" on="1"/>
        <pt x="59" y="704" on="0"/>
        <pt x="117" y="684" on="0"/>
        <pt x="157" y="684" on="1"/>
        <pt x="204" y="684" on="0"/>
        <pt x="299" y="694" on="0"/>
        <pt x="362" y="694" on="1"/>
        <pt x="442" y="694" on="0"/>
        <pt x="570" y="640" on="0"/>
        <pt x="660" y="545" on="0"/>
        <pt x="709" y="417" on="0"/>
        <pt x="709" y="342" on="1"/>
        <pt x="709" y="267" on="0"/>
        <pt x="660" y="138" on="0"/>
        <pt x="570" y="44" on="0"/>
        <pt x="442" y="-10" on="0"/>
        <pt x="362" y="-10" on="1"/>
        <pt x="285" y="-10" on="0"/>
        <pt x="188" y="-7" on="0"/>
        <pt x="161" y="-5" on="1"/>
        <pt x="128" y="-3" on="0"/>
        <pt x="114" y="0" on="1"/>
      </contour>
      <contour>
        <pt x="362" y="639" on="1"/>
        <pt x="307" y="639" on="0"/>
        <pt x="217" y="630" on="0"/>
        <pt x="175" y="629" on="1"/>
        <pt x="175" y="50" on="1"/>
        <pt x="206" y="48" on="0"/>
        <pt x="297" y="45" on="0"/>
        <pt x="362" y="45" on="1"/>
        <pt x="428" y="45" on="0"/>
        <pt x="534" y="88" on="0"/>
        <pt x="609" y="167" on="0"/>
        <pt x="649" y="276" on="0"/>
        <pt x="649" y="342" on="1"/>
        <pt x="649" y="408" on="0"/>
        <pt x="609" y="517" on="0"/>
        <pt x="534" y="595" on="0"/>
        <pt x="428" y="639" on="0"/>
      </contour>
    </TTGlyph>
    <TTGlyph name="E" xMin="95" yMin="0" xMax="563" yMax="684">
      <contour>
        <pt x="563" y="0" on="1"/>
        <pt x="95" y="0" on="1"/>
        <pt x="95" y="684" on="1"/>
        <pt x="543" y="684" on="1"/>
        <pt x="543" y="627" on="1"/>
        <pt x="156" y="627" on="1"/>
        <pt x="156" y="390" on="1"/>
        <pt x="473" y="390" on="1"/>
        <pt x="473" y="333" on="1"/>
        <pt x="156" y="333" on="1"/>
        <pt x="156" y="57" on="1"/>
        <pt x="563" y="57" on="1"/>
      </contour>
    </TTGlyph>
    <TTGlyph name="Eacute" xMin="95" yMin="0" xMax="563" yMax="825">
      <contour>
        <pt x="563" y="0" on="1"/>
        <pt x="95" y="0" on="1"/>
        <pt x="95" y="684" on="1"/>
        <pt x="543" y="684" on="1"/>
        <pt x="543" y="627" on="1"/>
        <pt x="156" y="627" on="1"/>
        <pt x="156" y="390" on="1"/>
        <pt x="473" y="390" on="1"/>
        <pt x="473" y="333" on="1"/>
        <pt x="156" y="333" on="1"/>
        <pt x="156" y="57" on="1"/>
        <pt x="563" y="57" on="1"/>
      </contour>
      <contour>
        <pt x="308" y="762" on="1"/>
        <pt x="502" y="825" on="1"/>
        <pt x="520" y="767" on="1"/>
        <pt x="320" y="722" on="1"/>
      </contour>
    </TTGlyph>
    <TTGlyph name="Ecircumflex" xMin="95" yMin="0" xMax="563" yMax="889">
      <contour>
        <pt x="563" y="0" on="1"/>
        <pt x="95" y="0" on="1"/>
        <pt x="95" y="684" on="1"/>
        <pt x="543" y="684" on="1"/>
        <pt x="543" y="627" on="1"/>
        <pt x="156" y="627" on="1"/>
        <pt x="156" y="390" on="1"/>
        <pt x="473" y="390" on="1"/>
        <pt x="473" y="333" on="1"/>
        <pt x="156" y="333" on="1"/>
        <pt x="156" y="57" on="1"/>
        <pt x="563" y="57" on="1"/>
      </contour>
      <contour>
        <pt x="449" y="718" on="1"/>
        <pt x="329" y="830" on="1"/>
        <pt x="209" y="717" on="1"/>
        <pt x="172" y="754" on="1"/>
        <pt x="281" y="857" on="1"/>
        <pt x="295" y="871" on="0"/>
        <pt x="318" y="889" on="0"/>
        <pt x="329" y="889" on="1"/>
        <pt x="340" y="889" on="0"/>
        <pt x="363" y="871" on="0"/>
        <pt x="377" y="857" on="1"/>
        <pt x="486" y="755" on="1"/>
      </contour>
    </TTGlyph>
    <TTGlyph name="Edieresis" xMin="95" yMin="0" xMax="563" yMax="857">
      <contour>
        <pt x="563" y="0" on="1"/>
        <pt x="95" y="0" on="1"/>
        <pt x="95" y="684" on="1"/>
        <pt x="543" y="684" on="1"/>
        <pt x="543" y="627" on="1"/>
        <pt x="156" y="627" on="1"/>
        <pt x="156" y="390" on="1"/>
        <pt x="473" y="390" on="1"/>
        <pt x="473" y="333" on="1"/>
        <pt x="156" y="333" on="1"/>
        <pt x="156" y="57" on="1"/>
        <pt x="563" y="57" on="1"/>
      </contour>
      <contour>
        <pt x="172" y="812" on="1"/>
        <pt x="172" y="831" on="0"/>
        <pt x="198" y="857" on="0"/>
        <pt x="216" y="857" on="1"/>
        <pt x="235" y="857" on="0"/>
        <pt x="261" y="831" on="0"/>
        <pt x="261" y="812" on="1"/>
        <pt x="261" y="794" on="0"/>
        <pt x="235" y="768" on="0"/>
        <pt x="216" y="768" on="1"/>
        <pt x="198" y="768" on="0"/>
        <pt x="172" y="794" on="0"/>
      </contour>
      <contour>
        <pt x="393" y="812" on="1"/>
        <pt x="393" y="831" on="0"/>
        <pt x="419" y="857" on="0"/>
        <pt x="437" y="857" on="1"/>
        <pt x="456" y="857" on="0"/>
        <pt x="482" y="831" on="0"/>
        <pt x="482" y="812" on="1"/>
        <pt x="482" y="794" on="0"/>
        <pt x="456" y="768" on="0"/>
        <pt x="437" y="768" on="1"/>
        <pt x="419" y="768" on="0"/>
        <pt x="393" y="794" on="0"/>
      </contour>
    </TTGlyph>
    <TTGlyph name="Egrave" xMin="95" yMin="0" xMax="563" yMax="825">
      <contour>
        <pt x="563" y="0" on="1"/>
        <pt x="95" y="0" on="1"/>
        <pt x="95" y="684" on="1"/>
        <pt x="543" y="684" on="1"/>
        <pt x="543" y="627" on="1"/>
        <pt x="156" y="627" on="1"/>
        <pt x="156" y="390" on="1"/>
        <pt x="473" y="390" on="1"/>
        <pt x="473" y="333" on="1"/>
        <pt x="156" y="333" on="1"/>
        <pt x="156" y="57" on="1"/>
        <pt x="563" y="57" on="1"/>
      </contour>
      <contour>
        <pt x="336" y="722" on="1"/>
        <pt x="136" y="767" on="1"/>
        <pt x="154" y="825" on="1"/>
        <pt x="348" y="762" on="1"/>
      </contour>
    </TTGlyph>
    <TTGlyph name="Eth" xMin="10" yMin="-10" xMax="719" yMax="724">
      <contour>
        <pt x="124" y="389" on="1"/>
        <pt x="10" y="389" on="1"/>
        <pt x="10" y="446" on="1"/>
        <pt x="124" y="446" on="1"/>
        <pt x="124" y="631" on="1"/>
        <pt x="92" y="636" on="0"/>
        <pt x="35" y="662" on="0"/>
        <pt x="15" y="690" on="1"/>
        <pt x="48" y="724" on="1"/>
        <pt x="69" y="704" on="0"/>
        <pt x="127" y="684" on="0"/>
        <pt x="167" y="684" on="1"/>
        <pt x="214" y="684" on="0"/>
        <pt x="309" y="694" on="0"/>
        <pt x="372" y="694" on="1"/>
        <pt x="452" y="694" on="0"/>
        <pt x="580" y="640" on="0"/>
        <pt x="670" y="545" on="0"/>
        <pt x="719" y="417" on="0"/>
        <pt x="719" y="342" on="1"/>
        <pt x="719" y="267" on="0"/>
        <pt x="670" y="138" on="0"/>
        <pt x="580" y="44" on="0"/>
        <pt x="452" y="-10" on="0"/>
        <pt x="372" y="-10" on="1"/>
        <pt x="295" y="-10" on="0"/>
        <pt x="198" y="-7" on="0"/>
        <pt x="171" y="-5" on="1"/>
        <pt x="138" y="-3" on="0"/>
        <pt x="124" y="0" on="1"/>
      </contour>
      <contour>
        <pt x="307" y="389" on="1"/>
        <pt x="185" y="389" on="1"/>
        <pt x="185" y="50" on="1"/>
        <pt x="216" y="48" on="0"/>
        <pt x="307" y="45" on="0"/>
        <pt x="372" y="45" on="1"/>
        <pt x="438" y="45" on="0"/>
        <pt x="544" y="88" on="0"/>
        <pt x="619" y="167" on="0"/>
        <pt x="659" y="276" on="0"/>
        <pt x="659" y="342" on="1"/>
        <pt x="659" y="408" on="0"/>
        <pt x="619" y="517" on="0"/>
        <pt x="544" y="595" on="0"/>
        <pt x="438" y="639" on="0"/>
        <pt x="372" y="639" on="1"/>
        <pt x="317" y="639" on="0"/>
        <pt x="227" y="630" on="0"/>
        <pt x="185" y="629" on="1"/>
        <pt x="185" y="446" on="1"/>
        <pt x="307" y="446" on="1"/>
      </contour>
    </TTGlyph>
    <TTGlyph name="Euro" xMin="20" yMin="-10" xMax="533" yMax="664">
      <contour>
        <pt x="98" y="399" on="1"/>
        <pt x="104" y="459" on="0"/>
        <pt x="141" y="557" on="0"/>
        <pt x="205" y="626" on="0"/>
        <pt x="299" y="664" on="0"/>
        <pt x="363" y="664" on="1"/>
        <pt x="388" y="664" on="0"/>
        <pt x="439" y="661" on="0"/>
        <pt x="473" y="658" on="1"/>
        <pt x="473" y="603" on="1"/>
        <pt x="442" y="605" on="0"/>
        <pt x="389" y="609" on="0"/>
        <pt x="363" y="609" on="1"/>
        <pt x="313" y="609" on="0"/>
        <pt x="240" y="581" on="0"/>
        <pt x="191" y="527" on="0"/>
        <pt x="164" y="449" on="0"/>
        <pt x="159" y="399" on="1"/>
        <pt x="406" y="399" on="1"/>
        <pt x="397" y="347" on="1"/>
        <pt x="156" y="347" on="1"/>
        <pt x="156" y="329" on="1"/>
        <pt x="156" y="318" on="0"/>
        <pt x="156" y="299" on="0"/>
        <pt x="157" y="289" on="1"/>
        <pt x="388" y="289" on="1"/>
        <pt x="380" y="237" on="1"/>
        <pt x="162" y="237" on="1"/>
        <pt x="176" y="147" on="0"/>
        <pt x="271" y="45" on="0"/>
        <pt x="363" y="45" on="1"/>
        <pt x="409" y="45" on="0"/>
        <pt x="475" y="71" on="0"/>
        <pt x="507" y="91" on="1"/>
        <pt x="533" y="46" on="1"/>
        <pt x="502" y="22" on="0"/>
        <pt x="424" y="-10" on="0"/>
        <pt x="363" y="-10" on="1"/>
        <pt x="301" y="-10" on="0"/>
        <pt x="209" y="25" on="0"/>
        <pt x="146" y="90" on="0"/>
        <pt x="108" y="181" on="0"/>
        <pt x="101" y="237" on="1"/>
        <pt x="20" y="237" on="1"/>
        <pt x="31" y="289" on="1"/>
        <pt x="96" y="289" on="1"/>
        <pt x="95" y="299" on="0"/>
        <pt x="95" y="318" on="0"/>
        <pt x="95" y="329" on="1"/>
        <pt x="95" y="347" on="1"/>
        <pt x="20" y="347" on="1"/>
        <pt x="31" y="399" on="1"/>
      </contour>
    </TTGlyph>
    <TTGlyph name="F" xMin="95" yMin="0" xMax="543" yMax="684">
      <contour>
        <pt x="473" y="325" on="1"/>
        <pt x="156" y="325" on="1"/>
        <pt x="156" y="0" on="1"/>
        <pt x="95" y="0" on="1"/>
        <pt x="95" y="684" on="1"/>
        <pt x="543" y="684" on="1"/>
        <pt x="543" y="627" on="1"/>
        <pt x="156" y="627" on="1"/>
        <pt x="156" y="382" on="1"/>
        <pt x="473" y="382" on="1"/>
      </contour>
    </TTGlyph>
    <TTGlyph name="G" xMin="60" yMin="-250" xMax="624" yMax="694">
      <contour>
        <pt x="606" y="313" on="1"/>
        <pt x="606" y="-250" on="1"/>
        <pt x="547" y="-250" on="1"/>
        <pt x="547" y="75" on="1"/>
        <pt x="522" y="40" on="0"/>
        <pt x="433" y="-10" on="0"/>
        <pt x="358" y="-10" on="1"/>
        <pt x="280" y="-10" on="0"/>
        <pt x="167" y="44" on="0"/>
        <pt x="95" y="139" on="0"/>
        <pt x="60" y="268" on="0"/>
        <pt x="60" y="342" on="1"/>
        <pt x="60" y="417" on="0"/>
        <pt x="108" y="545" on="0"/>
        <pt x="197" y="640" on="0"/>
        <pt x="321" y="694" on="0"/>
        <pt x="398" y="694" on="1"/>
        <pt x="506" y="694" on="0"/>
        <pt x="624" y="618" on="0"/>
        <pt x="624" y="555" on="1"/>
        <pt x="624" y="527" on="0"/>
        <pt x="600" y="480" on="0"/>
        <pt x="547" y="445" on="0"/>
        <pt x="465" y="426" on="0"/>
        <pt x="408" y="426" on="1"/>
        <pt x="130" y="426" on="1"/>
        <pt x="121" y="387" on="0"/>
        <pt x="121" y="342" on="1"/>
        <pt x="121" y="276" on="0"/>
        <pt x="151" y="167" on="0"/>
        <pt x="210" y="89" on="0"/>
        <pt x="299" y="45" on="0"/>
        <pt x="358" y="45" on="1"/>
        <pt x="424" y="45" on="0"/>
        <pt x="500" y="92" on="0"/>
        <pt x="538" y="154" on="0"/>
        <pt x="547" y="215" on="0"/>
        <pt x="547" y="230" on="1"/>
        <pt x="547" y="313" on="1"/>
      </contour>
      <contour>
        <pt x="398" y="639" on="1"/>
        <pt x="308" y="639" on="0"/>
        <pt x="179" y="553" on="0"/>
        <pt x="147" y="478" on="1"/>
        <pt x="408" y="478" on="1"/>
        <pt x="453" y="478" on="0"/>
        <pt x="512" y="488" on="0"/>
        <pt x="547" y="508" on="0"/>
        <pt x="561" y="537" on="0"/>
        <pt x="561" y="555" on="1"/>
        <pt x="561" y="597" on="0"/>
        <pt x="473" y="639" on="0"/>
      </contour>
    </TTGlyph>
    <TTGlyph name="H" xMin="95" yMin="0" xMax="586" yMax="684">
      <contour>
        <pt x="586" y="684" on="1"/>
        <pt x="586" y="0" on="1"/>
        <pt x="525" y="0" on="1"/>
        <pt x="525" y="327" on="1"/>
        <pt x="156" y="327" on="1"/>
        <pt x="156" y="0" on="1"/>
        <pt x="95" y="0" on="1"/>
        <pt x="95" y="684" on="1"/>
        <pt x="156" y="684" on="1"/>
        <pt x="156" y="384" on="1"/>
        <pt x="525" y="384" on="1"/>
        <pt x="525" y="684" on="1"/>
      </contour>
    </TTGlyph>
    <TTGlyph name="I" xMin="95" yMin="0" xMax="156" yMax="684">
      <contour>
        <pt x="156" y="684" on="1"/>
        <pt x="156" y="0" on="1"/>
        <pt x="95" y="0" on="1"/>
        <pt x="95" y="684" on="1"/>
      </contour>
    </TTGlyph>
    <TTGlyph name="Iacute" xMin="95" yMin="0" xMax="316" yMax="826">
      <contour>
        <pt x="156" y="684" on="1"/>
        <pt x="156" y="0" on="1"/>
        <pt x="95" y="0" on="1"/>
        <pt x="95" y="684" on="1"/>
      </contour>
      <contour>
        <pt x="104" y="763" on="1"/>
        <pt x="298" y="826" on="1"/>
        <pt x="316" y="768" on="1"/>
        <pt x="116" y="723" on="1"/>
      </contour>
    </TTGlyph>
    <TTGlyph name="Icircumflex" xMin="-32" yMin="0" xMax="282" yMax="890">
      <contour>
        <pt x="156" y="684" on="1"/>
        <pt x="156" y="0" on="1"/>
        <pt x="95" y="0" on="1"/>
        <pt x="95" y="684" on="1"/>
      </contour>
      <contour>
        <pt x="245" y="719" on="1"/>
        <pt x="125" y="831" on="1"/>
        <pt x="5" y="718" on="1"/>
        <pt x="-32" y="755" on="1"/>
        <pt x="77" y="858" on="1"/>
        <pt x="91" y="872" on="0"/>
        <pt x="114" y="890" on="0"/>
        <pt x="125" y="890" on="1"/>
        <pt x="136" y="890" on="0"/>
        <pt x="159" y="872" on="0"/>
        <pt x="173" y="858" on="1"/>
        <pt x="282" y="756" on="1"/>
      </contour>
    </TTGlyph>
    <TTGlyph name="Idieresis" xMin="-32" yMin="0" xMax="278" yMax="858">
      <contour>
        <pt x="156" y="684" on="1"/>
        <pt x="156" y="0" on="1"/>
        <pt x="95" y="0" on="1"/>
        <pt x="95" y="684" on="1"/>
      </contour>
      <contour>
        <pt x="-32" y="813" on="1"/>
        <pt x="-32" y="832" on="0"/>
        <pt x="-6" y="858" on="0"/>
        <pt x="12" y="858" on="1"/>
        <pt x="31" y="858" on="0"/>
        <pt x="57" y="832" on="0"/>
        <pt x="57" y="813" on="1"/>
        <pt x="57" y="795" on="0"/>
        <pt x="31" y="769" on="0"/>
        <pt x="12" y="769" on="1"/>
        <pt x="-6" y="769" on="0"/>
        <pt x="-32" y="795" on="0"/>
      </contour>
      <contour>
        <pt x="189" y="813" on="1"/>
        <pt x="189" y="832" on="0"/>
        <pt x="215" y="858" on="0"/>
        <pt x="233" y="858" on="1"/>
        <pt x="252" y="858" on="0"/>
        <pt x="278" y="832" on="0"/>
        <pt x="278" y="813" on="1"/>
        <pt x="278" y="795" on="0"/>
        <pt x="252" y="769" on="0"/>
        <pt x="233" y="769" on="1"/>
        <pt x="215" y="769" on="0"/>
        <pt x="189" y="795" on="0"/>
      </contour>
    </TTGlyph>
    <TTGlyph name="Igrave" xMin="-68" yMin="0" xMax="156" yMax="826">
      <contour>
        <pt x="156" y="684" on="1"/>
        <pt x="156" y="0" on="1"/>
        <pt x="95" y="0" on="1"/>
        <pt x="95" y="684" on="1"/>
      </contour>
      <contour>
        <pt x="132" y="723" on="1"/>
        <pt x="-68" y="768" on="1"/>
        <pt x="-50" y="826" on="1"/>
        <pt x="144" y="763" on="1"/>
      </contour>
    </TTGlyph>
    <TTGlyph name="J" xMin="35" yMin="-20" xMax="354" yMax="684">
      <contour>
        <pt x="354" y="185" on="1"/>
        <pt x="354" y="128" on="0"/>
        <pt x="335" y="49" on="0"/>
        <pt x="300" y="1" on="0"/>
        <pt x="253" y="-20" on="0"/>
        <pt x="225" y="-20" on="1"/>
        <pt x="194" y="-20" on="0"/>
        <pt x="140" y="4" on="0"/>
        <pt x="99" y="54" on="0"/>
        <pt x="76" y="131" on="0"/>
        <pt x="76" y="185" on="1"/>
        <pt x="76" y="300" on="0"/>
        <pt x="190" y="423" on="0"/>
        <pt x="299" y="432" on="1"/>
        <pt x="299" y="627" on="1"/>
        <pt x="35" y="627" on="1"/>
        <pt x="35" y="684" on="1"/>
        <pt x="354" y="684" on="1"/>
      </contour>
      <contour>
        <pt x="225" y="33" on="1"/>
        <pt x="243" y="33" on="0"/>
        <pt x="271" y="47" on="0"/>
        <pt x="290" y="82" on="0"/>
        <pt x="299" y="140" on="0"/>
        <pt x="299" y="185" on="1"/>
        <pt x="299" y="380" on="1"/>
        <pt x="215" y="372" on="0"/>
        <pt x="136" y="279" on="0"/>
        <pt x="136" y="185" on="1"/>
        <pt x="136" y="110" on="0"/>
        <pt x="183" y="33" on="0"/>
      </contour>
    </TTGlyph>
    <TTGlyph name="K" xMin="95" yMin="0" xMax="590" yMax="692">
      <contour>
        <pt x="526" y="0" on="1"/>
        <pt x="456" y="208" on="1"/>
        <pt x="447" y="236" on="0"/>
        <pt x="427" y="279" on="0"/>
        <pt x="395" y="307" on="0"/>
        <pt x="345" y="322" on="0"/>
        <pt x="306" y="322" on="1"/>
        <pt x="156" y="322" on="1"/>
        <pt x="156" y="0" on="1"/>
        <pt x="95" y="0" on="1"/>
        <pt x="95" y="684" on="1"/>
        <pt x="156" y="684" on="1"/>
        <pt x="156" y="376" on="1"/>
        <pt x="316" y="376" on="1"/>
        <pt x="314" y="369" on="1"/>
        <pt x="315" y="369" on="1"/>
        <pt x="316" y="376" on="1"/>
        <pt x="319" y="376" on="1"/>
        <pt x="513" y="692" on="1"/>
        <pt x="565" y="660" on="1"/>
        <pt x="383" y="367" on="1"/>
        <pt x="431" y="353" on="0"/>
        <pt x="486" y="289" on="0"/>
        <pt x="502" y="246" on="1"/>
        <pt x="590" y="0" on="1"/>
      </contour>
    </TTGlyph>
    <TTGlyph name="L" xMin="95" yMin="0" xMax="483" yMax="684">
      <contour>
        <pt x="483" y="0" on="1"/>
        <pt x="95" y="0" on="1"/>
        <pt x="95" y="684" on="1"/>
        <pt x="156" y="684" on="1"/>
        <pt x="156" y="57" on="1"/>
        <pt x="483" y="57" on="1"/>
      </contour>
    </TTGlyph>
    <TTGlyph name="M" xMin="95" yMin="0" xMax="719" yMax="693">
      <contour>
        <pt x="520" y="205" on="1"/>
        <pt x="484" y="212" on="0"/>
        <pt x="424" y="241" on="0"/>
        <pt x="374" y="276" on="0"/>
        <pt x="334" y="315" on="0"/>
        <pt x="319" y="333" on="1"/>
        <pt x="221" y="454" on="1"/>
        <pt x="204" y="474" on="0"/>
        <pt x="165" y="530" on="0"/>
        <pt x="148" y="557" on="1"/>
        <pt x="151" y="532" on="0"/>
        <pt x="156" y="477" on="0"/>
        <pt x="156" y="454" on="1"/>
        <pt x="156" y="0" on="1"/>
        <pt x="95" y="0" on="1"/>
        <pt x="95" y="693" on="1"/>
        <pt x="114" y="693" on="1"/>
        <pt x="380" y="354" on="1"/>
        <pt x="387" y="343" on="0"/>
        <pt x="401" y="330" on="1"/>
        <pt x="700" y="693" on="1"/>
        <pt x="719" y="693" on="1"/>
        <pt x="719" y="0" on="1"/>
        <pt x="658" y="0" on="1"/>
        <pt x="658" y="454" on="1"/>
        <pt x="658" y="479" on="0"/>
        <pt x="663" y="542" on="0"/>
        <pt x="666" y="568" on="1"/>
        <pt x="645" y="539" on="0"/>
        <pt x="599" y="476" on="0"/>
        <pt x="580" y="454" on="1"/>
        <pt x="444" y="293" on="1"/>
        <pt x="464" y="279" on="0"/>
        <pt x="509" y="256" on="0"/>
        <pt x="535" y="250" on="1"/>
      </contour>
    </TTGlyph>
    <TTGlyph name="N" xMin="95" yMin="-2" xMax="719" yMax="694">
      <contour>
        <pt x="704" y="-2" on="1"/>
        <pt x="668" y="5" on="0"/>
        <pt x="612" y="33" on="0"/>
        <pt x="566" y="67" on="0"/>
        <pt x="529" y="105" on="0"/>
        <pt x="514" y="123" on="1"/>
        <pt x="228" y="455" on="1"/>
        <pt x="210" y="475" on="0"/>
        <pt x="168" y="533" on="0"/>
        <pt x="149" y="561" on="1"/>
        <pt x="151" y="535" on="0"/>
        <pt x="156" y="478" on="0"/>
        <pt x="156" y="455" on="1"/>
        <pt x="156" y="0" on="1"/>
        <pt x="95" y="0" on="1"/>
        <pt x="95" y="694" on="1"/>
        <pt x="114" y="694" on="1"/>
        <pt x="575" y="144" on="1"/>
        <pt x="582" y="136" on="0"/>
        <pt x="598" y="117" on="0"/>
        <pt x="609" y="107" on="1"/>
        <pt x="607" y="127" on="0"/>
        <pt x="605" y="169" on="0"/>
        <pt x="605" y="189" on="1"/>
        <pt x="605" y="685" on="1"/>
        <pt x="666" y="685" on="1"/>
        <pt x="666" y="64" on="1"/>
        <pt x="678" y="57" on="0"/>
        <pt x="704" y="46" on="0"/>
        <pt x="719" y="43" on="1"/>
      </contour>
    </TTGlyph>
    <TTGlyph name="Ntilde" xMin="95" yMin="-2" xMax="719" yMax="861">
      <contour>
        <pt x="704" y="-2" on="1"/>
        <pt x="668" y="5" on="0"/>
        <pt x="612" y="33" on="0"/>
        <pt x="566" y="67" on="0"/>
        <pt x="529" y="105" on="0"/>
        <pt x="514" y="123" on="1"/>
        <pt x="228" y="455" on="1"/>
        <pt x="210" y="475" on="0"/>
        <pt x="168" y="533" on="0"/>
        <pt x="149" y="561" on="1"/>
        <pt x="151" y="535" on="0"/>
        <pt x="156" y="478" on="0"/>
        <pt x="156" y="455" on="1"/>
        <pt x="156" y="0" on="1"/>
        <pt x="95" y="0" on="1"/>
        <pt x="95" y="694" on="1"/>
        <pt x="114" y="694" on="1"/>
        <pt x="575" y="144" on="1"/>
        <pt x="582" y="136" on="0"/>
        <pt x="598" y="117" on="0"/>
        <pt x="609" y="107" on="1"/>
        <pt x="607" y="127" on="0"/>
        <pt x="605" y="169" on="0"/>
        <pt x="605" y="189" on="1"/>
        <pt x="605" y="685" on="1"/>
        <pt x="666" y="685" on="1"/>
        <pt x="666" y="64" on="1"/>
        <pt x="678" y="57" on="0"/>
        <pt x="704" y="46" on="0"/>
        <pt x="719" y="43" on="1"/>
      </contour>
      <contour>
        <pt x="178" y="787" on="1"/>
        <pt x="192" y="828" on="0"/>
        <pt x="253" y="860" on="0"/>
        <pt x="298" y="860" on="1"/>
        <pt x="320" y="860" on="0"/>
        <pt x="364" y="849" on="0"/>
        <pt x="406" y="836" on="0"/>
        <pt x="447" y="825" on="0"/>
        <pt x="467" y="825" on="1"/>
        <pt x="492" y="825" on="0"/>
        <pt x="528" y="839" on="0"/>
        <pt x="539" y="861" on="1"/>
        <pt x="588" y="840" on="1"/>
        <pt x="574" y="799" on="0"/>
        <pt x="513" y="767" on="0"/>
        <pt x="468" y="767" on="1"/>
        <pt x="447" y="767" on="0"/>
        <pt x="403" y="778" on="0"/>
        <pt x="359" y="791" on="0"/>
        <pt x="318" y="802" on="0"/>
        <pt x="299" y="802" on="1"/>
        <pt x="274" y="802" on="0"/>
        <pt x="238" y="788" on="0"/>
        <pt x="227" y="766" on="1"/>
      </contour>
    </TTGlyph>
    <TTGlyph name="O" xMin="60" yMin="-10" xMax="765" yMax="724">
      <contour>
        <pt x="765" y="690" on="1"/>
        <pt x="742" y="658" on="0"/>
        <pt x="672" y="631" on="0"/>
        <pt x="636" y="629" on="1"/>
        <pt x="651" y="609" on="0"/>
        <pt x="686" y="552" on="0"/>
        <pt x="716" y="480" on="0"/>
        <pt x="735" y="393" on="0"/>
        <pt x="735" y="342" on="1"/>
        <pt x="735" y="267" on="0"/>
        <pt x="687" y="138" on="0"/>
        <pt x="598" y="44" on="0"/>
        <pt x="474" y="-10" on="0"/>
        <pt x="398" y="-10" on="1"/>
        <pt x="321" y="-10" on="0"/>
        <pt x="197" y="44" on="0"/>
        <pt x="108" y="139" on="0"/>
        <pt x="60" y="267" on="0"/>
        <pt x="60" y="342" on="1"/>
        <pt x="60" y="417" on="0"/>
        <pt x="108" y="546" on="0"/>
        <pt x="197" y="640" on="0"/>
        <pt x="321" y="694" on="0"/>
        <pt x="398" y="694" on="1"/>
        <pt x="461" y="694" on="0"/>
        <pt x="566" y="684" on="0"/>
        <pt x="613" y="684" on="1"/>
        <pt x="653" y="684" on="0"/>
        <pt x="711" y="704" on="0"/>
        <pt x="732" y="724" on="1"/>
      </contour>
      <contour>
        <pt x="675" y="342" on="1"/>
        <pt x="675" y="405" on="0"/>
        <pt x="645" y="504" on="0"/>
        <pt x="606" y="577" on="0"/>
        <pt x="568" y="622" on="0"/>
        <pt x="560" y="630" on="1"/>
        <pt x="523" y="632" on="0"/>
        <pt x="442" y="639" on="0"/>
        <pt x="397" y="639" on="1"/>
        <pt x="335" y="639" on="0"/>
        <pt x="233" y="596" on="0"/>
        <pt x="161" y="517" on="0"/>
        <pt x="121" y="408" on="0"/>
        <pt x="121" y="342" on="1"/>
        <pt x="121" y="276" on="0"/>
        <pt x="161" y="167" on="0"/>
        <pt x="234" y="89" on="0"/>
        <pt x="336" y="45" on="0"/>
        <pt x="398" y="45" on="1"/>
        <pt x="460" y="45" on="0"/>
        <pt x="562" y="88" on="0"/>
        <pt x="635" y="167" on="0"/>
        <pt x="675" y="276" on="0"/>
      </contour>
    </TTGlyph>
    <TTGlyph name="OE" xMin="60" yMin="-10" xMax="988" yMax="724">
      <contour>
        <pt x="988" y="0" on="1"/>
        <pt x="597" y="0" on="1"/>
        <pt x="562" y="-3" on="0"/>
        <pt x="527" y="-5" on="1"/>
        <pt x="497" y="-7" on="0"/>
        <pt x="427" y="-10" on="0"/>
        <pt x="398" y="-10" on="1"/>
        <pt x="321" y="-10" on="0"/>
        <pt x="197" y="44" on="0"/>
        <pt x="108" y="139" on="0"/>
        <pt x="60" y="267" on="0"/>
        <pt x="60" y="342" on="1"/>
        <pt x="60" y="417" on="0"/>
        <pt x="108" y="546" on="0"/>
        <pt x="197" y="640" on="0"/>
        <pt x="321" y="694" on="0"/>
        <pt x="398" y="694" on="1"/>
        <pt x="419" y="694" on="0"/>
        <pt x="491" y="693" on="0"/>
        <pt x="577" y="690" on="0"/>
        <pt x="670" y="688" on="0"/>
        <pt x="753" y="685" on="0"/>
        <pt x="817" y="684" on="0"/>
        <pt x="833" y="684" on="1"/>
        <pt x="873" y="684" on="0"/>
        <pt x="931" y="704" on="0"/>
        <pt x="952" y="724" on="1"/>
        <pt x="985" y="690" on="1"/>
        <pt x="971" y="671" on="0"/>
        <pt x="936" y="647" on="0"/>
        <pt x="896" y="634" on="0"/>
        <pt x="854" y="629" on="0"/>
        <pt x="833" y="629" on="1"/>
        <pt x="820" y="629" on="0"/>
        <pt x="767" y="630" on="0"/>
        <pt x="699" y="632" on="0"/>
        <pt x="620" y="634" on="0"/>
        <pt x="581" y="635" on="1"/>
        <pt x="581" y="390" on="1"/>
        <pt x="898" y="390" on="1"/>
        <pt x="898" y="333" on="1"/>
        <pt x="581" y="333" on="1"/>
        <pt x="581" y="57" on="1"/>
        <pt x="988" y="57" on="1"/>
      </contour>
      <contour>
        <pt x="398" y="45" on="1"/>
        <pt x="432" y="45" on="0"/>
        <pt x="497" y="49" on="0"/>
        <pt x="520" y="52" on="1"/>
        <pt x="520" y="637" on="1"/>
        <pt x="480" y="638" on="0"/>
        <pt x="416" y="639" on="0"/>
        <pt x="397" y="639" on="1"/>
        <pt x="335" y="639" on="0"/>
        <pt x="233" y="596" on="0"/>
        <pt x="161" y="517" on="0"/>
        <pt x="121" y="408" on="0"/>
        <pt x="121" y="342" on="1"/>
        <pt x="121" y="276" on="0"/>
        <pt x="161" y="167" on="0"/>
        <pt x="234" y="89" on="0"/>
        <pt x="336" y="45" on="0"/>
      </contour>
    </TTGlyph>
    <TTGlyph name="Oacute" xMin="60" yMin="-10" xMax="765" yMax="825">
      <contour>
        <pt x="765" y="690" on="1"/>
        <pt x="742" y="658" on="0"/>
        <pt x="672" y="631" on="0"/>
        <pt x="636" y="629" on="1"/>
        <pt x="651" y="609" on="0"/>
        <pt x="686" y="552" on="0"/>
        <pt x="716" y="480" on="0"/>
        <pt x="735" y="393" on="0"/>
        <pt x="735" y="342" on="1"/>
        <pt x="735" y="267" on="0"/>
        <pt x="687" y="138" on="0"/>
        <pt x="598" y="44" on="0"/>
        <pt x="474" y="-10" on="0"/>
        <pt x="398" y="-10" on="1"/>
        <pt x="321" y="-10" on="0"/>
        <pt x="197" y="44" on="0"/>
        <pt x="108" y="139" on="0"/>
        <pt x="60" y="267" on="0"/>
        <pt x="60" y="342" on="1"/>
        <pt x="60" y="417" on="0"/>
        <pt x="108" y="546" on="0"/>
        <pt x="197" y="640" on="0"/>
        <pt x="321" y="694" on="0"/>
        <pt x="398" y="694" on="1"/>
        <pt x="461" y="694" on="0"/>
        <pt x="566" y="684" on="0"/>
        <pt x="613" y="684" on="1"/>
        <pt x="653" y="684" on="0"/>
        <pt x="711" y="704" on="0"/>
        <pt x="732" y="724" on="1"/>
      </contour>
      <contour>
        <pt x="675" y="342" on="1"/>
        <pt x="675" y="405" on="0"/>
        <pt x="645" y="504" on="0"/>
        <pt x="606" y="577" on="0"/>
        <pt x="568" y="622" on="0"/>
        <pt x="560" y="630" on="1"/>
        <pt x="523" y="632" on="0"/>
        <pt x="442" y="639" on="0"/>
        <pt x="397" y="639" on="1"/>
        <pt x="335" y="639" on="0"/>
        <pt x="233" y="596" on="0"/>
        <pt x="161" y="517" on="0"/>
        <pt x="121" y="408" on="0"/>
        <pt x="121" y="342" on="1"/>
        <pt x="121" y="276" on="0"/>
        <pt x="161" y="167" on="0"/>
        <pt x="234" y="89" on="0"/>
        <pt x="336" y="45" on="0"/>
        <pt x="398" y="45" on="1"/>
        <pt x="460" y="45" on="0"/>
        <pt x="562" y="88" on="0"/>
        <pt x="635" y="167" on="0"/>
        <pt x="675" y="276" on="0"/>
      </contour>
      <contour>
        <pt x="381" y="762" on="1"/>
        <pt x="575" y="825" on="1"/>
        <pt x="593" y="767" on="1"/>
        <pt x="393" y="722" on="1"/>
      </contour>
    </TTGlyph>
    <TTGlyph name="Ocircumflex" xMin="60" yMin="-10" xMax="765" yMax="889">
      <contour>
        <pt x="765" y="690" on="1"/>
        <pt x="742" y="658" on="0"/>
        <pt x="672" y="631" on="0"/>
        <pt x="636" y="629" on="1"/>
        <pt x="651" y="609" on="0"/>
        <pt x="686" y="552" on="0"/>
        <pt x="716" y="480" on="0"/>
        <pt x="735" y="393" on="0"/>
        <pt x="735" y="342" on="1"/>
        <pt x="735" y="267" on="0"/>
        <pt x="687" y="138" on="0"/>
        <pt x="598" y="44" on="0"/>
        <pt x="474" y="-10" on="0"/>
        <pt x="398" y="-10" on="1"/>
        <pt x="321" y="-10" on="0"/>
        <pt x="197" y="44" on="0"/>
        <pt x="108" y="139" on="0"/>
        <pt x="60" y="267" on="0"/>
        <pt x="60" y="342" on="1"/>
        <pt x="60" y="417" on="0"/>
        <pt x="108" y="546" on="0"/>
        <pt x="197" y="640" on="0"/>
        <pt x="321" y="694" on="0"/>
        <pt x="398" y="694" on="1"/>
        <pt x="461" y="694" on="0"/>
        <pt x="566" y="684" on="0"/>
        <pt x="613" y="684" on="1"/>
        <pt x="653" y="684" on="0"/>
        <pt x="711" y="704" on="0"/>
        <pt x="732" y="724" on="1"/>
      </contour>
      <contour>
        <pt x="675" y="342" on="1"/>
        <pt x="675" y="405" on="0"/>
        <pt x="645" y="504" on="0"/>
        <pt x="606" y="577" on="0"/>
        <pt x="568" y="622" on="0"/>
        <pt x="560" y="630" on="1"/>
        <pt x="523" y="632" on="0"/>
        <pt x="442" y="639" on="0"/>
        <pt x="397" y="639" on="1"/>
        <pt x="335" y="639" on="0"/>
        <pt x="233" y="596" on="0"/>
        <pt x="161" y="517" on="0"/>
        <pt x="121" y="408" on="0"/>
        <pt x="121" y="342" on="1"/>
        <pt x="121" y="276" on="0"/>
        <pt x="161" y="167" on="0"/>
        <pt x="234" y="89" on="0"/>
        <pt x="336" y="45" on="0"/>
        <pt x="398" y="45" on="1"/>
        <pt x="460" y="45" on="0"/>
        <pt x="562" y="88" on="0"/>
        <pt x="635" y="167" on="0"/>
        <pt x="675" y="276" on="0"/>
      </contour>
      <contour>
        <pt x="522" y="718" on="1"/>
        <pt x="402" y="830" on="1"/>
        <pt x="282" y="717" on="1"/>
        <pt x="245" y="754" on="1"/>
        <pt x="354" y="857" on="1"/>
        <pt x="368" y="871" on="0"/>
        <pt x="391" y="889" on="0"/>
        <pt x="402" y="889" on="1"/>
        <pt x="413" y="889" on="0"/>
        <pt x="436" y="871" on="0"/>
        <pt x="450" y="857" on="1"/>
        <pt x="559" y="755" on="1"/>
      </contour>
    </TTGlyph>
    <TTGlyph name="Odieresis" xMin="60" yMin="-10" xMax="765" yMax="857">
      <contour>
        <pt x="765" y="690" on="1"/>
        <pt x="742" y="658" on="0"/>
        <pt x="672" y="631" on="0"/>
        <pt x="636" y="629" on="1"/>
        <pt x="651" y="609" on="0"/>
        <pt x="686" y="552" on="0"/>
        <pt x="716" y="480" on="0"/>
        <pt x="735" y="393" on="0"/>
        <pt x="735" y="342" on="1"/>
        <pt x="735" y="267" on="0"/>
        <pt x="687" y="138" on="0"/>
        <pt x="598" y="44" on="0"/>
        <pt x="474" y="-10" on="0"/>
        <pt x="398" y="-10" on="1"/>
        <pt x="321" y="-10" on="0"/>
        <pt x="197" y="44" on="0"/>
        <pt x="108" y="139" on="0"/>
        <pt x="60" y="267" on="0"/>
        <pt x="60" y="342" on="1"/>
        <pt x="60" y="417" on="0"/>
        <pt x="108" y="546" on="0"/>
        <pt x="197" y="640" on="0"/>
        <pt x="321" y="694" on="0"/>
        <pt x="398" y="694" on="1"/>
        <pt x="461" y="694" on="0"/>
        <pt x="566" y="684" on="0"/>
        <pt x="613" y="684" on="1"/>
        <pt x="653" y="684" on="0"/>
        <pt x="711" y="704" on="0"/>
        <pt x="732" y="724" on="1"/>
      </contour>
      <contour>
        <pt x="675" y="342" on="1"/>
        <pt x="675" y="405" on="0"/>
        <pt x="645" y="504" on="0"/>
        <pt x="606" y="577" on="0"/>
        <pt x="568" y="622" on="0"/>
        <pt x="560" y="630" on="1"/>
        <pt x="523" y="632" on="0"/>
        <pt x="442" y="639" on="0"/>
        <pt x="397" y="639" on="1"/>
        <pt x="335" y="639" on="0"/>
        <pt x="233" y="596" on="0"/>
        <pt x="161" y="517" on="0"/>
        <pt x="121" y="408" on="0"/>
        <pt x="121" y="342" on="1"/>
        <pt x="121" y="276" on="0"/>
        <pt x="161" y="167" on="0"/>
        <pt x="234" y="89" on="0"/>
        <pt x="336" y="45" on="0"/>
        <pt x="398" y="45" on="1"/>
        <pt x="460" y="45" on="0"/>
        <pt x="562" y="88" on="0"/>
        <pt x="635" y="167" on="0"/>
        <pt x="675" y="276" on="0"/>
      </contour>
      <contour>
        <pt x="245" y="812" on="1"/>
        <pt x="245" y="831" on="0"/>
        <pt x="271" y="857" on="0"/>
        <pt x="289" y="857" on="1"/>
        <pt x="308" y="857" on="0"/>
        <pt x="334" y="831" on="0"/>
        <pt x="334" y="812" on="1"/>
        <pt x="334" y="794" on="0"/>
        <pt x="308" y="768" on="0"/>
        <pt x="289" y="768" on="1"/>
        <pt x="271" y="768" on="0"/>
        <pt x="245" y="794" on="0"/>
      </contour>
      <contour>
        <pt x="466" y="812" on="1"/>
        <pt x="466" y="831" on="0"/>
        <pt x="492" y="857" on="0"/>
        <pt x="510" y="857" on="1"/>
        <pt x="529" y="857" on="0"/>
        <pt x="555" y="831" on="0"/>
        <pt x="555" y="812" on="1"/>
        <pt x="555" y="794" on="0"/>
        <pt x="529" y="768" on="0"/>
        <pt x="510" y="768" on="1"/>
        <pt x="492" y="768" on="0"/>
        <pt x="466" y="794" on="0"/>
      </contour>
    </TTGlyph>
    <TTGlyph name="Ograve" xMin="60" yMin="-10" xMax="765" yMax="825">
      <contour>
        <pt x="765" y="690" on="1"/>
        <pt x="742" y="658" on="0"/>
        <pt x="672" y="631" on="0"/>
        <pt x="636" y="629" on="1"/>
        <pt x="651" y="609" on="0"/>
        <pt x="686" y="552" on="0"/>
        <pt x="716" y="480" on="0"/>
        <pt x="735" y="393" on="0"/>
        <pt x="735" y="342" on="1"/>
        <pt x="735" y="267" on="0"/>
        <pt x="687" y="138" on="0"/>
        <pt x="598" y="44" on="0"/>
        <pt x="474" y="-10" on="0"/>
        <pt x="398" y="-10" on="1"/>
        <pt x="321" y="-10" on="0"/>
        <pt x="197" y="44" on="0"/>
        <pt x="108" y="139" on="0"/>
        <pt x="60" y="267" on="0"/>
        <pt x="60" y="342" on="1"/>
        <pt x="60" y="417" on="0"/>
        <pt x="108" y="546" on="0"/>
        <pt x="197" y="640" on="0"/>
        <pt x="321" y="694" on="0"/>
        <pt x="398" y="694" on="1"/>
        <pt x="461" y="694" on="0"/>
        <pt x="566" y="684" on="0"/>
        <pt x="613" y="684" on="1"/>
        <pt x="653" y="684" on="0"/>
        <pt x="711" y="704" on="0"/>
        <pt x="732" y="724" on="1"/>
      </contour>
      <contour>
        <pt x="675" y="342" on="1"/>
        <pt x="675" y="405" on="0"/>
        <pt x="645" y="504" on="0"/>
        <pt x="606" y="577" on="0"/>
        <pt x="568" y="622" on="0"/>
        <pt x="560" y="630" on="1"/>
        <pt x="523" y="632" on="0"/>
        <pt x="442" y="639" on="0"/>
        <pt x="397" y="639" on="1"/>
        <pt x="335" y="639" on="0"/>
        <pt x="233" y="596" on="0"/>
        <pt x="161" y="517" on="0"/>
        <pt x="121" y="408" on="0"/>
        <pt x="121" y="342" on="1"/>
        <pt x="121" y="276" on="0"/>
        <pt x="161" y="167" on="0"/>
        <pt x="234" y="89" on="0"/>
        <pt x="336" y="45" on="0"/>
        <pt x="398" y="45" on="1"/>
        <pt x="460" y="45" on="0"/>
        <pt x="562" y="88" on="0"/>
        <pt x="635" y="167" on="0"/>
        <pt x="675" y="276" on="0"/>
      </contour>
      <contour>
        <pt x="409" y="722" on="1"/>
        <pt x="209" y="767" on="1"/>
        <pt x="227" y="825" on="1"/>
        <pt x="421" y="762" on="1"/>
      </contour>
    </TTGlyph>
    <TTGlyph name="Oslash" xMin="60" yMin="-21" xMax="765" yMax="724">
      <contour>
        <pt x="765" y="690" on="1"/>
        <pt x="742" y="658" on="0"/>
        <pt x="672" y="631" on="0"/>
        <pt x="636" y="629" on="1"/>
        <pt x="651" y="609" on="0"/>
        <pt x="686" y="552" on="0"/>
        <pt x="716" y="480" on="0"/>
        <pt x="735" y="393" on="0"/>
        <pt x="735" y="342" on="1"/>
        <pt x="735" y="267" on="0"/>
        <pt x="687" y="138" on="0"/>
        <pt x="598" y="44" on="0"/>
        <pt x="474" y="-10" on="0"/>
        <pt x="398" y="-10" on="1"/>
        <pt x="350" y="-10" on="0"/>
        <pt x="265" y="12" on="0"/>
        <pt x="228" y="32" on="1"/>
        <pt x="198" y="-21" on="1"/>
        <pt x="149" y="9" on="1"/>
        <pt x="185" y="61" on="1"/>
        <pt x="125" y="109" on="0"/>
        <pt x="60" y="254" on="0"/>
        <pt x="60" y="342" on="1"/>
        <pt x="60" y="417" on="0"/>
        <pt x="108" y="546" on="0"/>
        <pt x="197" y="640" on="0"/>
        <pt x="321" y="694" on="0"/>
        <pt x="398" y="694" on="1"/>
        <pt x="461" y="694" on="0"/>
        <pt x="566" y="684" on="0"/>
        <pt x="613" y="684" on="1"/>
        <pt x="653" y="684" on="0"/>
        <pt x="711" y="704" on="0"/>
        <pt x="732" y="724" on="1"/>
      </contour>
      <contour>
        <pt x="121" y="342" on="1"/>
        <pt x="121" y="268" on="0"/>
        <pt x="170" y="150" on="0"/>
        <pt x="215" y="110" on="1"/>
        <pt x="552" y="631" on="1"/>
        <pt x="517" y="633" on="0"/>
        <pt x="439" y="639" on="0"/>
        <pt x="397" y="639" on="1"/>
        <pt x="335" y="639" on="0"/>
        <pt x="233" y="596" on="0"/>
        <pt x="161" y="517" on="0"/>
        <pt x="121" y="408" on="0"/>
      </contour>
      <contour>
        <pt x="675" y="342" on="1"/>
        <pt x="675" y="386" on="0"/>
        <pt x="660" y="461" on="0"/>
        <pt x="636" y="524" on="0"/>
        <pt x="607" y="573" on="0"/>
        <pt x="594" y="591" on="1"/>
        <pt x="262" y="78" on="1"/>
        <pt x="291" y="62" on="0"/>
        <pt x="360" y="45" on="0"/>
        <pt x="398" y="45" on="1"/>
        <pt x="460" y="45" on="0"/>
        <pt x="562" y="88" on="0"/>
        <pt x="635" y="167" on="0"/>
        <pt x="675" y="276" on="0"/>
      </contour>
    </TTGlyph>
    <TTGlyph name="Otilde" xMin="60" yMin="-10" xMax="765" yMax="860">
      <contour>
        <pt x="765" y="690" on="1"/>
        <pt x="742" y="658" on="0"/>
        <pt x="672" y="631" on="0"/>
        <pt x="636" y="629" on="1"/>
        <pt x="651" y="609" on="0"/>
        <pt x="686" y="552" on="0"/>
        <pt x="716" y="480" on="0"/>
        <pt x="735" y="393" on="0"/>
        <pt x="735" y="342" on="1"/>
        <pt x="735" y="267" on="0"/>
        <pt x="687" y="138" on="0"/>
        <pt x="598" y="44" on="0"/>
        <pt x="474" y="-10" on="0"/>
        <pt x="398" y="-10" on="1"/>
        <pt x="321" y="-10" on="0"/>
        <pt x="197" y="44" on="0"/>
        <pt x="108" y="139" on="0"/>
        <pt x="60" y="267" on="0"/>
        <pt x="60" y="342" on="1"/>
        <pt x="60" y="417" on="0"/>
        <pt x="108" y="546" on="0"/>
        <pt x="197" y="640" on="0"/>
        <pt x="321" y="694" on="0"/>
        <pt x="398" y="694" on="1"/>
        <pt x="461" y="694" on="0"/>
        <pt x="566" y="684" on="0"/>
        <pt x="613" y="684" on="1"/>
        <pt x="653" y="684" on="0"/>
        <pt x="711" y="704" on="0"/>
        <pt x="732" y="724" on="1"/>
      </contour>
      <contour>
        <pt x="675" y="342" on="1"/>
        <pt x="675" y="405" on="0"/>
        <pt x="645" y="504" on="0"/>
        <pt x="606" y="577" on="0"/>
        <pt x="568" y="622" on="0"/>
        <pt x="560" y="630" on="1"/>
        <pt x="523" y="632" on="0"/>
        <pt x="442" y="639" on="0"/>
        <pt x="397" y="639" on="1"/>
        <pt x="335" y="639" on="0"/>
        <pt x="233" y="596" on="0"/>
        <pt x="161" y="517" on="0"/>
        <pt x="121" y="408" on="0"/>
        <pt x="121" y="342" on="1"/>
        <pt x="121" y="276" on="0"/>
        <pt x="161" y="167" on="0"/>
        <pt x="234" y="89" on="0"/>
        <pt x="336" y="45" on="0"/>
        <pt x="398" y="45" on="1"/>
        <pt x="460" y="45" on="0"/>
        <pt x="562" y="88" on="0"/>
        <pt x="635" y="167" on="0"/>
        <pt x="675" y="276" on="0"/>
      </contour>
      <contour>
        <pt x="200" y="786" on="1"/>
        <pt x="214" y="827" on="0"/>
        <pt x="275" y="859" on="0"/>
        <pt x="320" y="859" on="1"/>
        <pt x="342" y="859" on="0"/>
        <pt x="386" y="848" on="0"/>
        <pt x="428" y="835" on="0"/>
        <pt x="469" y="824" on="0"/>
        <pt x="489" y="824" on="1"/>
        <pt x="514" y="824" on="0"/>
        <pt x="550" y="838" on="0"/>
        <pt x="561" y="860" on="1"/>
        <pt x="610" y="839" on="1"/>
        <pt x="596" y="798" on="0"/>
        <pt x="535" y="766" on="0"/>
        <pt x="490" y="766" on="1"/>
        <pt x="469" y="766" on="0"/>
        <pt x="425" y="777" on="0"/>
        <pt x="381" y="790" on="0"/>
        <pt x="340" y="801" on="0"/>
        <pt x="321" y="801" on="1"/>
        <pt x="296" y="801" on="0"/>
        <pt x="260" y="787" on="0"/>
        <pt x="249" y="765" on="1"/>
      </contour>
    </TTGlyph>
    <TTGlyph name="P" xMin="5" yMin="0" xMax="523" yMax="724">
      <contour>
        <pt x="312" y="639" on="1"/>
        <pt x="280" y="639" on="0"/>
        <pt x="242" y="636" on="0"/>
        <pt x="215" y="633" on="0"/>
        <pt x="191" y="629" on="0"/>
        <pt x="175" y="629" on="1"/>
        <pt x="175" y="0" on="1"/>
        <pt x="114" y="0" on="1"/>
        <pt x="114" y="631" on="1"/>
        <pt x="82" y="636" on="0"/>
        <pt x="25" y="662" on="0"/>
        <pt x="5" y="690" on="1"/>
        <pt x="38" y="724" on="1"/>
        <pt x="59" y="704" on="0"/>
        <pt x="117" y="684" on="0"/>
        <pt x="157" y="684" on="1"/>
        <pt x="180" y="684" on="0"/>
        <pt x="212" y="687" on="0"/>
        <pt x="244" y="691" on="0"/>
        <pt x="283" y="694" on="0"/>
        <pt x="315" y="694" on="1"/>
        <pt x="362" y="694" on="0"/>
        <pt x="439" y="661" on="0"/>
        <pt x="493" y="602" on="0"/>
        <pt x="523" y="523" on="0"/>
        <pt x="523" y="477" on="1"/>
        <pt x="523" y="430" on="0"/>
        <pt x="493" y="351" on="0"/>
        <pt x="439" y="292" on="0"/>
        <pt x="362" y="259" on="0"/>
        <pt x="315" y="259" on="1"/>
        <pt x="296" y="259" on="0"/>
        <pt x="264" y="259" on="0"/>
        <pt x="252" y="260" on="1"/>
        <pt x="238" y="260" on="0"/>
        <pt x="226" y="261" on="1"/>
        <pt x="226" y="316" on="1"/>
        <pt x="238" y="315" on="0"/>
        <pt x="252" y="315" on="1"/>
        <pt x="264" y="314" on="0"/>
        <pt x="295" y="314" on="0"/>
        <pt x="312" y="314" on="1"/>
        <pt x="346" y="314" on="0"/>
        <pt x="402" y="338" on="0"/>
        <pt x="442" y="381" on="0"/>
        <pt x="464" y="441" on="0"/>
        <pt x="464" y="477" on="1"/>
        <pt x="464" y="513" on="0"/>
        <pt x="442" y="572" on="0"/>
        <pt x="402" y="615" on="0"/>
        <pt x="346" y="639" on="0"/>
      </contour>
    </TTGlyph>
    <TTGlyph name="Q" xMin="60" yMin="-199" xMax="735" yMax="694">
      <contour>
        <pt x="509" y="-193" on="1"/>
        <pt x="471" y="-193" on="0"/>
        <pt x="408" y="-181" on="0"/>
        <pt x="379" y="-171" on="1"/>
        <pt x="280" y="-138" on="1"/>
        <pt x="238" y="-199" on="1"/>
        <pt x="195" y="-166" on="1"/>
        <pt x="313" y="0" on="1"/>
        <pt x="254" y="13" on="0"/>
        <pt x="161" y="76" on="0"/>
        <pt x="95" y="166" on="0"/>
        <pt x="60" y="278" on="0"/>
        <pt x="60" y="342" on="1"/>
        <pt x="60" y="417" on="0"/>
        <pt x="108" y="546" on="0"/>
        <pt x="197" y="640" on="0"/>
        <pt x="321" y="694" on="0"/>
        <pt x="398" y="694" on="1"/>
        <pt x="474" y="694" on="0"/>
        <pt x="598" y="640" on="0"/>
        <pt x="687" y="545" on="0"/>
        <pt x="735" y="417" on="0"/>
        <pt x="735" y="342" on="1"/>
        <pt x="735" y="267" on="0"/>
        <pt x="687" y="138" on="0"/>
        <pt x="598" y="44" on="0"/>
        <pt x="474" y="-10" on="0"/>
        <pt x="398" y="-10" on="1"/>
        <pt x="390" y="-10" on="0"/>
        <pt x="377" y="-9" on="0"/>
        <pt x="370" y="-9" on="1"/>
        <pt x="311" y="-94" on="1"/>
        <pt x="391" y="-121" on="1"/>
        <pt x="420" y="-131" on="0"/>
        <pt x="476" y="-141" on="0"/>
        <pt x="509" y="-141" on="1"/>
        <pt x="550" y="-141" on="0"/>
        <pt x="599" y="-106" on="1"/>
        <pt x="624" y="-150" on="1"/>
        <pt x="565" y="-193" on="0"/>
      </contour>
      <contour>
        <pt x="398" y="639" on="1"/>
        <pt x="336" y="639" on="0"/>
        <pt x="234" y="596" on="0"/>
        <pt x="161" y="517" on="0"/>
        <pt x="121" y="408" on="0"/>
        <pt x="121" y="342" on="1"/>
        <pt x="121" y="276" on="0"/>
        <pt x="161" y="167" on="0"/>
        <pt x="234" y="89" on="0"/>
        <pt x="336" y="45" on="0"/>
        <pt x="398" y="45" on="1"/>
        <pt x="460" y="45" on="0"/>
        <pt x="562" y="88" on="0"/>
        <pt x="635" y="167" on="0"/>
        <pt x="675" y="276" on="0"/>
        <pt x="675" y="342" on="1"/>
        <pt x="675" y="408" on="0"/>
        <pt x="635" y="517" on="0"/>
        <pt x="562" y="595" on="0"/>
        <pt x="460" y="639" on="0"/>
      </contour>
    </TTGlyph>
    <TTGlyph name="R" xMin="5" yMin="0" xMax="571" yMax="724">
      <contour>
        <pt x="505" y="0" on="1"/>
        <pt x="435" y="178" on="1"/>
        <pt x="424" y="206" on="0"/>
        <pt x="396" y="250" on="0"/>
        <pt x="357" y="281" on="0"/>
        <pt x="305" y="297" on="0"/>
        <pt x="271" y="297" on="1"/>
        <pt x="175" y="297" on="1"/>
        <pt x="175" y="0" on="1"/>
        <pt x="114" y="0" on="1"/>
        <pt x="114" y="631" on="1"/>
        <pt x="82" y="636" on="0"/>
        <pt x="25" y="662" on="0"/>
        <pt x="5" y="690" on="1"/>
        <pt x="38" y="724" on="1"/>
        <pt x="59" y="704" on="0"/>
        <pt x="117" y="684" on="0"/>
        <pt x="157" y="684" on="1"/>
        <pt x="180" y="684" on="0"/>
        <pt x="212" y="687" on="0"/>
        <pt x="244" y="691" on="0"/>
        <pt x="283" y="694" on="0"/>
        <pt x="315" y="694" on="1"/>
        <pt x="360" y="694" on="0"/>
        <pt x="434" y="664" on="0"/>
        <pt x="487" y="611" on="0"/>
        <pt x="517" y="539" on="0"/>
        <pt x="517" y="496" on="1"/>
        <pt x="517" y="427" on="0"/>
        <pt x="449" y="338" on="0"/>
        <pt x="391" y="320" on="1"/>
        <pt x="424" y="305" on="0"/>
        <pt x="465" y="253" on="0"/>
        <pt x="481" y="216" on="1"/>
        <pt x="571" y="0" on="1"/>
      </contour>
      <contour>
        <pt x="312" y="639" on="1"/>
        <pt x="280" y="639" on="0"/>
        <pt x="242" y="636" on="0"/>
        <pt x="215" y="633" on="0"/>
        <pt x="191" y="629" on="0"/>
        <pt x="175" y="629" on="1"/>
        <pt x="175" y="352" on="1"/>
        <pt x="314" y="352" on="1"/>
        <pt x="345" y="352" on="0"/>
        <pt x="398" y="372" on="0"/>
        <pt x="436" y="409" on="0"/>
        <pt x="457" y="463" on="0"/>
        <pt x="457" y="496" on="1"/>
        <pt x="457" y="562" on="0"/>
        <pt x="378" y="639" on="0"/>
      </contour>
    </TTGlyph>
    <TTGlyph name="S" xMin="35" yMin="-10" xMax="492" yMax="724">
      <contour>
        <pt x="256" y="636" on="1"/>
        <pt x="196" y="636" on="0"/>
        <pt x="132" y="579" on="0"/>
        <pt x="132" y="537" on="1"/>
        <pt x="132" y="500" on="0"/>
        <pt x="160" y="450" on="0"/>
        <pt x="206" y="416" on="0"/>
        <pt x="265" y="392" on="0"/>
        <pt x="297" y="381" on="1"/>
        <pt x="331" y="369" on="0"/>
        <pt x="401" y="336" on="0"/>
        <pt x="457" y="287" on="0"/>
        <pt x="492" y="218" on="0"/>
        <pt x="492" y="169" on="1"/>
        <pt x="492" y="120" on="0"/>
        <pt x="452" y="52" on="0"/>
        <pt x="387" y="9" on="0"/>
        <pt x="303" y="-10" on="0"/>
        <pt x="259" y="-10" on="1"/>
        <pt x="194" y="-10" on="0"/>
        <pt x="77" y="33" on="0"/>
        <pt x="35" y="64" on="1"/>
        <pt x="68" y="112" on="1"/>
        <pt x="87" y="100" on="0"/>
        <pt x="131" y="77" on="0"/>
        <pt x="182" y="57" on="0"/>
        <pt x="238" y="45" on="0"/>
        <pt x="270" y="45" on="1"/>
        <pt x="302" y="45" on="0"/>
        <pt x="360" y="58" on="0"/>
        <pt x="404" y="87" on="0"/>
        <pt x="430" y="134" on="0"/>
        <pt x="430" y="169" on="1"/>
        <pt x="430" y="205" on="0"/>
        <pt x="402" y="256" on="0"/>
        <pt x="356" y="293" on="0"/>
        <pt x="296" y="320" on="0"/>
        <pt x="264" y="332" on="1"/>
        <pt x="230" y="345" on="0"/>
        <pt x="161" y="374" on="0"/>
        <pt x="105" y="419" on="0"/>
        <pt x="70" y="486" on="0"/>
        <pt x="70" y="537" on="1"/>
        <pt x="70" y="568" on="0"/>
        <pt x="97" y="624" on="0"/>
        <pt x="148" y="666" on="0"/>
        <pt x="221" y="691" on="0"/>
        <pt x="266" y="691" on="1"/>
        <pt x="296" y="691" on="0"/>
        <pt x="342" y="689" on="0"/>
        <pt x="356" y="689" on="1"/>
        <pt x="390" y="689" on="0"/>
        <pt x="429" y="704" on="0"/>
        <pt x="450" y="724" on="1"/>
        <pt x="483" y="690" on="1"/>
        <pt x="469" y="671" on="0"/>
        <pt x="441" y="649" on="0"/>
        <pt x="410" y="637" on="0"/>
        <pt x="376" y="634" on="0"/>
        <pt x="356" y="634" on="1"/>
        <pt x="339" y="634" on="0"/>
        <pt x="285" y="636" on="0"/>
      </contour>
    </TTGlyph>
    <TTGlyph name="T" xMin="15" yMin="0" xMax="554" yMax="684">
      <contour>
        <pt x="554" y="627" on="1"/>
        <pt x="315" y="627" on="1"/>
        <pt x="315" y="0" on="1"/>
        <pt x="254" y="0" on="1"/>
        <pt x="254" y="627" on="1"/>
        <pt x="15" y="627" on="1"/>
        <pt x="15" y="684" on="1"/>
        <pt x="554" y="684" on="1"/>
      </contour>
    </TTGlyph>
    <TTGlyph name="Thorn" xMin="95" yMin="0" xMax="493" yMax="684">
      <contour>
        <pt x="285" y="564" on="1"/>
        <pt x="332" y="564" on="0"/>
        <pt x="409" y="531" on="0"/>
        <pt x="463" y="472" on="0"/>
        <pt x="493" y="393" on="0"/>
        <pt x="493" y="347" on="1"/>
        <pt x="493" y="300" on="0"/>
        <pt x="463" y="221" on="0"/>
        <pt x="409" y="162" on="0"/>
        <pt x="332" y="129" on="0"/>
        <pt x="285" y="129" on="1"/>
        <pt x="270" y="129" on="0"/>
        <pt x="232" y="129" on="0"/>
        <pt x="196" y="130" on="0"/>
        <pt x="165" y="130" on="0"/>
        <pt x="156" y="130" on="1"/>
        <pt x="156" y="0" on="1"/>
        <pt x="95" y="0" on="1"/>
        <pt x="95" y="684" on="1"/>
        <pt x="156" y="684" on="1"/>
        <pt x="156" y="557" on="1"/>
        <pt x="181" y="559" on="0"/>
        <pt x="254" y="564" on="0"/>
      </contour>
      <contour>
        <pt x="282" y="509" on="1"/>
        <pt x="254" y="509" on="0"/>
        <pt x="181" y="504" on="0"/>
        <pt x="156" y="502" on="1"/>
        <pt x="156" y="185" on="1"/>
        <pt x="164" y="185" on="0"/>
        <pt x="195" y="185" on="0"/>
        <pt x="231" y="184" on="0"/>
        <pt x="268" y="184" on="0"/>
        <pt x="282" y="184" on="1"/>
        <pt x="316" y="184" on="0"/>
        <pt x="372" y="208" on="0"/>
        <pt x="412" y="251" on="0"/>
        <pt x="434" y="311" on="0"/>
        <pt x="434" y="347" on="1"/>
        <pt x="434" y="383" on="0"/>
        <pt x="412" y="442" on="0"/>
        <pt x="372" y="485" on="0"/>
        <pt x="316" y="509" on="0"/>
      </contour>
    </TTGlyph>
    <TTGlyph name="U" xMin="90" yMin="-10" xMax="625" yMax="684">
      <contour>
        <pt x="151" y="684" on="1"/>
        <pt x="151" y="267" on="1"/>
        <pt x="151" y="215" on="0"/>
        <pt x="181" y="133" on="0"/>
        <pt x="235" y="76" on="0"/>
        <pt x="311" y="45" on="0"/>
        <pt x="357" y="45" on="1"/>
        <pt x="403" y="45" on="0"/>
        <pt x="480" y="76" on="0"/>
        <pt x="534" y="133" on="0"/>
        <pt x="564" y="215" on="0"/>
        <pt x="564" y="267" on="1"/>
        <pt x="564" y="684" on="1"/>
        <pt x="625" y="684" on="1"/>
        <pt x="625" y="267" on="1"/>
        <pt x="625" y="205" on="0"/>
        <pt x="587" y="104" on="0"/>
        <pt x="516" y="30" on="0"/>
        <pt x="418" y="-10" on="0"/>
        <pt x="358" y="-10" on="1"/>
        <pt x="297" y="-10" on="0"/>
        <pt x="198" y="30" on="0"/>
        <pt x="128" y="104" on="0"/>
        <pt x="90" y="205" on="0"/>
        <pt x="90" y="267" on="1"/>
        <pt x="90" y="684" on="1"/>
      </contour>
    </TTGlyph>
    <TTGlyph name="Uacute" xMin="90" yMin="-10" xMax="625" yMax="826">
      <contour>
        <pt x="151" y="684" on="1"/>
        <pt x="151" y="267" on="1"/>
        <pt x="151" y="215" on="0"/>
        <pt x="181" y="133" on="0"/>
        <pt x="235" y="76" on="0"/>
        <pt x="311" y="45" on="0"/>
        <pt x="357" y="45" on="1"/>
        <pt x="403" y="45" on="0"/>
        <pt x="480" y="76" on="0"/>
        <pt x="534" y="133" on="0"/>
        <pt x="564" y="215" on="0"/>
        <pt x="564" y="267" on="1"/>
        <pt x="564" y="684" on="1"/>
        <pt x="625" y="684" on="1"/>
        <pt x="625" y="267" on="1"/>
        <pt x="625" y="205" on="0"/>
        <pt x="587" y="104" on="0"/>
        <pt x="516" y="30" on="0"/>
        <pt x="418" y="-10" on="0"/>
        <pt x="358" y="-10" on="1"/>
        <pt x="297" y="-10" on="0"/>
        <pt x="198" y="30" on="0"/>
        <pt x="128" y="104" on="0"/>
        <pt x="90" y="205" on="0"/>
        <pt x="90" y="267" on="1"/>
        <pt x="90" y="684" on="1"/>
      </contour>
      <contour>
        <pt x="337" y="763" on="1"/>
        <pt x="531" y="826" on="1"/>
        <pt x="549" y="768" on="1"/>
        <pt x="349" y="723" on="1"/>
      </contour>
    </TTGlyph>
    <TTGlyph name="Ucircumflex" xMin="90" yMin="-10" xMax="625" yMax="890">
      <contour>
        <pt x="151" y="684" on="1"/>
        <pt x="151" y="267" on="1"/>
        <pt x="151" y="215" on="0"/>
        <pt x="181" y="133" on="0"/>
        <pt x="235" y="76" on="0"/>
        <pt x="311" y="45" on="0"/>
        <pt x="357" y="45" on="1"/>
        <pt x="403" y="45" on="0"/>
        <pt x="480" y="76" on="0"/>
        <pt x="534" y="133" on="0"/>
        <pt x="564" y="215" on="0"/>
        <pt x="564" y="267" on="1"/>
        <pt x="564" y="684" on="1"/>
        <pt x="625" y="684" on="1"/>
        <pt x="625" y="267" on="1"/>
        <pt x="625" y="205" on="0"/>
        <pt x="587" y="104" on="0"/>
        <pt x="516" y="30" on="0"/>
        <pt x="418" y="-10" on="0"/>
        <pt x="358" y="-10" on="1"/>
        <pt x="297" y="-10" on="0"/>
        <pt x="198" y="30" on="0"/>
        <pt x="128" y="104" on="0"/>
        <pt x="90" y="205" on="0"/>
        <pt x="90" y="267" on="1"/>
        <pt x="90" y="684" on="1"/>
      </contour>
      <contour>
        <pt x="478" y="719" on="1"/>
        <pt x="358" y="831" on="1"/>
        <pt x="238" y="718" on="1"/>
        <pt x="201" y="755" on="1"/>
        <pt x="310" y="858" on="1"/>
        <pt x="324" y="872" on="0"/>
        <pt x="347" y="890" on="0"/>
        <pt x="358" y="890" on="1"/>
        <pt x="369" y="890" on="0"/>
        <pt x="392" y="872" on="0"/>
        <pt x="406" y="858" on="1"/>
        <pt x="515" y="756" on="1"/>
      </contour>
    </TTGlyph>
    <TTGlyph name="Udieresis" xMin="90" yMin="-10" xMax="625" yMax="858">
      <contour>
        <pt x="151" y="684" on="1"/>
        <pt x="151" y="267" on="1"/>
        <pt x="151" y="215" on="0"/>
        <pt x="181" y="133" on="0"/>
        <pt x="235" y="76" on="0"/>
        <pt x="311" y="45" on="0"/>
        <pt x="357" y="45" on="1"/>
        <pt x="403" y="45" on="0"/>
        <pt x="480" y="76" on="0"/>
        <pt x="534" y="133" on="0"/>
        <pt x="564" y="215" on="0"/>
        <pt x="564" y="267" on="1"/>
        <pt x="564" y="684" on="1"/>
        <pt x="625" y="684" on="1"/>
        <pt x="625" y="267" on="1"/>
        <pt x="625" y="205" on="0"/>
        <pt x="587" y="104" on="0"/>
        <pt x="516" y="30" on="0"/>
        <pt x="418" y="-10" on="0"/>
        <pt x="358" y="-10" on="1"/>
        <pt x="297" y="-10" on="0"/>
        <pt x="198" y="30" on="0"/>
        <pt x="128" y="104" on="0"/>
        <pt x="90" y="205" on="0"/>
        <pt x="90" y="267" on="1"/>
        <pt x="90" y="684" on="1"/>
      </contour>
      <contour>
        <pt x="201" y="813" on="1"/>
        <pt x="201" y="832" on="0"/>
        <pt x="227" y="858" on="0"/>
        <pt x="245" y="858" on="1"/>
        <pt x="264" y="858" on="0"/>
        <pt x="290" y="832" on="0"/>
        <pt x="290" y="813" on="1"/>
        <pt x="290" y="795" on="0"/>
        <pt x="264" y="769" on="0"/>
        <pt x="245" y="769" on="1"/>
        <pt x="227" y="769" on="0"/>
        <pt x="201" y="795" on="0"/>
      </contour>
      <contour>
        <pt x="422" y="813" on="1"/>
        <pt x="422" y="832" on="0"/>
        <pt x="448" y="858" on="0"/>
        <pt x="466" y="858" on="1"/>
        <pt x="485" y="858" on="0"/>
        <pt x="511" y="832" on="0"/>
        <pt x="511" y="813" on="1"/>
        <pt x="511" y="795" on="0"/>
        <pt x="485" y="769" on="0"/>
        <pt x="466" y="769" on="1"/>
        <pt x="448" y="769" on="0"/>
        <pt x="422" y="795" on="0"/>
      </contour>
    </TTGlyph>
    <TTGlyph name="Ugrave" xMin="90" yMin="-10" xMax="625" yMax="826">
      <contour>
        <pt x="151" y="684" on="1"/>
        <pt x="151" y="267" on="1"/>
        <pt x="151" y="215" on="0"/>
        <pt x="181" y="133" on="0"/>
        <pt x="235" y="76" on="0"/>
        <pt x="311" y="45" on="0"/>
        <pt x="357" y="45" on="1"/>
        <pt x="403" y="45" on="0"/>
        <pt x="480" y="76" on="0"/>
        <pt x="534" y="133" on="0"/>
        <pt x="564" y="215" on="0"/>
        <pt x="564" y="267" on="1"/>
        <pt x="564" y="684" on="1"/>
        <pt x="625" y="684" on="1"/>
        <pt x="625" y="267" on="1"/>
        <pt x="625" y="205" on="0"/>
        <pt x="587" y="104" on="0"/>
        <pt x="516" y="30" on="0"/>
        <pt x="418" y="-10" on="0"/>
        <pt x="358" y="-10" on="1"/>
        <pt x="297" y="-10" on="0"/>
        <pt x="198" y="30" on="0"/>
        <pt x="128" y="104" on="0"/>
        <pt x="90" y="205" on="0"/>
        <pt x="90" y="267" on="1"/>
        <pt x="90" y="684" on="1"/>
      </contour>
      <contour>
        <pt x="365" y="723" on="1"/>
        <pt x="165" y="768" on="1"/>
        <pt x="183" y="826" on="1"/>
        <pt x="377" y="763" on="1"/>
      </contour>
    </TTGlyph>
    <TTGlyph name="V" xMin="35" yMin="-14" xMax="629" yMax="694">
      <contour>
        <pt x="408" y="-8" on="1"/>
        <pt x="395" y="-11" on="0"/>
        <pt x="367" y="-14" on="0"/>
        <pt x="356" y="-14" on="1"/>
        <pt x="323" y="-14" on="0"/>
        <pt x="273" y="9" on="0"/>
        <pt x="235" y="47" on="0"/>
        <pt x="209" y="96" on="0"/>
        <pt x="202" y="121" on="1"/>
        <pt x="35" y="679" on="1"/>
        <pt x="94" y="694" on="1"/>
        <pt x="261" y="136" on="1"/>
        <pt x="273" y="93" on="0"/>
        <pt x="320" y="43" on="0"/>
        <pt x="360" y="39" on="1"/>
        <pt x="572" y="694" on="1"/>
        <pt x="629" y="677" on="1"/>
        <pt x="408" y="-8" on="1"/>
      </contour>
    </TTGlyph>
    <TTGlyph name="W" xMin="40" yMin="-14" xMax="937" yMax="696">
      <contour>
        <pt x="380" y="-8" on="1"/>
        <pt x="367" y="-11" on="0"/>
        <pt x="339" y="-14" on="0"/>
        <pt x="328" y="-14" on="1"/>
        <pt x="296" y="-14" on="0"/>
        <pt x="248" y="9" on="0"/>
        <pt x="213" y="47" on="0"/>
        <pt x="190" y="95" on="0"/>
        <pt x="184" y="121" on="1"/>
        <pt x="40" y="680" on="1"/>
        <pt x="99" y="695" on="1"/>
        <pt x="243" y="136" on="1"/>
        <pt x="254" y="91" on="0"/>
        <pt x="296" y="42" on="0"/>
        <pt x="337" y="39" on="1"/>
        <pt x="463" y="321" on="1"/>
        <pt x="463" y="570" on="1"/>
        <pt x="524" y="570" on="1"/>
        <pt x="524" y="321" on="1"/>
        <pt x="610" y="118" on="1"/>
        <pt x="627" y="77" on="0"/>
        <pt x="670" y="42" on="0"/>
        <pt x="701" y="39" on="1"/>
        <pt x="880" y="696" on="1"/>
        <pt x="937" y="679" on="1"/>
        <pt x="751" y="-8" on="1"/>
        <pt x="738" y="-11" on="0"/>
        <pt x="710" y="-14" on="0"/>
        <pt x="699" y="-14" on="1"/>
        <pt x="669" y="-14" on="0"/>
        <pt x="622" y="5" on="0"/>
        <pt x="586" y="36" on="0"/>
        <pt x="560" y="79" on="0"/>
        <pt x="551" y="103" on="1"/>
        <pt x="494" y="247" on="1"/>
        <pt x="380" y="-8" on="1"/>
      </contour>
    </TTGlyph>
    <TTGlyph name="X" xMin="50" yMin="0" xMax="546" yMax="694">
      <contour>
        <pt x="50" y="0" on="1"/>
        <pt x="206" y="365" on="1"/>
        <pt x="183" y="387" on="0"/>
        <pt x="153" y="440" on="0"/>
        <pt x="145" y="461" on="1"/>
        <pt x="63" y="678" on="1"/>
        <pt x="121" y="694" on="1"/>
        <pt x="204" y="476" on="1"/>
        <pt x="218" y="439" on="0"/>
        <pt x="265" y="388" on="0"/>
        <pt x="314" y="376" on="1"/>
        <pt x="323" y="373" on="1"/>
        <pt x="465" y="694" on="1"/>
        <pt x="523" y="678" on="1"/>
        <pt x="377" y="345" on="1"/>
        <pt x="404" y="324" on="0"/>
        <pt x="437" y="270" on="0"/>
        <pt x="447" y="246" on="1"/>
        <pt x="546" y="0" on="1"/>
        <pt x="482" y="0" on="1"/>
        <pt x="388" y="231" on="1"/>
        <pt x="371" y="274" on="0"/>
        <pt x="315" y="318" on="0"/>
        <pt x="270" y="329" on="1"/>
        <pt x="258" y="332" on="1"/>
        <pt x="116" y="0" on="1"/>
      </contour>
    </TTGlyph>
    <TTGlyph name="Y" xMin="35" yMin="0" xMax="502" yMax="695">
      <contour>
        <pt x="358" y="262" on="1"/>
        <pt x="347" y="260" on="0"/>
        <pt x="319" y="256" on="0"/>
        <pt x="307" y="256" on="1"/>
        <pt x="307" y="0" on="1"/>
        <pt x="246" y="0" on="1"/>
        <pt x="246" y="264" on="1"/>
        <pt x="201" y="279" on="0"/>
        <pt x="145" y="351" on="0"/>
        <pt x="132" y="391" on="1"/>
        <pt x="35" y="680" on="1"/>
        <pt x="94" y="695" on="1"/>
        <pt x="191" y="406" on="1"/>
        <pt x="205" y="361" on="0"/>
        <pt x="265" y="310" on="0"/>
        <pt x="311" y="309" on="1"/>
        <pt x="445" y="694" on="1"/>
        <pt x="502" y="677" on="1"/>
        <pt x="358" y="262" on="1"/>
      </contour>
    </TTGlyph>
    <TTGlyph name="Yacute" xMin="35" yMin="0" xMax="502" yMax="826">
      <contour>
        <pt x="358" y="262" on="1"/>
        <pt x="347" y="260" on="0"/>
        <pt x="319" y="256" on="0"/>
        <pt x="307" y="256" on="1"/>
        <pt x="307" y="0" on="1"/>
        <pt x="246" y="0" on="1"/>
        <pt x="246" y="264" on="1"/>
        <pt x="201" y="279" on="0"/>
        <pt x="145" y="351" on="0"/>
        <pt x="132" y="391" on="1"/>
        <pt x="35" y="680" on="1"/>
        <pt x="94" y="695" on="1"/>
        <pt x="191" y="406" on="1"/>
        <pt x="205" y="361" on="0"/>
        <pt x="265" y="310" on="0"/>
        <pt x="311" y="309" on="1"/>
        <pt x="445" y="694" on="1"/>
        <pt x="502" y="677" on="1"/>
      </contour>
      <contour>
        <pt x="257" y="763" on="1"/>
        <pt x="451" y="826" on="1"/>
        <pt x="469" y="768" on="1"/>
        <pt x="269" y="723" on="1"/>
      </contour>
    </TTGlyph>
    <TTGlyph name="Ydieresis" xMin="35" yMin="0" xMax="502" yMax="858">
      <contour>
        <pt x="358" y="262" on="1"/>
        <pt x="347" y="260" on="0"/>
        <pt x="319" y="256" on="0"/>
        <pt x="307" y="256" on="1"/>
        <pt x="307" y="0" on="1"/>
        <pt x="246" y="0" on="1"/>
        <pt x="246" y="264" on="1"/>
        <pt x="201" y="279" on="0"/>
        <pt x="145" y="351" on="0"/>
        <pt x="132" y="391" on="1"/>
        <pt x="35" y="680" on="1"/>
        <pt x="94" y="695" on="1"/>
        <pt x="191" y="406" on="1"/>
        <pt x="205" y="361" on="0"/>
        <pt x="265" y="310" on="0"/>
        <pt x="311" y="309" on="1"/>
        <pt x="445" y="694" on="1"/>
        <pt x="502" y="677" on="1"/>
      </contour>
      <contour>
        <pt x="342" y="813" on="1"/>
        <pt x="342" y="832" on="0"/>
        <pt x="368" y="858" on="0"/>
        <pt x="386" y="858" on="1"/>
        <pt x="405" y="858" on="0"/>
        <pt x="431" y="832" on="0"/>
        <pt x="431" y="813" on="1"/>
        <pt x="431" y="795" on="0"/>
        <pt x="405" y="769" on="0"/>
        <pt x="386" y="769" on="1"/>
        <pt x="368" y="769" on="0"/>
        <pt x="342" y="795" on="0"/>
      </contour>
      <contour>
        <pt x="121" y="813" on="1"/>
        <pt x="121" y="832" on="0"/>
        <pt x="147" y="858" on="0"/>
        <pt x="165" y="858" on="1"/>
        <pt x="184" y="858" on="0"/>
        <pt x="210" y="832" on="0"/>
        <pt x="210" y="813" on="1"/>
        <pt x="210" y="795" on="0"/>
        <pt x="184" y="769" on="0"/>
        <pt x="165" y="769" on="1"/>
        <pt x="147" y="769" on="0"/>
        <pt x="121" y="795" on="0"/>
      </contour>
    </TTGlyph>
    <TTGlyph name="Z" xMin="40" yMin="0" xMax="511" yMax="684">
      <contour>
        <pt x="40" y="13" on="1"/>
        <pt x="399" y="627" on="1"/>
        <pt x="60" y="627" on="1"/>
        <pt x="60" y="684" on="1"/>
        <pt x="491" y="684" on="1"/>
        <pt x="491" y="671" on="1"/>
        <pt x="132" y="57" on="1"/>
        <pt x="511" y="57" on="1"/>
        <pt x="511" y="0" on="1"/>
        <pt x="40" y="0" on="1"/>
      </contour>
    </TTGlyph>
    <TTGlyph name="a" xMin="40" yMin="-10" xMax="442" yMax="508">
      <contour>
        <pt x="200" y="-10" on="1"/>
        <pt x="166" y="-10" on="0"/>
        <pt x="107" y="8" on="0"/>
        <pt x="64" y="44" on="0"/>
        <pt x="40" y="98" on="0"/>
        <pt x="40" y="133" on="1"/>
        <pt x="40" y="175" on="0"/>
        <pt x="77" y="231" on="0"/>
        <pt x="137" y="266" on="0"/>
        <pt x="212" y="280" on="0"/>
        <pt x="251" y="280" on="1"/>
        <pt x="348" y="280" on="1"/>
        <pt x="348" y="336" on="1"/>
        <pt x="348" y="398" on="0"/>
        <pt x="298" y="456" on="0"/>
        <pt x="244" y="456" on="1"/>
        <pt x="204" y="456" on="0"/>
        <pt x="122" y="422" on="0"/>
        <pt x="96" y="402" on="1"/>
        <pt x="69" y="444" on="1"/>
        <pt x="98" y="470" on="0"/>
        <pt x="193" y="508" on="0"/>
        <pt x="244" y="508" on="1"/>
        <pt x="328" y="508" on="0"/>
        <pt x="403" y="423" on="0"/>
        <pt x="403" y="347" on="1"/>
        <pt x="403" y="144" on="1"/>
        <pt x="403" y="67" on="0"/>
        <pt x="442" y="25" on="1"/>
        <pt x="408" y="-8" on="1"/>
        <pt x="387" y="8" on="0"/>
        <pt x="363" y="49" on="0"/>
        <pt x="356" y="72" on="1"/>
        <pt x="337" y="34" on="0"/>
        <pt x="259" y="-10" on="0"/>
      </contour>
      <contour>
        <pt x="200" y="42" on="1"/>
        <pt x="230" y="42" on="0"/>
        <pt x="282" y="59" on="0"/>
        <pt x="323" y="91" on="0"/>
        <pt x="347" y="139" on="0"/>
        <pt x="348" y="170" on="1"/>
        <pt x="348" y="229" on="1"/>
        <pt x="251" y="229" on="1"/>
        <pt x="223" y="229" on="0"/>
        <pt x="168" y="222" on="0"/>
        <pt x="124" y="201" on="0"/>
        <pt x="97" y="163" on="0"/>
        <pt x="97" y="133" on="1"/>
        <pt x="97" y="83" on="0"/>
        <pt x="151" y="42" on="0"/>
      </contour>
    </TTGlyph>
    <TTGlyph name="aacute" xMin="50" yMin="-10" xMax="452" yMax="726">
      <contour>
        <pt x="210" y="-10" on="1"/>
        <pt x="176" y="-10" on="0"/>
        <pt x="117" y="8" on="0"/>
        <pt x="74" y="44" on="0"/>
        <pt x="50" y="98" on="0"/>
        <pt x="50" y="133" on="1"/>
        <pt x="50" y="175" on="0"/>
        <pt x="87" y="231" on="0"/>
        <pt x="147" y="266" on="0"/>
        <pt x="222" y="280" on="0"/>
        <pt x="261" y="280" on="1"/>
        <pt x="358" y="280" on="1"/>
        <pt x="358" y="336" on="1"/>
        <pt x="358" y="398" on="0"/>
        <pt x="308" y="456" on="0"/>
        <pt x="254" y="456" on="1"/>
        <pt x="214" y="456" on="0"/>
        <pt x="132" y="422" on="0"/>
        <pt x="106" y="402" on="1"/>
        <pt x="79" y="444" on="1"/>
        <pt x="108" y="470" on="0"/>
        <pt x="203" y="508" on="0"/>
        <pt x="254" y="508" on="1"/>
        <pt x="338" y="508" on="0"/>
        <pt x="413" y="423" on="0"/>
        <pt x="413" y="347" on="1"/>
        <pt x="413" y="144" on="1"/>
        <pt x="413" y="67" on="0"/>
        <pt x="452" y="25" on="1"/>
        <pt x="418" y="-8" on="1"/>
        <pt x="397" y="8" on="0"/>
        <pt x="373" y="49" on="0"/>
        <pt x="366" y="72" on="1"/>
        <pt x="347" y="34" on="0"/>
        <pt x="269" y="-10" on="0"/>
      </contour>
      <contour>
        <pt x="210" y="42" on="1"/>
        <pt x="240" y="42" on="0"/>
        <pt x="294" y="60" on="0"/>
        <pt x="335" y="94" on="0"/>
        <pt x="358" y="144" on="0"/>
        <pt x="358" y="177" on="1"/>
        <pt x="358" y="229" on="1"/>
        <pt x="261" y="229" on="1"/>
        <pt x="233" y="229" on="0"/>
        <pt x="178" y="222" on="0"/>
        <pt x="134" y="201" on="0"/>
        <pt x="107" y="163" on="0"/>
        <pt x="107" y="133" on="1"/>
        <pt x="107" y="83" on="0"/>
        <pt x="161" y="42" on="0"/>
      </contour>
      <contour>
        <pt x="226" y="601" on="1"/>
        <pt x="384" y="726" on="1"/>
        <pt x="420" y="677" on="1"/>
        <pt x="248" y="567" on="1"/>
      </contour>
    </TTGlyph>
    <TTGlyph name="acircumflex" xMin="50" yMin="-10" xMax="452" yMax="768">
      <contour>
        <pt x="210" y="-10" on="1"/>
        <pt x="176" y="-10" on="0"/>
        <pt x="117" y="8" on="0"/>
        <pt x="74" y="44" on="0"/>
        <pt x="50" y="98" on="0"/>
        <pt x="50" y="133" on="1"/>
        <pt x="50" y="175" on="0"/>
        <pt x="87" y="231" on="0"/>
        <pt x="147" y="266" on="0"/>
        <pt x="222" y="280" on="0"/>
        <pt x="261" y="280" on="1"/>
        <pt x="358" y="280" on="1"/>
        <pt x="358" y="336" on="1"/>
        <pt x="358" y="398" on="0"/>
        <pt x="308" y="456" on="0"/>
        <pt x="254" y="456" on="1"/>
        <pt x="214" y="456" on="0"/>
        <pt x="132" y="422" on="0"/>
        <pt x="106" y="402" on="1"/>
        <pt x="79" y="444" on="1"/>
        <pt x="108" y="470" on="0"/>
        <pt x="203" y="508" on="0"/>
        <pt x="254" y="508" on="1"/>
        <pt x="338" y="508" on="0"/>
        <pt x="413" y="423" on="0"/>
        <pt x="413" y="347" on="1"/>
        <pt x="413" y="144" on="1"/>
        <pt x="413" y="67" on="0"/>
        <pt x="452" y="25" on="1"/>
        <pt x="418" y="-8" on="1"/>
        <pt x="397" y="8" on="0"/>
        <pt x="373" y="49" on="0"/>
        <pt x="366" y="72" on="1"/>
        <pt x="347" y="34" on="0"/>
        <pt x="269" y="-10" on="0"/>
      </contour>
      <contour>
        <pt x="210" y="42" on="1"/>
        <pt x="240" y="42" on="0"/>
        <pt x="294" y="60" on="0"/>
        <pt x="335" y="94" on="0"/>
        <pt x="358" y="144" on="0"/>
        <pt x="358" y="177" on="1"/>
        <pt x="358" y="229" on="1"/>
        <pt x="261" y="229" on="1"/>
        <pt x="233" y="229" on="0"/>
        <pt x="178" y="222" on="0"/>
        <pt x="134" y="201" on="0"/>
        <pt x="107" y="163" on="0"/>
        <pt x="107" y="133" on="1"/>
        <pt x="107" y="83" on="0"/>
        <pt x="161" y="42" on="0"/>
      </contour>
      <contour>
        <pt x="374" y="581" on="1"/>
        <pt x="254" y="714" on="1"/>
        <pt x="134" y="580" on="1"/>
        <pt x="97" y="613" on="1"/>
        <pt x="206" y="736" on="1"/>
        <pt x="233" y="768" on="0"/>
        <pt x="254" y="768" on="1"/>
        <pt x="275" y="768" on="0"/>
        <pt x="302" y="736" on="1"/>
        <pt x="411" y="614" on="1"/>
      </contour>
    </TTGlyph>
    <TTGlyph name="acute" xMin="163" yMin="567" xMax="357" yMax="726">
      <contour>
        <pt x="163" y="601" on="1"/>
        <pt x="321" y="726" on="1"/>
        <pt x="357" y="677" on="1"/>
        <pt x="185" y="567" on="1"/>
      </contour>
    </TTGlyph>
    <TTGlyph name="adieresis" xMin="50" yMin="-10" xMax="452" yMax="707">
      <contour>
        <pt x="210" y="-10" on="1"/>
        <pt x="176" y="-10" on="0"/>
        <pt x="117" y="8" on="0"/>
        <pt x="74" y="44" on="0"/>
        <pt x="50" y="98" on="0"/>
        <pt x="50" y="133" on="1"/>
        <pt x="50" y="175" on="0"/>
        <pt x="87" y="231" on="0"/>
        <pt x="147" y="266" on="0"/>
        <pt x="222" y="280" on="0"/>
        <pt x="261" y="280" on="1"/>
        <pt x="358" y="280" on="1"/>
        <pt x="358" y="336" on="1"/>
        <pt x="358" y="398" on="0"/>
        <pt x="308" y="456" on="0"/>
        <pt x="254" y="456" on="1"/>
        <pt x="214" y="456" on="0"/>
        <pt x="132" y="422" on="0"/>
        <pt x="106" y="402" on="1"/>
        <pt x="79" y="444" on="1"/>
        <pt x="108" y="470" on="0"/>
        <pt x="203" y="508" on="0"/>
        <pt x="254" y="508" on="1"/>
        <pt x="338" y="508" on="0"/>
        <pt x="413" y="423" on="0"/>
        <pt x="413" y="347" on="1"/>
        <pt x="413" y="144" on="1"/>
        <pt x="413" y="67" on="0"/>
        <pt x="452" y="25" on="1"/>
        <pt x="418" y="-8" on="1"/>
        <pt x="397" y="8" on="0"/>
        <pt x="373" y="49" on="0"/>
        <pt x="366" y="72" on="1"/>
        <pt x="347" y="34" on="0"/>
        <pt x="269" y="-10" on="0"/>
      </contour>
      <contour>
        <pt x="210" y="42" on="1"/>
        <pt x="240" y="42" on="0"/>
        <pt x="294" y="60" on="0"/>
        <pt x="335" y="94" on="0"/>
        <pt x="358" y="144" on="0"/>
        <pt x="358" y="177" on="1"/>
        <pt x="358" y="229" on="1"/>
        <pt x="261" y="229" on="1"/>
        <pt x="233" y="229" on="0"/>
        <pt x="178" y="222" on="0"/>
        <pt x="134" y="201" on="0"/>
        <pt x="107" y="163" on="0"/>
        <pt x="107" y="133" on="1"/>
        <pt x="107" y="83" on="0"/>
        <pt x="161" y="42" on="0"/>
      </contour>
      <contour>
        <pt x="98" y="662" on="1"/>
        <pt x="98" y="681" on="0"/>
        <pt x="124" y="707" on="0"/>
        <pt x="142" y="707" on="1"/>
        <pt x="161" y="707" on="0"/>
        <pt x="187" y="681" on="0"/>
        <pt x="187" y="662" on="1"/>
        <pt x="187" y="644" on="0"/>
        <pt x="161" y="618" on="0"/>
        <pt x="142" y="618" on="1"/>
        <pt x="124" y="618" on="0"/>
        <pt x="98" y="644" on="0"/>
      </contour>
      <contour>
        <pt x="319" y="662" on="1"/>
        <pt x="319" y="681" on="0"/>
        <pt x="345" y="707" on="0"/>
        <pt x="363" y="707" on="1"/>
        <pt x="382" y="707" on="0"/>
        <pt x="408" y="681" on="0"/>
        <pt x="408" y="662" on="1"/>
        <pt x="408" y="644" on="0"/>
        <pt x="382" y="618" on="0"/>
        <pt x="363" y="618" on="1"/>
        <pt x="345" y="618" on="0"/>
        <pt x="319" y="644" on="0"/>
      </contour>
    </TTGlyph>
    <TTGlyph name="ae" xMin="50" yMin="-10" xMax="766" yMax="508">
      <contour>
        <pt x="210" y="-10" on="1"/>
        <pt x="176" y="-10" on="0"/>
        <pt x="117" y="8" on="0"/>
        <pt x="74" y="44" on="0"/>
        <pt x="50" y="98" on="0"/>
        <pt x="50" y="133" on="1"/>
        <pt x="50" y="175" on="0"/>
        <pt x="87" y="231" on="0"/>
        <pt x="147" y="266" on="0"/>
        <pt x="222" y="280" on="0"/>
        <pt x="261" y="280" on="1"/>
        <pt x="358" y="280" on="1"/>
        <pt x="358" y="336" on="1"/>
        <pt x="358" y="398" on="0"/>
        <pt x="308" y="456" on="0"/>
        <pt x="254" y="456" on="1"/>
        <pt x="214" y="456" on="0"/>
        <pt x="132" y="422" on="0"/>
        <pt x="106" y="402" on="1"/>
        <pt x="79" y="444" on="1"/>
        <pt x="108" y="470" on="0"/>
        <pt x="203" y="508" on="0"/>
        <pt x="254" y="508" on="1"/>
        <pt x="321" y="508" on="0"/>
        <pt x="390" y="448" on="0"/>
        <pt x="402" y="400" on="1"/>
        <pt x="428" y="448" on="0"/>
        <pt x="514" y="508" on="0"/>
        <pt x="573" y="508" on="1"/>
        <pt x="610" y="508" on="0"/>
        <pt x="676" y="487" on="0"/>
        <pt x="725" y="448" on="0"/>
        <pt x="754" y="391" on="0"/>
        <pt x="754" y="356" on="1"/>
        <pt x="754" y="312" on="0"/>
        <pt x="716" y="252" on="0"/>
        <pt x="655" y="216" on="0"/>
        <pt x="576" y="200" on="0"/>
        <pt x="534" y="200" on="1"/>
        <pt x="416" y="200" on="1"/>
        <pt x="425" y="122" on="0"/>
        <pt x="506" y="42" on="0"/>
        <pt x="584" y="42" on="1"/>
        <pt x="626" y="42" on="0"/>
        <pt x="702" y="70" on="0"/>
        <pt x="740" y="90" on="1"/>
        <pt x="766" y="48" on="1"/>
        <pt x="731" y="24" on="0"/>
        <pt x="638" y="-10" on="0"/>
        <pt x="584" y="-10" on="1"/>
        <pt x="506" y="-10" on="0"/>
        <pt x="409" y="53" on="0"/>
        <pt x="386" y="114" on="1"/>
        <pt x="376" y="60" on="0"/>
        <pt x="284" y="-10" on="0"/>
      </contour>
      <contour>
        <pt x="573" y="459" on="1"/>
        <pt x="537" y="459" on="0"/>
        <pt x="478" y="423" on="0"/>
        <pt x="436" y="365" on="0"/>
        <pt x="413" y="291" on="0"/>
        <pt x="413" y="252" on="1"/>
        <pt x="534" y="252" on="1"/>
        <pt x="585" y="252" on="0"/>
        <pt x="649" y="271" on="0"/>
        <pt x="685" y="301" on="0"/>
        <pt x="697" y="338" on="0"/>
        <pt x="697" y="356" on="1"/>
        <pt x="697" y="403" on="0"/>
        <pt x="628" y="459" on="0"/>
      </contour>
      <contour>
        <pt x="210" y="42" on="1"/>
        <pt x="240" y="42" on="0"/>
        <pt x="294" y="60" on="0"/>
        <pt x="335" y="94" on="0"/>
        <pt x="358" y="144" on="0"/>
        <pt x="358" y="177" on="1"/>
        <pt x="358" y="229" on="1"/>
        <pt x="261" y="229" on="1"/>
        <pt x="233" y="229" on="0"/>
        <pt x="178" y="222" on="0"/>
        <pt x="134" y="201" on="0"/>
        <pt x="107" y="163" on="0"/>
        <pt x="107" y="133" on="1"/>
        <pt x="107" y="83" on="0"/>
        <pt x="161" y="42" on="0"/>
      </contour>
    </TTGlyph>
    <TTGlyph name="agrave" xMin="50" yMin="-10" xMax="452" yMax="726">
      <contour>
        <pt x="210" y="-10" on="1"/>
        <pt x="176" y="-10" on="0"/>
        <pt x="117" y="8" on="0"/>
        <pt x="74" y="44" on="0"/>
        <pt x="50" y="98" on="0"/>
        <pt x="50" y="133" on="1"/>
        <pt x="50" y="175" on="0"/>
        <pt x="87" y="231" on="0"/>
        <pt x="147" y="266" on="0"/>
        <pt x="222" y="280" on="0"/>
        <pt x="261" y="280" on="1"/>
        <pt x="358" y="280" on="1"/>
        <pt x="358" y="336" on="1"/>
        <pt x="358" y="398" on="0"/>
        <pt x="308" y="456" on="0"/>
        <pt x="254" y="456" on="1"/>
        <pt x="214" y="456" on="0"/>
        <pt x="132" y="422" on="0"/>
        <pt x="106" y="402" on="1"/>
        <pt x="79" y="444" on="1"/>
        <pt x="108" y="470" on="0"/>
        <pt x="203" y="508" on="0"/>
        <pt x="254" y="508" on="1"/>
        <pt x="338" y="508" on="0"/>
        <pt x="413" y="423" on="0"/>
        <pt x="413" y="347" on="1"/>
        <pt x="413" y="144" on="1"/>
        <pt x="413" y="67" on="0"/>
        <pt x="452" y="25" on="1"/>
        <pt x="418" y="-8" on="1"/>
        <pt x="397" y="8" on="0"/>
        <pt x="373" y="49" on="0"/>
        <pt x="366" y="72" on="1"/>
        <pt x="347" y="34" on="0"/>
        <pt x="269" y="-10" on="0"/>
      </contour>
      <contour>
        <pt x="210" y="42" on="1"/>
        <pt x="240" y="42" on="0"/>
        <pt x="292" y="59" on="0"/>
        <pt x="333" y="91" on="0"/>
        <pt x="357" y="139" on="0"/>
        <pt x="358" y="170" on="1"/>
        <pt x="358" y="229" on="1"/>
        <pt x="261" y="229" on="1"/>
        <pt x="233" y="229" on="0"/>
        <pt x="178" y="222" on="0"/>
        <pt x="134" y="201" on="0"/>
        <pt x="107" y="163" on="0"/>
        <pt x="107" y="133" on="1"/>
        <pt x="107" y="83" on="0"/>
        <pt x="161" y="42" on="0"/>
      </contour>
      <contour>
        <pt x="261" y="567" on="1"/>
        <pt x="89" y="677" on="1"/>
        <pt x="125" y="726" on="1"/>
        <pt x="283" y="601" on="1"/>
      </contour>
    </TTGlyph>
    <TTGlyph name="ampersand" xMin="60" yMin="-10" xMax="596" yMax="634">
      <contour>
        <pt x="560" y="-3" on="1"/>
        <pt x="471" y="79" on="1"/>
        <pt x="433" y="38" on="0"/>
        <pt x="325" y="-10" on="0"/>
        <pt x="255" y="-10" on="1"/>
        <pt x="214" y="-10" on="0"/>
        <pt x="143" y="14" on="0"/>
        <pt x="90" y="60" on="0"/>
        <pt x="60" y="125" on="0"/>
        <pt x="60" y="166" on="1"/>
        <pt x="60" y="193" on="0"/>
        <pt x="74" y="247" on="0"/>
        <pt x="101" y="297" on="0"/>
        <pt x="143" y="338" on="0"/>
        <pt x="171" y="352" on="1"/>
        <pt x="148" y="378" on="0"/>
        <pt x="120" y="440" on="0"/>
        <pt x="120" y="480" on="1"/>
        <pt x="120" y="511" on="0"/>
        <pt x="142" y="567" on="0"/>
        <pt x="185" y="609" on="0"/>
        <pt x="252" y="634" on="0"/>
        <pt x="297" y="634" on="1"/>
        <pt x="327" y="634" on="0"/>
        <pt x="377" y="629" on="0"/>
        <pt x="411" y="626" on="1"/>
        <pt x="411" y="574" on="1"/>
        <pt x="372" y="577" on="0"/>
        <pt x="316" y="582" on="0"/>
        <pt x="290" y="582" on="1"/>
        <pt x="260" y="582" on="0"/>
        <pt x="220" y="566" on="0"/>
        <pt x="196" y="538" on="0"/>
        <pt x="185" y="501" on="0"/>
        <pt x="185" y="480" on="1"/>
        <pt x="185" y="453" on="0"/>
        <pt x="209" y="405" on="0"/>
        <pt x="246" y="361" on="0"/>
        <pt x="292" y="321" on="0"/>
        <pt x="314" y="301" on="1"/>
        <pt x="465" y="159" on="1"/>
        <pt x="485" y="194" on="0"/>
        <pt x="505" y="275" on="0"/>
        <pt x="505" y="317" on="1"/>
        <pt x="505" y="357" on="1"/>
        <pt x="558" y="357" on="1"/>
        <pt x="558" y="315" on="1"/>
        <pt x="558" y="263" on="0"/>
        <pt x="531" y="165" on="0"/>
        <pt x="505" y="123" on="1"/>
        <pt x="596" y="38" on="1"/>
      </contour>
      <contour>
        <pt x="210" y="314" on="1"/>
        <pt x="162" y="292" on="0"/>
        <pt x="117" y="212" on="0"/>
        <pt x="117" y="170" on="1"/>
        <pt x="117" y="140" on="0"/>
        <pt x="139" y="92" on="0"/>
        <pt x="177" y="59" on="0"/>
        <pt x="227" y="42" on="0"/>
        <pt x="255" y="42" on="1"/>
        <pt x="313" y="42" on="0"/>
        <pt x="401" y="81" on="0"/>
        <pt x="432" y="114" on="1"/>
        <pt x="283" y="252" on="1"/>
      </contour>
    </TTGlyph>
    <TTGlyph name="apostrophe" xMin="60" yMin="450" xMax="164" yMax="695">
      <contour>
        <pt x="100" y="662" on="1"/>
        <pt x="100" y="676" on="0"/>
        <pt x="118" y="695" on="0"/>
        <pt x="132" y="695" on="1"/>
        <pt x="146" y="695" on="0"/>
        <pt x="164" y="676" on="0"/>
        <pt x="164" y="662" on="1"/>
        <pt x="164" y="602" on="1"/>
        <pt x="164" y="560" on="0"/>
        <pt x="132" y="477" on="0"/>
        <pt x="94" y="450" on="1"/>
        <pt x="60" y="483" on="1"/>
        <pt x="80" y="504" on="0"/>
        <pt x="100" y="562" on="0"/>
        <pt x="100" y="602" on="1"/>
        <pt x="100" y="662" on="1"/>
      </contour>
    </TTGlyph>
    <TTGlyph name="aring" xMin="50" yMin="-10" xMax="452" yMax="753">
      <contour>
        <pt x="210" y="-10" on="1"/>
        <pt x="176" y="-10" on="0"/>
        <pt x="117" y="8" on="0"/>
        <pt x="74" y="44" on="0"/>
        <pt x="50" y="98" on="0"/>
        <pt x="50" y="133" on="1"/>
        <pt x="50" y="175" on="0"/>
        <pt x="87" y="231" on="0"/>
        <pt x="147" y="266" on="0"/>
        <pt x="222" y="280" on="0"/>
        <pt x="261" y="280" on="1"/>
        <pt x="358" y="280" on="1"/>
        <pt x="358" y="336" on="1"/>
        <pt x="358" y="398" on="0"/>
        <pt x="308" y="456" on="0"/>
        <pt x="254" y="456" on="1"/>
        <pt x="214" y="456" on="0"/>
        <pt x="132" y="422" on="0"/>
        <pt x="106" y="402" on="1"/>
        <pt x="79" y="444" on="1"/>
        <pt x="108" y="470" on="0"/>
        <pt x="203" y="508" on="0"/>
        <pt x="254" y="508" on="1"/>
        <pt x="338" y="508" on="0"/>
        <pt x="413" y="423" on="0"/>
        <pt x="413" y="347" on="1"/>
        <pt x="413" y="144" on="1"/>
        <pt x="413" y="67" on="0"/>
        <pt x="452" y="25" on="1"/>
        <pt x="418" y="-8" on="1"/>
        <pt x="397" y="8" on="0"/>
        <pt x="373" y="49" on="0"/>
        <pt x="366" y="72" on="1"/>
        <pt x="347" y="34" on="0"/>
        <pt x="269" y="-10" on="0"/>
      </contour>
      <contour>
        <pt x="210" y="42" on="1"/>
        <pt x="240" y="42" on="0"/>
        <pt x="294" y="60" on="0"/>
        <pt x="335" y="94" on="0"/>
        <pt x="358" y="144" on="0"/>
        <pt x="358" y="177" on="1"/>
        <pt x="358" y="229" on="1"/>
        <pt x="261" y="229" on="1"/>
        <pt x="233" y="229" on="0"/>
        <pt x="178" y="222" on="0"/>
        <pt x="134" y="201" on="0"/>
        <pt x="107" y="163" on="0"/>
        <pt x="107" y="133" on="1"/>
        <pt x="107" y="83" on="0"/>
        <pt x="161" y="42" on="0"/>
      </contour>
      <contour>
        <pt x="253" y="547" on="1"/>
        <pt x="206" y="547" on="0"/>
        <pt x="152" y="604" on="0"/>
        <pt x="152" y="649" on="1"/>
        <pt x="152" y="694" on="0"/>
        <pt x="206" y="753" on="0"/>
        <pt x="253" y="753" on="1"/>
        <pt x="298" y="753" on="0"/>
        <pt x="354" y="696" on="0"/>
        <pt x="354" y="651" on="1"/>
        <pt x="354" y="606" on="0"/>
        <pt x="299" y="547" on="0"/>
      </contour>
      <contour>
        <pt x="254" y="709" on="1"/>
        <pt x="229" y="709" on="0"/>
        <pt x="201" y="676" on="0"/>
        <pt x="201" y="650" on="1"/>
        <pt x="201" y="623" on="0"/>
        <pt x="227" y="590" on="0"/>
        <pt x="252" y="590" on="1"/>
        <pt x="277" y="590" on="0"/>
        <pt x="305" y="623" on="0"/>
        <pt x="305" y="650" on="1"/>
        <pt x="305" y="676" on="0"/>
        <pt x="279" y="709" on="0"/>
      </contour>
    </TTGlyph>
    <TTGlyph name="asciicircum" xMin="75" yMin="328" xMax="445" yMax="615">
      <contour>
        <pt x="270" y="615" on="1"/>
        <pt x="445" y="363" on="1"/>
        <pt x="395" y="328" on="1"/>
        <pt x="258" y="524" on="1"/>
        <pt x="123" y="330" on="1"/>
        <pt x="75" y="363" on="1"/>
        <pt x="250" y="615" on="1"/>
      </contour>
    </TTGlyph>
    <TTGlyph name="asciitilde" xMin="55" yMin="249" xMax="465" yMax="344">
      <contour>
        <pt x="55" y="270" on="1"/>
        <pt x="69" y="311" on="0"/>
        <pt x="130" y="343" on="0"/>
        <pt x="175" y="343" on="1"/>
        <pt x="197" y="343" on="0"/>
        <pt x="241" y="332" on="0"/>
        <pt x="283" y="319" on="0"/>
        <pt x="324" y="308" on="0"/>
        <pt x="344" y="308" on="1"/>
        <pt x="369" y="308" on="0"/>
        <pt x="405" y="322" on="0"/>
        <pt x="416" y="344" on="1"/>
        <pt x="465" y="323" on="1"/>
        <pt x="451" y="282" on="0"/>
        <pt x="390" y="250" on="0"/>
        <pt x="345" y="250" on="1"/>
        <pt x="324" y="250" on="0"/>
        <pt x="280" y="261" on="0"/>
        <pt x="236" y="274" on="0"/>
        <pt x="195" y="285" on="0"/>
        <pt x="176" y="285" on="1"/>
        <pt x="151" y="285" on="0"/>
        <pt x="115" y="271" on="0"/>
        <pt x="104" y="249" on="1"/>
      </contour>
    </TTGlyph>
    <TTGlyph name="asterisk" xMin="60" yMin="416" xMax="355" yMax="694">
      <contour>
        <pt x="231" y="577" on="1"/>
        <pt x="338" y="619" on="1"/>
        <pt x="355" y="562" on="1"/>
        <pt x="251" y="533" on="1"/>
        <pt x="318" y="452" on="1"/>
        <pt x="269" y="418" on="1"/>
        <pt x="208" y="512" on="1"/>
        <pt x="146" y="416" on="1"/>
        <pt x="98" y="452" on="1"/>
        <pt x="166" y="534" on="1"/>
        <pt x="60" y="562" on="1"/>
        <pt x="79" y="619" on="1"/>
        <pt x="184" y="578" on="1"/>
        <pt x="178" y="694" on="1"/>
        <pt x="238" y="694" on="1"/>
      </contour>
    </TTGlyph>
    <TTGlyph name="at" xMin="90" yMin="-59" xMax="684" yMax="549">
      <contour>
        <pt x="547" y="133" on="1"/>
        <pt x="560" y="133" on="0"/>
        <pt x="590" y="147" on="0"/>
        <pt x="615" y="177" on="0"/>
        <pt x="631" y="225" on="0"/>
        <pt x="631" y="258" on="1"/>
        <pt x="631" y="314" on="0"/>
        <pt x="595" y="405" on="0"/>
        <pt x="530" y="468" on="0"/>
        <pt x="441" y="502" on="0"/>
        <pt x="388" y="502" on="1"/>
        <pt x="332" y="502" on="0"/>
        <pt x="242" y="462" on="0"/>
        <pt x="178" y="392" on="0"/>
        <pt x="144" y="294" on="0"/>
        <pt x="144" y="236" on="1"/>
        <pt x="144" y="180" on="0"/>
        <pt x="180" y="88" on="0"/>
        <pt x="244" y="24" on="0"/>
        <pt x="334" y="-11" on="0"/>
        <pt x="388" y="-11" on="1"/>
        <pt x="454" y="-11" on="0"/>
        <pt x="555" y="17" on="0"/>
        <pt x="583" y="26" on="1"/>
        <pt x="597" y="-19" on="1"/>
        <pt x="582" y="-24" on="0"/>
        <pt x="536" y="-38" on="0"/>
        <pt x="480" y="-50" on="0"/>
        <pt x="419" y="-59" on="0"/>
        <pt x="388" y="-59" on="1"/>
        <pt x="321" y="-59" on="0"/>
        <pt x="211" y="-17" on="0"/>
        <pt x="133" y="60" on="0"/>
        <pt x="90" y="167" on="0"/>
        <pt x="90" y="233" on="1"/>
        <pt x="90" y="302" on="0"/>
        <pt x="131" y="418" on="0"/>
        <pt x="208" y="502" on="0"/>
        <pt x="319" y="549" on="0"/>
        <pt x="388" y="549" on="1"/>
        <pt x="455" y="549" on="0"/>
        <pt x="564" y="506" on="0"/>
        <pt x="642" y="429" on="0"/>
        <pt x="684" y="321" on="0"/>
        <pt x="684" y="256" on="1"/>
        <pt x="684" y="214" on="0"/>
        <pt x="660" y="151" on="0"/>
        <pt x="622" y="109" on="0"/>
        <pt x="572" y="88" on="0"/>
        <pt x="547" y="88" on="1"/>
        <pt x="459" y="88" on="0"/>
        <pt x="445" y="170" on="1"/>
        <pt x="437" y="144" on="0"/>
        <pt x="394" y="108" on="0"/>
        <pt x="358" y="108" on="1"/>
        <pt x="322" y="108" on="0"/>
        <pt x="274" y="152" on="0"/>
        <pt x="274" y="194" on="1"/>
        <pt x="274" y="217" on="0"/>
        <pt x="295" y="249" on="0"/>
        <pt x="330" y="268" on="0"/>
        <pt x="373" y="277" on="0"/>
        <pt x="395" y="277" on="1"/>
        <pt x="435" y="277" on="1"/>
        <pt x="435" y="301" on="1"/>
        <pt x="435" y="327" on="0"/>
        <pt x="407" y="357" on="0"/>
        <pt x="381" y="357" on="1"/>
        <pt x="361" y="357" on="0"/>
        <pt x="326" y="343" on="0"/>
        <pt x="308" y="333" on="1"/>
        <pt x="286" y="369" on="1"/>
        <pt x="305" y="380" on="0"/>
        <pt x="357" y="400" on="0"/>
        <pt x="381" y="400" on="1"/>
        <pt x="432" y="400" on="0"/>
        <pt x="481" y="351" on="0"/>
        <pt x="481" y="306" on="1"/>
        <pt x="481" y="214" on="1"/>
        <pt x="481" y="190" on="0"/>
        <pt x="493" y="159" on="0"/>
        <pt x="513" y="141" on="0"/>
        <pt x="536" y="133" on="0"/>
      </contour>
      <contour>
        <pt x="369" y="149" on="1"/>
        <pt x="381" y="149" on="0"/>
        <pt x="402" y="164" on="0"/>
        <pt x="420" y="188" on="0"/>
        <pt x="432" y="221" on="0"/>
        <pt x="434" y="239" on="1"/>
        <pt x="395" y="239" on="1"/>
        <pt x="382" y="239" on="0"/>
        <pt x="355" y="235" on="0"/>
        <pt x="334" y="224" on="0"/>
        <pt x="321" y="207" on="0"/>
        <pt x="321" y="194" on="1"/>
        <pt x="321" y="174" on="0"/>
        <pt x="348" y="149" on="0"/>
      </contour>
    </TTGlyph>
    <TTGlyph name="atilde" xMin="50" yMin="-10" xMax="452" yMax="701">
      <contour>
        <pt x="210" y="-10" on="1"/>
        <pt x="176" y="-10" on="0"/>
        <pt x="117" y="8" on="0"/>
        <pt x="74" y="44" on="0"/>
        <pt x="50" y="98" on="0"/>
        <pt x="50" y="133" on="1"/>
        <pt x="50" y="175" on="0"/>
        <pt x="87" y="231" on="0"/>
        <pt x="147" y="266" on="0"/>
        <pt x="222" y="280" on="0"/>
        <pt x="261" y="280" on="1"/>
        <pt x="358" y="280" on="1"/>
        <pt x="358" y="336" on="1"/>
        <pt x="358" y="398" on="0"/>
        <pt x="308" y="456" on="0"/>
        <pt x="254" y="456" on="1"/>
        <pt x="214" y="456" on="0"/>
        <pt x="132" y="422" on="0"/>
        <pt x="106" y="402" on="1"/>
        <pt x="79" y="444" on="1"/>
        <pt x="108" y="470" on="0"/>
        <pt x="203" y="508" on="0"/>
        <pt x="254" y="508" on="1"/>
        <pt x="338" y="508" on="0"/>
        <pt x="413" y="423" on="0"/>
        <pt x="413" y="347" on="1"/>
        <pt x="413" y="144" on="1"/>
        <pt x="413" y="67" on="0"/>
        <pt x="452" y="25" on="1"/>
        <pt x="418" y="-8" on="1"/>
        <pt x="397" y="8" on="0"/>
        <pt x="373" y="49" on="0"/>
        <pt x="366" y="72" on="1"/>
        <pt x="347" y="34" on="0"/>
        <pt x="269" y="-10" on="0"/>
      </contour>
      <contour>
        <pt x="210" y="42" on="1"/>
        <pt x="240" y="42" on="0"/>
        <pt x="292" y="59" on="0"/>
        <pt x="333" y="91" on="0"/>
        <pt x="357" y="139" on="0"/>
        <pt x="358" y="170" on="1"/>
        <pt x="358" y="229" on="1"/>
        <pt x="261" y="229" on="1"/>
        <pt x="233" y="229" on="0"/>
        <pt x="178" y="222" on="0"/>
        <pt x="134" y="201" on="0"/>
        <pt x="107" y="163" on="0"/>
        <pt x="107" y="133" on="1"/>
        <pt x="107" y="83" on="0"/>
        <pt x="161" y="42" on="0"/>
      </contour>
      <contour>
        <pt x="56" y="627" on="1"/>
        <pt x="70" y="668" on="0"/>
        <pt x="131" y="700" on="0"/>
        <pt x="176" y="700" on="1"/>
        <pt x="198" y="700" on="0"/>
        <pt x="236" y="689" on="0"/>
        <pt x="271" y="676" on="0"/>
        <pt x="305" y="665" on="0"/>
        <pt x="325" y="665" on="1"/>
        <pt x="350" y="665" on="0"/>
        <pt x="386" y="679" on="0"/>
        <pt x="397" y="701" on="1"/>
        <pt x="446" y="683" on="1"/>
        <pt x="432" y="642" on="0"/>
        <pt x="371" y="610" on="0"/>
        <pt x="326" y="610" on="1"/>
        <pt x="305" y="610" on="0"/>
        <pt x="267" y="621" on="0"/>
        <pt x="231" y="634" on="0"/>
        <pt x="196" y="645" on="0"/>
        <pt x="177" y="645" on="1"/>
        <pt x="152" y="645" on="0"/>
        <pt x="116" y="631" on="0"/>
        <pt x="105" y="609" on="1"/>
      </contour>
    </TTGlyph>
    <TTGlyph name="b" xMin="85" yMin="-10" xMax="503" yMax="726">
      <contour>
        <pt x="290" y="508" on="1"/>
        <pt x="341" y="508" on="0"/>
        <pt x="420" y="468" on="0"/>
        <pt x="475" y="398" on="0"/>
        <pt x="503" y="305" on="0"/>
        <pt x="503" y="251" on="1"/>
        <pt x="503" y="195" on="0"/>
        <pt x="470" y="100" on="0"/>
        <pt x="409" y="30" on="0"/>
        <pt x="323" y="-10" on="0"/>
        <pt x="270" y="-10" on="1"/>
        <pt x="225" y="-10" on="0"/>
        <pt x="156" y="-4" on="0"/>
        <pt x="133" y="0" on="1"/>
        <pt x="106" y="4" on="0"/>
        <pt x="85" y="10" on="1"/>
        <pt x="85" y="726" on="1"/>
        <pt x="140" y="726" on="1"/>
        <pt x="140" y="433" on="1"/>
        <pt x="163" y="468" on="0"/>
        <pt x="241" y="508" on="0"/>
      </contour>
      <contour>
        <pt x="290" y="456" on="1"/>
        <pt x="265" y="456" on="0"/>
        <pt x="215" y="440" on="0"/>
        <pt x="173" y="408" on="0"/>
        <pt x="143" y="360" on="0"/>
        <pt x="140" y="328" on="1"/>
        <pt x="140" y="51" on="1"/>
        <pt x="158" y="49" on="0"/>
        <pt x="228" y="42" on="0"/>
        <pt x="269" y="42" on="1"/>
        <pt x="309" y="42" on="0"/>
        <pt x="374" y="72" on="0"/>
        <pt x="421" y="126" on="0"/>
        <pt x="446" y="202" on="0"/>
        <pt x="446" y="248" on="1"/>
        <pt x="446" y="288" on="0"/>
        <pt x="426" y="364" on="0"/>
        <pt x="387" y="421" on="0"/>
        <pt x="329" y="456" on="0"/>
      </contour>
    </TTGlyph>
    <TTGlyph name="backslash" xMin="50" yMin="-70" xMax="332" yMax="750">
      <contour>
        <pt x="113" y="750" on="1"/>
        <pt x="332" y="-70" on="1"/>
        <pt x="268" y="-70" on="1"/>
        <pt x="50" y="750" on="1"/>
      </contour>
    </TTGlyph>
    <TTGlyph name="bar" xMin="165" yMin="-70" xMax="226" yMax="750">
      <contour>
        <pt x="226" y="750" on="1"/>
        <pt x="226" y="-70" on="1"/>
        <pt x="165" y="-70" on="1"/>
        <pt x="165" y="750" on="1"/>
      </contour>
    </TTGlyph>
    <TTGlyph name="braceleft" xMin="30" yMin="-173" xMax="279" yMax="750">
      <contour>
        <pt x="265" y="-173" on="1"/>
        <pt x="235" y="-164" on="0"/>
        <pt x="174" y="-148" on="0"/>
        <pt x="125" y="-120" on="0"/>
        <pt x="93" y="-70" on="0"/>
        <pt x="93" y="-28" on="1"/>
        <pt x="93" y="1" on="0"/>
        <pt x="99" y="67" on="0"/>
        <pt x="107" y="130" on="0"/>
        <pt x="113" y="184" on="0"/>
        <pt x="113" y="200" on="1"/>
        <pt x="113" y="220" on="0"/>
        <pt x="87" y="244" on="0"/>
        <pt x="71" y="251" on="1"/>
        <pt x="53" y="258" on="0"/>
        <pt x="30" y="261" on="1"/>
        <pt x="30" y="316" on="1"/>
        <pt x="53" y="318" on="0"/>
        <pt x="71" y="326" on="1"/>
        <pt x="87" y="332" on="0"/>
        <pt x="113" y="357" on="0"/>
        <pt x="113" y="377" on="1"/>
        <pt x="113" y="393" on="0"/>
        <pt x="107" y="447" on="0"/>
        <pt x="99" y="510" on="0"/>
        <pt x="93" y="576" on="0"/>
        <pt x="93" y="605" on="1"/>
        <pt x="93" y="647" on="0"/>
        <pt x="125" y="697" on="0"/>
        <pt x="174" y="725" on="0"/>
        <pt x="235" y="741" on="0"/>
        <pt x="265" y="750" on="1"/>
        <pt x="279" y="704" on="1"/>
        <pt x="249" y="696" on="0"/>
        <pt x="202" y="681" on="0"/>
        <pt x="170" y="660" on="0"/>
        <pt x="154" y="630" on="0"/>
        <pt x="154" y="607" on="1"/>
        <pt x="154" y="589" on="0"/>
        <pt x="160" y="531" on="0"/>
        <pt x="168" y="466" on="0"/>
        <pt x="174" y="402" on="0"/>
        <pt x="174" y="377" on="1"/>
        <pt x="174" y="355" on="0"/>
        <pt x="159" y="323" on="0"/>
        <pt x="138" y="302" on="0"/>
        <pt x="115" y="291" on="0"/>
        <pt x="108" y="288" on="1"/>
        <pt x="115" y="286" on="0"/>
        <pt x="137" y="275" on="0"/>
        <pt x="158" y="254" on="0"/>
        <pt x="174" y="222" on="0"/>
        <pt x="174" y="200" on="1"/>
        <pt x="174" y="175" on="0"/>
        <pt x="168" y="110" on="0"/>
        <pt x="160" y="46" on="0"/>
        <pt x="154" y="-12" on="0"/>
        <pt x="154" y="-30" on="1"/>
        <pt x="154" y="-53" on="0"/>
        <pt x="170" y="-83" on="0"/>
        <pt x="202" y="-104" on="0"/>
        <pt x="249" y="-119" on="0"/>
        <pt x="279" y="-127" on="1"/>
      </contour>
    </TTGlyph>
    <TTGlyph name="braceright" xMin="70" yMin="-173" xMax="319" yMax="750">
      <contour>
        <pt x="70" y="-127" on="1"/>
        <pt x="100" y="-119" on="0"/>
        <pt x="147" y="-104" on="0"/>
        <pt x="179" y="-83" on="0"/>
        <pt x="195" y="-53" on="0"/>
        <pt x="195" y="-30" on="1"/>
        <pt x="195" y="-12" on="0"/>
        <pt x="189" y="46" on="0"/>
        <pt x="181" y="110" on="0"/>
        <pt x="175" y="175" on="0"/>
        <pt x="175" y="200" on="1"/>
        <pt x="175" y="222" on="0"/>
        <pt x="190" y="253" on="0"/>
        <pt x="211" y="274" on="0"/>
        <pt x="234" y="286" on="0"/>
        <pt x="241" y="288" on="1"/>
        <pt x="234" y="290" on="0"/>
        <pt x="212" y="301" on="0"/>
        <pt x="191" y="322" on="0"/>
        <pt x="175" y="354" on="0"/>
        <pt x="175" y="377" on="1"/>
        <pt x="175" y="402" on="0"/>
        <pt x="181" y="466" on="0"/>
        <pt x="189" y="531" on="0"/>
        <pt x="195" y="589" on="0"/>
        <pt x="195" y="607" on="1"/>
        <pt x="195" y="630" on="0"/>
        <pt x="179" y="660" on="0"/>
        <pt x="147" y="681" on="0"/>
        <pt x="100" y="696" on="0"/>
        <pt x="70" y="704" on="1"/>
        <pt x="84" y="750" on="1"/>
        <pt x="114" y="741" on="0"/>
        <pt x="175" y="725" on="0"/>
        <pt x="224" y="697" on="0"/>
        <pt x="256" y="647" on="0"/>
        <pt x="256" y="605" on="1"/>
        <pt x="256" y="576" on="0"/>
        <pt x="250" y="510" on="0"/>
        <pt x="242" y="447" on="0"/>
        <pt x="236" y="393" on="0"/>
        <pt x="236" y="377" on="1"/>
        <pt x="236" y="357" on="0"/>
        <pt x="261" y="332" on="0"/>
        <pt x="277" y="326" on="1"/>
        <pt x="295" y="318" on="0"/>
        <pt x="319" y="316" on="1"/>
        <pt x="319" y="261" on="1"/>
        <pt x="295" y="258" on="0"/>
        <pt x="277" y="251" on="1"/>
        <pt x="261" y="244" on="0"/>
        <pt x="236" y="220" on="0"/>
        <pt x="236" y="200" on="1"/>
        <pt x="236" y="184" on="0"/>
        <pt x="242" y="130" on="0"/>
        <pt x="250" y="67" on="0"/>
        <pt x="256" y="1" on="0"/>
        <pt x="256" y="-28" on="1"/>
        <pt x="256" y="-70" on="0"/>
        <pt x="224" y="-120" on="0"/>
        <pt x="175" y="-148" on="0"/>
        <pt x="114" y="-164" on="0"/>
        <pt x="84" y="-173" on="1"/>
      </contour>
    </TTGlyph>
    <TTGlyph name="bracketleft" xMin="50" yMin="-174" xMax="288" yMax="750">
      <contour>
        <pt x="288" y="750" on="1"/>
        <pt x="288" y="693" on="1"/>
        <pt x="111" y="693" on="1"/>
        <pt x="111" y="-117" on="1"/>
        <pt x="288" y="-117" on="1"/>
        <pt x="288" y="-174" on="1"/>
        <pt x="50" y="-174" on="1"/>
        <pt x="50" y="750" on="1"/>
      </contour>
    </TTGlyph>
    <TTGlyph name="bracketright" xMin="40" yMin="-174" xMax="278" yMax="750">
      <contour>
        <pt x="278" y="750" on="1"/>
        <pt x="278" y="-174" on="1"/>
        <pt x="40" y="-174" on="1"/>
        <pt x="40" y="-117" on="1"/>
        <pt x="217" y="-117" on="1"/>
        <pt x="217" y="693" on="1"/>
        <pt x="40" y="693" on="1"/>
        <pt x="40" y="750" on="1"/>
      </contour>
    </TTGlyph>
    <TTGlyph name="brokenbar" xMin="165" yMin="-70" xMax="226" yMax="750">
      <contour>
        <pt x="226" y="300" on="1"/>
        <pt x="226" y="-70" on="1"/>
        <pt x="165" y="-70" on="1"/>
        <pt x="165" y="300" on="1"/>
      </contour>
      <contour>
        <pt x="165" y="380" on="1"/>
        <pt x="165" y="750" on="1"/>
        <pt x="226" y="750" on="1"/>
        <pt x="226" y="380" on="1"/>
      </contour>
    </TTGlyph>
    <TTGlyph name="bullet" xMin="100" yMin="230" xMax="269" yMax="399">
      <contour>
        <pt x="100" y="314" on="1"/>
        <pt x="100" y="349" on="0"/>
        <pt x="150" y="399" on="0"/>
        <pt x="184" y="399" on="1"/>
        <pt x="220" y="399" on="0"/>
        <pt x="269" y="349" on="0"/>
        <pt x="269" y="314" on="1"/>
        <pt x="269" y="279" on="0"/>
        <pt x="220" y="230" on="0"/>
        <pt x="184" y="230" on="1"/>
        <pt x="167" y="230" on="0"/>
        <pt x="137" y="243" on="0"/>
        <pt x="114" y="266" on="0"/>
        <pt x="100" y="296" on="0"/>
      </contour>
    </TTGlyph>
    <TTGlyph name="c" xMin="60" yMin="-10" xMax="435" yMax="508">
      <contour>
        <pt x="117" y="250" on="1"/>
        <pt x="117" y="148" on="0"/>
        <pt x="201" y="42" on="0"/>
        <pt x="276" y="42" on="1"/>
        <pt x="311" y="42" on="0"/>
        <pt x="377" y="70" on="0"/>
        <pt x="409" y="90" on="1"/>
        <pt x="435" y="48" on="1"/>
        <pt x="404" y="24" on="0"/>
        <pt x="322" y="-10" on="0"/>
        <pt x="274" y="-10" on="1"/>
        <pt x="176" y="-10" on="0"/>
        <pt x="60" y="123" on="0"/>
        <pt x="60" y="247" on="1"/>
        <pt x="60" y="289" on="0"/>
        <pt x="76" y="381" on="0"/>
        <pt x="119" y="458" on="0"/>
        <pt x="195" y="508" on="0"/>
        <pt x="256" y="508" on="1"/>
        <pt x="286" y="508" on="0"/>
        <pt x="356" y="503" on="0"/>
        <pt x="390" y="500" on="1"/>
        <pt x="390" y="448" on="1"/>
        <pt x="351" y="451" on="0"/>
        <pt x="275" y="456" on="0"/>
        <pt x="249" y="456" on="1"/>
        <pt x="211" y="456" on="0"/>
        <pt x="160" y="422" on="0"/>
        <pt x="130" y="365" on="0"/>
        <pt x="117" y="290" on="0"/>
      </contour>
    </TTGlyph>
    <TTGlyph name="ccedilla" xMin="60" yMin="-257" xMax="435" yMax="508">
      <contour>
        <pt x="117" y="250" on="1"/>
        <pt x="117" y="148" on="0"/>
        <pt x="201" y="42" on="0"/>
        <pt x="276" y="42" on="1"/>
        <pt x="311" y="42" on="0"/>
        <pt x="377" y="70" on="0"/>
        <pt x="409" y="90" on="1"/>
        <pt x="435" y="48" on="1"/>
        <pt x="406" y="26" on="0"/>
        <pt x="333" y="-6" on="0"/>
        <pt x="291" y="-9" on="1"/>
        <pt x="291" y="-66" on="1"/>
        <pt x="316" y="-69" on="0"/>
        <pt x="351" y="-100" on="0"/>
        <pt x="351" y="-126" on="1"/>
        <pt x="351" y="-158" on="0"/>
        <pt x="318" y="-230" on="0"/>
        <pt x="280" y="-257" on="1"/>
        <pt x="246" y="-224" on="1"/>
        <pt x="255" y="-214" on="0"/>
        <pt x="273" y="-195" on="0"/>
        <pt x="287" y="-176" on="0"/>
        <pt x="296" y="-153" on="0"/>
        <pt x="296" y="-139" on="1"/>
        <pt x="296" y="-126" on="0"/>
        <pt x="283" y="-113" on="0"/>
        <pt x="265" y="-107" on="0"/>
        <pt x="245" y="-105" on="0"/>
        <pt x="238" y="-103" on="1"/>
        <pt x="238" y="-7" on="1"/>
        <pt x="155" y="4" on="0"/>
        <pt x="60" y="135" on="0"/>
        <pt x="60" y="247" on="1"/>
        <pt x="60" y="289" on="0"/>
        <pt x="76" y="381" on="0"/>
        <pt x="119" y="458" on="0"/>
        <pt x="195" y="508" on="0"/>
        <pt x="256" y="508" on="1"/>
        <pt x="286" y="508" on="0"/>
        <pt x="356" y="503" on="0"/>
        <pt x="390" y="500" on="1"/>
        <pt x="390" y="448" on="1"/>
        <pt x="351" y="451" on="0"/>
        <pt x="275" y="456" on="0"/>
        <pt x="249" y="456" on="1"/>
        <pt x="211" y="456" on="0"/>
        <pt x="160" y="422" on="0"/>
        <pt x="130" y="365" on="0"/>
        <pt x="117" y="290" on="0"/>
      </contour>
    </TTGlyph>
    <TTGlyph name="cedilla" xMin="247" yMin="-257" xMax="360" yMax="0">
      <contour>
        <pt x="300" y="0" on="1"/>
        <pt x="300" y="-66" on="1"/>
        <pt x="325" y="-69" on="0"/>
        <pt x="360" y="-100" on="0"/>
        <pt x="360" y="-126" on="1"/>
        <pt x="360" y="-158" on="0"/>
        <pt x="327" y="-230" on="0"/>
        <pt x="289" y="-257" on="1"/>
        <pt x="255" y="-224" on="1"/>
        <pt x="264" y="-214" on="0"/>
        <pt x="282" y="-195" on="0"/>
        <pt x="296" y="-176" on="0"/>
        <pt x="305" y="-153" on="0"/>
        <pt x="305" y="-139" on="1"/>
        <pt x="305" y="-126" on="0"/>
        <pt x="292" y="-113" on="0"/>
        <pt x="274" y="-107" on="0"/>
        <pt x="254" y="-105" on="0"/>
        <pt x="247" y="-103" on="1"/>
        <pt x="247" y="0" on="1"/>
      </contour>
    </TTGlyph>
    <TTGlyph name="cent" xMin="75" yMin="-70" xMax="460" yMax="750">
      <contour>
        <pt x="311" y="750" on="1"/>
        <pt x="311" y="595" on="1"/>
        <pt x="337" y="593" on="0"/>
        <pt x="391" y="590" on="0"/>
        <pt x="415" y="588" on="1"/>
        <pt x="415" y="536" on="1"/>
        <pt x="311" y="543" on="1"/>
        <pt x="311" y="131" on="1"/>
        <pt x="343" y="135" on="0"/>
        <pt x="407" y="160" on="0"/>
        <pt x="434" y="178" on="1"/>
        <pt x="460" y="136" on="1"/>
        <pt x="432" y="114" on="0"/>
        <pt x="353" y="83" on="0"/>
        <pt x="311" y="79" on="1"/>
        <pt x="311" y="-70" on="1"/>
        <pt x="250" y="-70" on="1"/>
        <pt x="250" y="81" on="1"/>
        <pt x="169" y="94" on="0"/>
        <pt x="75" y="224" on="0"/>
        <pt x="75" y="335" on="1"/>
        <pt x="75" y="375" on="0"/>
        <pt x="89" y="462" on="0"/>
        <pt x="128" y="537" on="0"/>
        <pt x="196" y="590" on="0"/>
        <pt x="250" y="595" on="1"/>
        <pt x="250" y="750" on="1"/>
      </contour>
      <contour>
        <pt x="132" y="338" on="1"/>
        <pt x="132" y="251" on="0"/>
        <pt x="193" y="149" on="0"/>
        <pt x="250" y="135" on="1"/>
        <pt x="250" y="543" on="1"/>
        <pt x="216" y="540" on="0"/>
        <pt x="170" y="504" on="0"/>
        <pt x="143" y="448" on="0"/>
        <pt x="132" y="377" on="0"/>
      </contour>
    </TTGlyph>
    <TTGlyph name="circumflex" xMin="103" yMin="580" xMax="417" yMax="768">
      <contour>
        <pt x="380" y="581" on="1"/>
        <pt x="260" y="714" on="1"/>
        <pt x="140" y="580" on="1"/>
        <pt x="103" y="613" on="1"/>
        <pt x="212" y="736" on="1"/>
        <pt x="239" y="768" on="0"/>
        <pt x="260" y="768" on="1"/>
        <pt x="281" y="768" on="0"/>
        <pt x="308" y="736" on="1"/>
        <pt x="417" y="614" on="1"/>
      </contour>
    </TTGlyph>
    <TTGlyph name="colon" xMin="120" yMin="-11" xMax="233" yMax="499">
      <contour>
        <pt x="120" y="442" on="1"/>
        <pt x="120" y="465" on="0"/>
        <pt x="153" y="499" on="0"/>
        <pt x="176" y="499" on="1"/>
        <pt x="200" y="499" on="0"/>
        <pt x="233" y="465" on="0"/>
        <pt x="233" y="442" on="1"/>
        <pt x="233" y="419" on="0"/>
        <pt x="200" y="386" on="0"/>
        <pt x="176" y="386" on="1"/>
        <pt x="153" y="386" on="0"/>
        <pt x="120" y="419" on="0"/>
      </contour>
      <contour>
        <pt x="120" y="45" on="1"/>
        <pt x="120" y="68" on="0"/>
        <pt x="153" y="102" on="0"/>
        <pt x="176" y="102" on="1"/>
        <pt x="200" y="102" on="0"/>
        <pt x="233" y="68" on="0"/>
        <pt x="233" y="45" on="1"/>
        <pt x="233" y="22" on="0"/>
        <pt x="200" y="-11" on="0"/>
        <pt x="176" y="-11" on="1"/>
        <pt x="153" y="-11" on="0"/>
        <pt x="120" y="22" on="0"/>
      </contour>
    </TTGlyph>
    <TTGlyph name="comma" xMin="60" yMin="-160" xMax="164" yMax="85">
      <contour>
        <pt x="100" y="52" on="1"/>
        <pt x="100" y="66" on="0"/>
        <pt x="118" y="85" on="0"/>
        <pt x="132" y="85" on="1"/>
        <pt x="146" y="85" on="0"/>
        <pt x="164" y="66" on="0"/>
        <pt x="164" y="52" on="1"/>
        <pt x="164" y="-8" on="1"/>
        <pt x="164" y="-50" on="0"/>
        <pt x="132" y="-133" on="0"/>
        <pt x="94" y="-160" on="1"/>
        <pt x="60" y="-127" on="1"/>
        <pt x="80" y="-106" on="0"/>
        <pt x="100" y="-48" on="0"/>
        <pt x="100" y="-8" on="1"/>
        <pt x="100" y="52" on="1"/>
      </contour>
    </TTGlyph>
    <TTGlyph name="copyright" xMin="80" yMin="-60" xMax="686" yMax="549">
      <contour>
        <pt x="316" y="248" on="1"/>
        <pt x="316" y="194" on="0"/>
        <pt x="361" y="136" on="0"/>
        <pt x="402" y="136" on="1"/>
        <pt x="419" y="136" on="0"/>
        <pt x="457" y="152" on="0"/>
        <pt x="476" y="165" on="1"/>
        <pt x="498" y="127" on="1"/>
        <pt x="477" y="112" on="0"/>
        <pt x="425" y="90" on="0"/>
        <pt x="396" y="90" on="1"/>
        <pt x="336" y="90" on="0"/>
        <pt x="264" y="171" on="0"/>
        <pt x="264" y="246" on="1"/>
        <pt x="264" y="271" on="0"/>
        <pt x="274" y="327" on="0"/>
        <pt x="301" y="373" on="0"/>
        <pt x="348" y="404" on="0"/>
        <pt x="386" y="404" on="1"/>
        <pt x="403" y="404" on="0"/>
        <pt x="449" y="402" on="0"/>
        <pt x="469" y="400" on="1"/>
        <pt x="469" y="353" on="1"/>
        <pt x="448" y="355" on="0"/>
        <pt x="403" y="358" on="0"/>
        <pt x="386" y="358" on="1"/>
        <pt x="366" y="358" on="0"/>
        <pt x="339" y="340" on="0"/>
        <pt x="323" y="309" on="0"/>
        <pt x="316" y="269" on="0"/>
      </contour>
      <contour>
        <pt x="384" y="-60" on="1"/>
        <pt x="316" y="-60" on="0"/>
        <pt x="204" y="-15" on="0"/>
        <pt x="124" y="65" on="0"/>
        <pt x="80" y="177" on="0"/>
        <pt x="80" y="243" on="1"/>
        <pt x="80" y="309" on="0"/>
        <pt x="124" y="421" on="0"/>
        <pt x="204" y="503" on="0"/>
        <pt x="316" y="549" on="0"/>
        <pt x="384" y="549" on="1"/>
        <pt x="451" y="549" on="0"/>
        <pt x="562" y="503" on="0"/>
        <pt x="642" y="422" on="0"/>
        <pt x="686" y="311" on="0"/>
        <pt x="686" y="246" on="1"/>
        <pt x="686" y="180" on="0"/>
        <pt x="642" y="68" on="0"/>
        <pt x="562" y="-14" on="0"/>
        <pt x="451" y="-60" on="0"/>
      </contour>
      <contour>
        <pt x="384" y="501" on="1"/>
        <pt x="328" y="501" on="0"/>
        <pt x="236" y="464" on="0"/>
        <pt x="170" y="396" on="0"/>
        <pt x="134" y="303" on="0"/>
        <pt x="134" y="246" on="1"/>
        <pt x="134" y="188" on="0"/>
        <pt x="170" y="92" on="0"/>
        <pt x="236" y="24" on="0"/>
        <pt x="328" y="-13" on="0"/>
        <pt x="384" y="-13" on="1"/>
        <pt x="439" y="-13" on="0"/>
        <pt x="530" y="26" on="0"/>
        <pt x="596" y="95" on="0"/>
        <pt x="632" y="191" on="0"/>
        <pt x="632" y="248" on="1"/>
        <pt x="632" y="305" on="0"/>
        <pt x="596" y="399" on="0"/>
        <pt x="530" y="465" on="0"/>
        <pt x="439" y="501" on="0"/>
      </contour>
    </TTGlyph>
    <TTGlyph name="currency" xMin="60" yMin="-10" xMax="628" yMax="586">
      <contour>
        <pt x="60" y="34" on="1"/>
        <pt x="162" y="136" on="1"/>
        <pt x="115" y="195" on="0"/>
        <pt x="115" y="287" on="1"/>
        <pt x="115" y="335" on="0"/>
        <pt x="140" y="409" on="0"/>
        <pt x="163" y="438" on="1"/>
        <pt x="60" y="542" on="1"/>
        <pt x="103" y="586" on="1"/>
        <pt x="209" y="480" on="1"/>
        <pt x="237" y="498" on="0"/>
        <pt x="301" y="521" on="0"/>
        <pt x="343" y="521" on="1"/>
        <pt x="385" y="521" on="0"/>
        <pt x="451" y="498" on="0"/>
        <pt x="479" y="480" on="1"/>
        <pt x="585" y="586" on="1"/>
        <pt x="628" y="542" on="1"/>
        <pt x="525" y="438" on="1"/>
        <pt x="571" y="380" on="0"/>
        <pt x="571" y="288" on="1"/>
        <pt x="571" y="240" on="0"/>
        <pt x="547" y="167" on="0"/>
        <pt x="524" y="138" on="1"/>
        <pt x="628" y="34" on="1"/>
        <pt x="585" y="-10" on="1"/>
        <pt x="478" y="97" on="1"/>
        <pt x="450" y="79" on="0"/>
        <pt x="385" y="55" on="0"/>
        <pt x="343" y="55" on="1"/>
        <pt x="301" y="55" on="0"/>
        <pt x="236" y="77" on="0"/>
        <pt x="208" y="95" on="1"/>
        <pt x="103" y="-10" on="1"/>
      </contour>
      <contour>
        <pt x="178" y="288" on="1"/>
        <pt x="178" y="247" on="0"/>
        <pt x="202" y="181" on="0"/>
        <pt x="245" y="134" on="0"/>
        <pt x="306" y="108" on="0"/>
        <pt x="344" y="108" on="1"/>
        <pt x="382" y="108" on="0"/>
        <pt x="443" y="135" on="0"/>
        <pt x="487" y="183" on="0"/>
        <pt x="510" y="250" on="0"/>
        <pt x="510" y="290" on="1"/>
        <pt x="510" y="371" on="0"/>
        <pt x="420" y="467" on="0"/>
        <pt x="344" y="467" on="1"/>
        <pt x="306" y="467" on="0"/>
        <pt x="245" y="441" on="0"/>
        <pt x="201" y="395" on="0"/>
        <pt x="178" y="328" on="0"/>
      </contour>
    </TTGlyph>
    <TTGlyph name="d" xMin="50" yMin="-10" xMax="508" yMax="727">
      <contour>
        <pt x="263" y="-10" on="1"/>
        <pt x="212" y="-10" on="0"/>
        <pt x="133" y="30" on="0"/>
        <pt x="78" y="100" on="0"/>
        <pt x="50" y="193" on="0"/>
        <pt x="50" y="247" on="1"/>
        <pt x="50" y="303" on="0"/>
        <pt x="83" y="398" on="0"/>
        <pt x="144" y="468" on="0"/>
        <pt x="230" y="508" on="0"/>
        <pt x="283" y="508" on="1"/>
        <pt x="325" y="508" on="0"/>
        <pt x="391" y="502" on="0"/>
        <pt x="414" y="499" on="1"/>
        <pt x="414" y="727" on="1"/>
        <pt x="469" y="727" on="1"/>
        <pt x="469" y="144" on="1"/>
        <pt x="469" y="67" on="0"/>
        <pt x="508" y="25" on="1"/>
        <pt x="474" y="-8" on="1"/>
        <pt x="451" y="9" on="0"/>
        <pt x="427" y="53" on="0"/>
        <pt x="421" y="78" on="1"/>
        <pt x="400" y="36" on="0"/>
        <pt x="317" y="-10" on="0"/>
      </contour>
      <contour>
        <pt x="263" y="42" on="1"/>
        <pt x="289" y="42" on="0"/>
        <pt x="343" y="60" on="0"/>
        <pt x="386" y="96" on="0"/>
        <pt x="414" y="151" on="0"/>
        <pt x="414" y="188" on="1"/>
        <pt x="414" y="446" on="1"/>
        <pt x="396" y="448" on="0"/>
        <pt x="326" y="456" on="0"/>
        <pt x="284" y="456" on="1"/>
        <pt x="244" y="456" on="0"/>
        <pt x="179" y="426" on="0"/>
        <pt x="132" y="372" on="0"/>
        <pt x="107" y="296" on="0"/>
        <pt x="107" y="250" on="1"/>
        <pt x="107" y="209" on="0"/>
        <pt x="126" y="134" on="0"/>
        <pt x="165" y="77" on="0"/>
        <pt x="224" y="42" on="0"/>
      </contour>
    </TTGlyph>
    <TTGlyph name="degree" xMin="50" yMin="396" xMax="315" yMax="664">
      <contour>
        <pt x="183" y="396" on="1"/>
        <pt x="123" y="396" on="0"/>
        <pt x="50" y="470" on="0"/>
        <pt x="50" y="529" on="1"/>
        <pt x="50" y="558" on="0"/>
        <pt x="69" y="608" on="0"/>
        <pt x="103" y="644" on="0"/>
        <pt x="152" y="664" on="0"/>
        <pt x="182" y="664" on="1"/>
        <pt x="242" y="664" on="0"/>
        <pt x="315" y="590" on="0"/>
        <pt x="315" y="531" on="1"/>
        <pt x="315" y="472" on="0"/>
        <pt x="243" y="396" on="0"/>
      </contour>
      <contour>
        <pt x="183" y="615" on="1"/>
        <pt x="148" y="615" on="0"/>
        <pt x="104" y="568" on="0"/>
        <pt x="104" y="530" on="1"/>
        <pt x="104" y="492" on="0"/>
        <pt x="147" y="445" on="0"/>
        <pt x="182" y="445" on="1"/>
        <pt x="217" y="445" on="0"/>
        <pt x="261" y="492" on="0"/>
        <pt x="261" y="530" on="1"/>
        <pt x="261" y="568" on="0"/>
        <pt x="218" y="615" on="0"/>
      </contour>
    </TTGlyph>
    <TTGlyph name="dieresis" xMin="105" yMin="618" xMax="415" yMax="707">
      <contour>
        <pt x="105" y="662" on="1"/>
        <pt x="105" y="681" on="0"/>
        <pt x="131" y="707" on="0"/>
        <pt x="149" y="707" on="1"/>
        <pt x="168" y="707" on="0"/>
        <pt x="194" y="681" on="0"/>
        <pt x="194" y="662" on="1"/>
        <pt x="194" y="644" on="0"/>
        <pt x="168" y="618" on="0"/>
        <pt x="149" y="618" on="1"/>
        <pt x="131" y="618" on="0"/>
        <pt x="105" y="644" on="0"/>
      </contour>
      <contour>
        <pt x="326" y="662" on="1"/>
        <pt x="326" y="681" on="0"/>
        <pt x="352" y="707" on="0"/>
        <pt x="370" y="707" on="1"/>
        <pt x="389" y="707" on="0"/>
        <pt x="415" y="681" on="0"/>
        <pt x="415" y="662" on="1"/>
        <pt x="415" y="644" on="0"/>
        <pt x="389" y="618" on="0"/>
        <pt x="370" y="618" on="1"/>
        <pt x="352" y="618" on="0"/>
        <pt x="326" y="644" on="0"/>
      </contour>
    </TTGlyph>
    <TTGlyph name="divide" xMin="50" yMin="97" xMax="422" yMax="489">
      <contour>
        <pt x="422" y="319" on="1"/>
        <pt x="422" y="268" on="1"/>
        <pt x="50" y="268" on="1"/>
        <pt x="50" y="319" on="1"/>
      </contour>
      <contour>
        <pt x="189" y="442" on="1"/>
        <pt x="189" y="462" on="0"/>
        <pt x="216" y="489" on="0"/>
        <pt x="235" y="489" on="1"/>
        <pt x="255" y="489" on="0"/>
        <pt x="282" y="462" on="0"/>
        <pt x="282" y="442" on="1"/>
        <pt x="282" y="423" on="0"/>
        <pt x="255" y="396" on="0"/>
        <pt x="235" y="396" on="1"/>
        <pt x="216" y="396" on="0"/>
        <pt x="189" y="423" on="0"/>
      </contour>
      <contour>
        <pt x="189" y="143" on="1"/>
        <pt x="189" y="163" on="0"/>
        <pt x="216" y="190" on="0"/>
        <pt x="235" y="190" on="1"/>
        <pt x="255" y="190" on="0"/>
        <pt x="282" y="163" on="0"/>
        <pt x="282" y="143" on="1"/>
        <pt x="282" y="124" on="0"/>
        <pt x="255" y="97" on="0"/>
        <pt x="235" y="97" on="1"/>
        <pt x="216" y="97" on="0"/>
        <pt x="189" y="124" on="0"/>
      </contour>
    </TTGlyph>
    <TTGlyph name="dollar" xMin="40" yMin="-70" xMax="497" yMax="750">
      <contour>
        <pt x="300" y="750" on="1"/>
        <pt x="300" y="662" on="1"/>
        <pt x="357" y="657" on="0"/>
        <pt x="457" y="617" on="0"/>
        <pt x="495" y="590" on="1"/>
        <pt x="462" y="542" on="1"/>
        <pt x="430" y="562" on="0"/>
        <pt x="350" y="599" on="0"/>
        <pt x="300" y="606" on="1"/>
        <pt x="300" y="364" on="1"/>
        <pt x="336" y="353" on="0"/>
        <pt x="406" y="326" on="0"/>
        <pt x="462" y="283" on="0"/>
        <pt x="497" y="218" on="0"/>
        <pt x="497" y="169" on="1"/>
        <pt x="497" y="125" on="0"/>
        <pt x="464" y="61" on="0"/>
        <pt x="410" y="18" on="0"/>
        <pt x="339" y="-5" on="0"/>
        <pt x="300" y="-8" on="1"/>
        <pt x="300" y="-70" on="1"/>
        <pt x="242" y="-70" on="1"/>
        <pt x="242" y="-9" on="1"/>
        <pt x="183" y="-5" on="0"/>
        <pt x="78" y="35" on="0"/>
        <pt x="40" y="64" on="1"/>
        <pt x="73" y="112" on="1"/>
        <pt x="105" y="92" on="0"/>
        <pt x="190" y="53" on="0"/>
        <pt x="242" y="47" on="1"/>
        <pt x="242" y="322" on="1"/>
        <pt x="210" y="332" on="0"/>
        <pt x="149" y="360" on="0"/>
        <pt x="103" y="403" on="0"/>
        <pt x="75" y="465" on="0"/>
        <pt x="75" y="510" on="1"/>
        <pt x="75" y="539" on="0"/>
        <pt x="98" y="591" on="0"/>
        <pt x="142" y="631" on="0"/>
        <pt x="203" y="658" on="0"/>
        <pt x="242" y="662" on="1"/>
        <pt x="242" y="750" on="1"/>
      </contour>
      <contour>
        <pt x="435" y="169" on="1"/>
        <pt x="435" y="199" on="0"/>
        <pt x="413" y="242" on="0"/>
        <pt x="376" y="272" on="0"/>
        <pt x="327" y="294" on="0"/>
        <pt x="300" y="303" on="1"/>
        <pt x="300" y="46" on="1"/>
        <pt x="328" y="48" on="0"/>
        <pt x="377" y="64" on="0"/>
        <pt x="414" y="93" on="0"/>
        <pt x="435" y="137" on="0"/>
      </contour>
      <contour>
        <pt x="137" y="510" on="1"/>
        <pt x="137" y="484" on="0"/>
        <pt x="153" y="444" on="0"/>
        <pt x="182" y="414" on="0"/>
        <pt x="220" y="393" on="0"/>
        <pt x="242" y="384" on="1"/>
        <pt x="242" y="608" on="1"/>
        <pt x="191" y="603" on="0"/>
        <pt x="137" y="548" on="0"/>
      </contour>
    </TTGlyph>
    <TTGlyph name="dotlessi" xMin="55" yMin="0" xMax="150" yMax="505">
      <contour>
        <pt x="89" y="505" on="1"/>
        <pt x="108" y="491" on="0"/>
        <pt x="131" y="456" on="0"/>
        <pt x="145" y="416" on="0"/>
        <pt x="150" y="374" on="0"/>
        <pt x="150" y="353" on="1"/>
        <pt x="150" y="0" on="1"/>
        <pt x="95" y="0" on="1"/>
        <pt x="95" y="353" on="1"/>
        <pt x="95" y="393" on="0"/>
        <pt x="75" y="451" on="0"/>
        <pt x="55" y="472" on="1"/>
      </contour>
    </TTGlyph>
    <TTGlyph name="e" xMin="60" yMin="-10" xMax="470" yMax="508">
      <contour>
        <pt x="120" y="200" on="1"/>
        <pt x="129" y="122" on="0"/>
        <pt x="210" y="42" on="0"/>
        <pt x="288" y="42" on="1"/>
        <pt x="330" y="42" on="0"/>
        <pt x="406" y="70" on="0"/>
        <pt x="444" y="90" on="1"/>
        <pt x="470" y="48" on="1"/>
        <pt x="435" y="24" on="0"/>
        <pt x="342" y="-10" on="0"/>
        <pt x="288" y="-10" on="1"/>
        <pt x="175" y="-10" on="0"/>
        <pt x="60" y="123" on="0"/>
        <pt x="60" y="247" on="1"/>
        <pt x="60" y="299" on="0"/>
        <pt x="91" y="393" on="0"/>
        <pt x="148" y="465" on="0"/>
        <pt x="228" y="508" on="0"/>
        <pt x="277" y="508" on="1"/>
        <pt x="314" y="508" on="0"/>
        <pt x="380" y="487" on="0"/>
        <pt x="429" y="448" on="0"/>
        <pt x="458" y="391" on="0"/>
        <pt x="458" y="356" on="1"/>
        <pt x="458" y="312" on="0"/>
        <pt x="420" y="252" on="0"/>
        <pt x="359" y="216" on="0"/>
        <pt x="280" y="200" on="0"/>
        <pt x="238" y="200" on="1"/>
      </contour>
      <contour>
        <pt x="277" y="459" on="1"/>
        <pt x="241" y="459" on="0"/>
        <pt x="182" y="423" on="0"/>
        <pt x="140" y="365" on="0"/>
        <pt x="117" y="291" on="0"/>
        <pt x="117" y="252" on="1"/>
        <pt x="238" y="252" on="1"/>
        <pt x="289" y="252" on="0"/>
        <pt x="353" y="271" on="0"/>
        <pt x="389" y="301" on="0"/>
        <pt x="401" y="338" on="0"/>
        <pt x="401" y="356" on="1"/>
        <pt x="401" y="403" on="0"/>
        <pt x="332" y="459" on="0"/>
      </contour>
    </TTGlyph>
    <TTGlyph name="eacute" xMin="60" yMin="-10" xMax="470" yMax="726">
      <contour>
        <pt x="120" y="200" on="1"/>
        <pt x="129" y="122" on="0"/>
        <pt x="210" y="42" on="0"/>
        <pt x="288" y="42" on="1"/>
        <pt x="330" y="42" on="0"/>
        <pt x="406" y="70" on="0"/>
        <pt x="444" y="90" on="1"/>
        <pt x="470" y="48" on="1"/>
        <pt x="435" y="24" on="0"/>
        <pt x="342" y="-10" on="0"/>
        <pt x="288" y="-10" on="1"/>
        <pt x="175" y="-10" on="0"/>
        <pt x="60" y="123" on="0"/>
        <pt x="60" y="247" on="1"/>
        <pt x="60" y="299" on="0"/>
        <pt x="91" y="393" on="0"/>
        <pt x="148" y="465" on="0"/>
        <pt x="228" y="508" on="0"/>
        <pt x="277" y="508" on="1"/>
        <pt x="314" y="508" on="0"/>
        <pt x="380" y="487" on="0"/>
        <pt x="429" y="448" on="0"/>
        <pt x="458" y="391" on="0"/>
        <pt x="458" y="356" on="1"/>
        <pt x="458" y="312" on="0"/>
        <pt x="420" y="252" on="0"/>
        <pt x="359" y="216" on="0"/>
        <pt x="280" y="200" on="0"/>
        <pt x="238" y="200" on="1"/>
      </contour>
      <contour>
        <pt x="277" y="459" on="1"/>
        <pt x="241" y="459" on="0"/>
        <pt x="182" y="423" on="0"/>
        <pt x="140" y="365" on="0"/>
        <pt x="117" y="291" on="0"/>
        <pt x="117" y="252" on="1"/>
        <pt x="238" y="252" on="1"/>
        <pt x="289" y="252" on="0"/>
        <pt x="353" y="271" on="0"/>
        <pt x="389" y="301" on="0"/>
        <pt x="401" y="338" on="0"/>
        <pt x="401" y="356" on="1"/>
        <pt x="401" y="403" on="0"/>
        <pt x="332" y="459" on="0"/>
      </contour>
      <contour>
        <pt x="249" y="601" on="1"/>
        <pt x="407" y="726" on="1"/>
        <pt x="443" y="677" on="1"/>
        <pt x="271" y="567" on="1"/>
      </contour>
    </TTGlyph>
    <TTGlyph name="ecircumflex" xMin="60" yMin="-10" xMax="470" yMax="768">
      <contour>
        <pt x="120" y="200" on="1"/>
        <pt x="129" y="122" on="0"/>
        <pt x="210" y="42" on="0"/>
        <pt x="288" y="42" on="1"/>
        <pt x="330" y="42" on="0"/>
        <pt x="406" y="70" on="0"/>
        <pt x="444" y="90" on="1"/>
        <pt x="470" y="48" on="1"/>
        <pt x="435" y="24" on="0"/>
        <pt x="342" y="-10" on="0"/>
        <pt x="288" y="-10" on="1"/>
        <pt x="175" y="-10" on="0"/>
        <pt x="60" y="123" on="0"/>
        <pt x="60" y="247" on="1"/>
        <pt x="60" y="299" on="0"/>
        <pt x="91" y="393" on="0"/>
        <pt x="148" y="465" on="0"/>
        <pt x="228" y="508" on="0"/>
        <pt x="277" y="508" on="1"/>
        <pt x="314" y="508" on="0"/>
        <pt x="380" y="487" on="0"/>
        <pt x="429" y="448" on="0"/>
        <pt x="458" y="391" on="0"/>
        <pt x="458" y="356" on="1"/>
        <pt x="458" y="312" on="0"/>
        <pt x="420" y="252" on="0"/>
        <pt x="359" y="216" on="0"/>
        <pt x="280" y="200" on="0"/>
        <pt x="238" y="200" on="1"/>
      </contour>
      <contour>
        <pt x="277" y="459" on="1"/>
        <pt x="241" y="459" on="0"/>
        <pt x="182" y="423" on="0"/>
        <pt x="140" y="365" on="0"/>
        <pt x="117" y="291" on="0"/>
        <pt x="117" y="252" on="1"/>
        <pt x="238" y="252" on="1"/>
        <pt x="289" y="252" on="0"/>
        <pt x="353" y="271" on="0"/>
        <pt x="389" y="301" on="0"/>
        <pt x="401" y="338" on="0"/>
        <pt x="401" y="356" on="1"/>
        <pt x="401" y="403" on="0"/>
        <pt x="332" y="459" on="0"/>
      </contour>
      <contour>
        <pt x="397" y="581" on="1"/>
        <pt x="277" y="714" on="1"/>
        <pt x="157" y="580" on="1"/>
        <pt x="120" y="613" on="1"/>
        <pt x="229" y="736" on="1"/>
        <pt x="256" y="768" on="0"/>
        <pt x="277" y="768" on="1"/>
        <pt x="298" y="768" on="0"/>
        <pt x="325" y="736" on="1"/>
        <pt x="434" y="614" on="1"/>
      </contour>
    </TTGlyph>
    <TTGlyph name="edieresis" xMin="60" yMin="-10" xMax="470" yMax="707">
      <contour>
        <pt x="120" y="200" on="1"/>
        <pt x="129" y="122" on="0"/>
        <pt x="210" y="42" on="0"/>
        <pt x="288" y="42" on="1"/>
        <pt x="330" y="42" on="0"/>
        <pt x="406" y="70" on="0"/>
        <pt x="444" y="90" on="1"/>
        <pt x="470" y="48" on="1"/>
        <pt x="435" y="24" on="0"/>
        <pt x="342" y="-10" on="0"/>
        <pt x="288" y="-10" on="1"/>
        <pt x="175" y="-10" on="0"/>
        <pt x="60" y="123" on="0"/>
        <pt x="60" y="247" on="1"/>
        <pt x="60" y="299" on="0"/>
        <pt x="91" y="393" on="0"/>
        <pt x="148" y="465" on="0"/>
        <pt x="228" y="508" on="0"/>
        <pt x="277" y="508" on="1"/>
        <pt x="314" y="508" on="0"/>
        <pt x="380" y="487" on="0"/>
        <pt x="429" y="448" on="0"/>
        <pt x="458" y="391" on="0"/>
        <pt x="458" y="356" on="1"/>
        <pt x="458" y="312" on="0"/>
        <pt x="420" y="252" on="0"/>
        <pt x="359" y="216" on="0"/>
        <pt x="280" y="200" on="0"/>
        <pt x="238" y="200" on="1"/>
      </contour>
      <contour>
        <pt x="277" y="459" on="1"/>
        <pt x="241" y="459" on="0"/>
        <pt x="182" y="423" on="0"/>
        <pt x="140" y="365" on="0"/>
        <pt x="117" y="291" on="0"/>
        <pt x="117" y="252" on="1"/>
        <pt x="238" y="252" on="1"/>
        <pt x="289" y="252" on="0"/>
        <pt x="353" y="271" on="0"/>
        <pt x="389" y="301" on="0"/>
        <pt x="401" y="338" on="0"/>
        <pt x="401" y="356" on="1"/>
        <pt x="401" y="403" on="0"/>
        <pt x="332" y="459" on="0"/>
      </contour>
      <contour>
        <pt x="121" y="662" on="1"/>
        <pt x="121" y="681" on="0"/>
        <pt x="147" y="707" on="0"/>
        <pt x="165" y="707" on="1"/>
        <pt x="184" y="707" on="0"/>
        <pt x="210" y="681" on="0"/>
        <pt x="210" y="662" on="1"/>
        <pt x="210" y="644" on="0"/>
        <pt x="184" y="618" on="0"/>
        <pt x="165" y="618" on="1"/>
        <pt x="147" y="618" on="0"/>
        <pt x="121" y="644" on="0"/>
      </contour>
      <contour>
        <pt x="342" y="662" on="1"/>
        <pt x="342" y="681" on="0"/>
        <pt x="368" y="707" on="0"/>
        <pt x="386" y="707" on="1"/>
        <pt x="405" y="707" on="0"/>
        <pt x="431" y="681" on="0"/>
        <pt x="431" y="662" on="1"/>
        <pt x="431" y="644" on="0"/>
        <pt x="405" y="618" on="0"/>
        <pt x="386" y="618" on="1"/>
        <pt x="368" y="618" on="0"/>
        <pt x="342" y="644" on="0"/>
      </contour>
    </TTGlyph>
    <TTGlyph name="egrave" xMin="60" yMin="-10" xMax="470" yMax="726">
      <contour>
        <pt x="120" y="200" on="1"/>
        <pt x="129" y="122" on="0"/>
        <pt x="210" y="42" on="0"/>
        <pt x="288" y="42" on="1"/>
        <pt x="330" y="42" on="0"/>
        <pt x="406" y="70" on="0"/>
        <pt x="444" y="90" on="1"/>
        <pt x="470" y="48" on="1"/>
        <pt x="435" y="24" on="0"/>
        <pt x="342" y="-10" on="0"/>
        <pt x="288" y="-10" on="1"/>
        <pt x="175" y="-10" on="0"/>
        <pt x="60" y="123" on="0"/>
        <pt x="60" y="247" on="1"/>
        <pt x="60" y="299" on="0"/>
        <pt x="91" y="393" on="0"/>
        <pt x="148" y="465" on="0"/>
        <pt x="228" y="508" on="0"/>
        <pt x="277" y="508" on="1"/>
        <pt x="314" y="508" on="0"/>
        <pt x="380" y="487" on="0"/>
        <pt x="429" y="448" on="0"/>
        <pt x="458" y="391" on="0"/>
        <pt x="458" y="356" on="1"/>
        <pt x="458" y="312" on="0"/>
        <pt x="420" y="252" on="0"/>
        <pt x="359" y="216" on="0"/>
        <pt x="280" y="200" on="0"/>
        <pt x="238" y="200" on="1"/>
      </contour>
      <contour>
        <pt x="277" y="459" on="1"/>
        <pt x="241" y="459" on="0"/>
        <pt x="182" y="423" on="0"/>
        <pt x="140" y="365" on="0"/>
        <pt x="117" y="291" on="0"/>
        <pt x="117" y="252" on="1"/>
        <pt x="238" y="252" on="1"/>
        <pt x="289" y="252" on="0"/>
        <pt x="353" y="271" on="0"/>
        <pt x="389" y="301" on="0"/>
        <pt x="401" y="338" on="0"/>
        <pt x="401" y="356" on="1"/>
        <pt x="401" y="403" on="0"/>
        <pt x="332" y="459" on="0"/>
      </contour>
      <contour>
        <pt x="284" y="567" on="1"/>
        <pt x="112" y="677" on="1"/>
        <pt x="148" y="726" on="1"/>
        <pt x="306" y="601" on="1"/>
      </contour>
    </TTGlyph>
    <TTGlyph name="eight" xMin="65" yMin="-16" xMax="512" yMax="666">
      <contour>
        <pt x="65" y="182" on="1"/>
        <pt x="65" y="218" on="0"/>
        <pt x="87" y="275" on="0"/>
        <pt x="121" y="321" on="0"/>
        <pt x="162" y="357" on="0"/>
        <pt x="182" y="372" on="1"/>
        <pt x="149" y="391" on="0"/>
        <pt x="101" y="453" on="0"/>
        <pt x="101" y="501" on="1"/>
        <pt x="101" y="535" on="0"/>
        <pt x="127" y="595" on="0"/>
        <pt x="175" y="640" on="0"/>
        <pt x="244" y="666" on="0"/>
        <pt x="288" y="666" on="1"/>
        <pt x="331" y="666" on="0"/>
        <pt x="401" y="639" on="0"/>
        <pt x="449" y="594" on="0"/>
        <pt x="475" y="534" on="0"/>
        <pt x="475" y="501" on="1"/>
        <pt x="475" y="476" on="0"/>
        <pt x="458" y="434" on="0"/>
        <pt x="431" y="399" on="0"/>
        <pt x="399" y="371" on="0"/>
        <pt x="383" y="361" on="1"/>
        <pt x="407" y="350" on="0"/>
        <pt x="453" y="319" on="0"/>
        <pt x="490" y="276" on="0"/>
        <pt x="512" y="219" on="0"/>
        <pt x="512" y="182" on="1"/>
        <pt x="512" y="141" on="0"/>
        <pt x="484" y="69" on="0"/>
        <pt x="429" y="15" on="0"/>
        <pt x="345" y="-16" on="0"/>
        <pt x="289" y="-16" on="1"/>
        <pt x="233" y="-16" on="0"/>
        <pt x="149" y="15" on="0"/>
        <pt x="93" y="69" on="0"/>
        <pt x="65" y="141" on="0"/>
      </contour>
      <contour>
        <pt x="238" y="348" on="1"/>
        <pt x="220" y="333" on="0"/>
        <pt x="181" y="299" on="0"/>
        <pt x="148" y="259" on="0"/>
        <pt x="127" y="212" on="0"/>
        <pt x="127" y="184" on="1"/>
        <pt x="127" y="121" on="0"/>
        <pt x="209" y="38" on="0"/>
        <pt x="289" y="38" on="1"/>
        <pt x="369" y="38" on="0"/>
        <pt x="450" y="121" on="0"/>
        <pt x="450" y="184" on="1"/>
        <pt x="450" y="222" on="0"/>
        <pt x="416" y="274" on="0"/>
        <pt x="362" y="310" on="0"/>
        <pt x="294" y="333" on="0"/>
        <pt x="260" y="342" on="1"/>
      </contour>
      <contour>
        <pt x="304" y="389" on="1"/>
        <pt x="309" y="387" on="0"/>
        <pt x="321" y="384" on="0"/>
        <pt x="328" y="382" on="1"/>
        <pt x="361" y="405" on="0"/>
        <pt x="413" y="460" on="0"/>
        <pt x="413" y="500" on="1"/>
        <pt x="413" y="548" on="0"/>
        <pt x="345" y="611" on="0"/>
        <pt x="288" y="611" on="1"/>
        <pt x="231" y="611" on="0"/>
        <pt x="163" y="548" on="0"/>
        <pt x="163" y="500" on="1"/>
        <pt x="163" y="473" on="0"/>
        <pt x="189" y="436" on="0"/>
        <pt x="230" y="412" on="0"/>
        <pt x="280" y="396" on="0"/>
      </contour>
    </TTGlyph>
    <TTGlyph name="emdash" xMin="0" yMin="277" xMax="587" yMax="334">
      <contour>
        <pt x="587" y="277" on="1"/>
        <pt x="0" y="277" on="1"/>
        <pt x="0" y="334" on="1"/>
        <pt x="587" y="334" on="1"/>
      </contour>
    </TTGlyph>
    <TTGlyph name="endash" xMin="0" yMin="277" xMax="427" yMax="334">
      <contour>
        <pt x="427" y="277" on="1"/>
        <pt x="0" y="277" on="1"/>
        <pt x="0" y="334" on="1"/>
        <pt x="427" y="334" on="1"/>
      </contour>
    </TTGlyph>
    <TTGlyph name="equal" xMin="60" yMin="187" xMax="412" yMax="399">
      <contour>
        <pt x="412" y="399" on="1"/>
        <pt x="412" y="347" on="1"/>
        <pt x="60" y="347" on="1"/>
        <pt x="60" y="399" on="1"/>
      </contour>
      <contour>
        <pt x="412" y="239" on="1"/>
        <pt x="412" y="187" on="1"/>
        <pt x="60" y="187" on="1"/>
        <pt x="60" y="239" on="1"/>
      </contour>
    </TTGlyph>
    <TTGlyph name="eth" xMin="50" yMin="-10" xMax="537" yMax="733">
      <contour>
        <pt x="537" y="571" on="1"/>
        <pt x="443" y="571" on="1"/>
        <pt x="494" y="418" on="1"/>
        <pt x="511" y="370" on="0"/>
        <pt x="526" y="281" on="0"/>
        <pt x="526" y="242" on="1"/>
        <pt x="526" y="183" on="0"/>
        <pt x="494" y="90" on="0"/>
        <pt x="434" y="25" on="0"/>
        <pt x="350" y="-10" on="0"/>
        <pt x="299" y="-10" on="1"/>
        <pt x="243" y="-10" on="0"/>
        <pt x="151" y="28" on="0"/>
        <pt x="86" y="97" on="0"/>
        <pt x="50" y="191" on="0"/>
        <pt x="50" y="247" on="1"/>
        <pt x="50" y="303" on="0"/>
        <pt x="86" y="398" on="0"/>
        <pt x="151" y="468" on="0"/>
        <pt x="243" y="508" on="0"/>
        <pt x="299" y="508" on="1"/>
        <pt x="317" y="508" on="0"/>
        <pt x="378" y="502" on="0"/>
        <pt x="405" y="497" on="1"/>
        <pt x="380" y="571" on="1"/>
        <pt x="270" y="571" on="1"/>
        <pt x="270" y="626" on="1"/>
        <pt x="361" y="626" on="1"/>
        <pt x="331" y="715" on="1"/>
        <pt x="389" y="733" on="1"/>
        <pt x="424" y="626" on="1"/>
        <pt x="537" y="626" on="1"/>
      </contour>
      <contour>
        <pt x="424" y="441" on="1"/>
        <pt x="410" y="444" on="0"/>
        <pt x="375" y="449" on="0"/>
        <pt x="339" y="454" on="0"/>
        <pt x="308" y="456" on="0"/>
        <pt x="299" y="456" on="1"/>
        <pt x="255" y="456" on="0"/>
        <pt x="185" y="426" on="0"/>
        <pt x="134" y="372" on="0"/>
        <pt x="107" y="296" on="0"/>
        <pt x="107" y="250" on="1"/>
        <pt x="107" y="203" on="0"/>
        <pt x="134" y="126" on="0"/>
        <pt x="185" y="72" on="0"/>
        <pt x="255" y="42" on="0"/>
        <pt x="299" y="42" on="1"/>
        <pt x="341" y="42" on="0"/>
        <pt x="404" y="72" on="0"/>
        <pt x="446" y="124" on="0"/>
        <pt x="468" y="194" on="0"/>
        <pt x="468" y="235" on="1"/>
        <pt x="468" y="275" on="0"/>
        <pt x="452" y="361" on="0"/>
        <pt x="437" y="405" on="1"/>
      </contour>
    </TTGlyph>
    <TTGlyph name="exclam" xMin="120" yMin="-11" xMax="240" yMax="684">
      <contour>
        <pt x="176" y="239" on="1"/>
        <pt x="176" y="218" on="0"/>
        <pt x="181" y="201" on="1"/>
        <pt x="183" y="192" on="0"/>
        <pt x="186" y="185" on="1"/>
        <pt x="130" y="173" on="1"/>
        <pt x="127" y="181" on="0"/>
        <pt x="125" y="192" on="1"/>
        <pt x="120" y="212" on="0"/>
        <pt x="120" y="239" on="1"/>
        <pt x="120" y="255" on="0"/>
        <pt x="125" y="311" on="0"/>
        <pt x="133" y="380" on="0"/>
        <pt x="143" y="456" on="0"/>
        <pt x="149" y="494" on="1"/>
        <pt x="161" y="582" on="0"/>
        <pt x="178" y="684" on="1"/>
        <pt x="236" y="684" on="1"/>
        <pt x="219" y="582" on="0"/>
        <pt x="206" y="494" on="1"/>
        <pt x="200" y="456" on="0"/>
        <pt x="190" y="380" on="0"/>
        <pt x="181" y="311" on="0"/>
        <pt x="176" y="255" on="0"/>
      </contour>
      <contour>
        <pt x="127" y="45" on="1"/>
        <pt x="127" y="68" on="0"/>
        <pt x="160" y="102" on="0"/>
        <pt x="183" y="102" on="1"/>
        <pt x="207" y="102" on="0"/>
        <pt x="240" y="68" on="0"/>
        <pt x="240" y="45" on="1"/>
        <pt x="240" y="22" on="0"/>
        <pt x="207" y="-11" on="0"/>
        <pt x="183" y="-11" on="1"/>
        <pt x="160" y="-11" on="0"/>
        <pt x="127" y="22" on="0"/>
      </contour>
    </TTGlyph>
    <TTGlyph name="exclamdown" xMin="30" yMin="-187" xMax="150" yMax="508">
      <contour>
        <pt x="94" y="258" on="1"/>
        <pt x="94" y="269" on="0"/>
        <pt x="91" y="288" on="0"/>
        <pt x="89" y="296" on="1"/>
        <pt x="86" y="305" on="0"/>
        <pt x="84" y="312" on="1"/>
        <pt x="140" y="324" on="1"/>
        <pt x="145" y="304" on="1"/>
        <pt x="147" y="295" on="0"/>
        <pt x="150" y="272" on="0"/>
        <pt x="150" y="258" on="1"/>
        <pt x="150" y="241" on="0"/>
        <pt x="145" y="186" on="0"/>
        <pt x="137" y="117" on="0"/>
        <pt x="126" y="40" on="0"/>
        <pt x="121" y="3" on="1"/>
        <pt x="108" y="-85" on="0"/>
        <pt x="92" y="-187" on="1"/>
        <pt x="34" y="-187" on="1"/>
        <pt x="51" y="-85" on="0"/>
        <pt x="64" y="3" on="1"/>
        <pt x="70" y="40" on="0"/>
        <pt x="80" y="117" on="0"/>
        <pt x="89" y="186" on="0"/>
        <pt x="94" y="241" on="0"/>
      </contour>
      <contour>
        <pt x="143" y="452" on="1"/>
        <pt x="143" y="429" on="0"/>
        <pt x="110" y="395" on="0"/>
        <pt x="87" y="395" on="1"/>
        <pt x="63" y="395" on="0"/>
        <pt x="30" y="429" on="0"/>
        <pt x="30" y="452" on="1"/>
        <pt x="30" y="475" on="0"/>
        <pt x="63" y="508" on="0"/>
        <pt x="87" y="508" on="1"/>
        <pt x="110" y="508" on="0"/>
        <pt x="143" y="475" on="0"/>
      </contour>
    </TTGlyph>
    <TTGlyph name="f" xMin="85" yMin="-250" xMax="388" yMax="734">
      <contour>
        <pt x="288" y="237" on="1"/>
        <pt x="140" y="237" on="1"/>
        <pt x="140" y="-250" on="1"/>
        <pt x="85" y="-250" on="1"/>
        <pt x="85" y="494" on="1"/>
        <pt x="85" y="545" on="0"/>
        <pt x="101" y="633" on="0"/>
        <pt x="137" y="697" on="0"/>
        <pt x="197" y="734" on="0"/>
        <pt x="242" y="734" on="1"/>
        <pt x="279" y="734" on="0"/>
        <pt x="334" y="711" on="0"/>
        <pt x="370" y="672" on="0"/>
        <pt x="388" y="620" on="0"/>
        <pt x="388" y="592" on="1"/>
        <pt x="388" y="503" on="0"/>
        <pt x="282" y="397" on="0"/>
        <pt x="188" y="397" on="1"/>
        <pt x="140" y="397" on="1"/>
        <pt x="140" y="289" on="1"/>
        <pt x="288" y="289" on="1"/>
      </contour>
      <contour>
        <pt x="140" y="449" on="1"/>
        <pt x="188" y="449" on="1"/>
        <pt x="227" y="449" on="0"/>
        <pt x="281" y="473" on="0"/>
        <pt x="316" y="513" on="0"/>
        <pt x="331" y="564" on="0"/>
        <pt x="331" y="592" on="1"/>
        <pt x="331" y="628" on="0"/>
        <pt x="287" y="682" on="0"/>
        <pt x="242" y="682" on="1"/>
        <pt x="210" y="682" on="0"/>
        <pt x="171" y="652" on="0"/>
        <pt x="148" y="601" on="0"/>
        <pt x="140" y="534" on="0"/>
        <pt x="140" y="497" on="1"/>
      </contour>
    </TTGlyph>
    <TTGlyph name="five" xMin="15" yMin="-10" xMax="464" yMax="683">
      <contour>
        <pt x="78" y="338" on="1"/>
        <pt x="78" y="603" on="1"/>
        <pt x="59" y="610" on="0"/>
        <pt x="27" y="632" on="0"/>
        <pt x="15" y="649" on="1"/>
        <pt x="48" y="683" on="1"/>
        <pt x="69" y="663" on="0"/>
        <pt x="127" y="647" on="0"/>
        <pt x="167" y="647" on="1"/>
        <pt x="214" y="647" on="0"/>
        <pt x="301" y="648" on="0"/>
        <pt x="336" y="650" on="1"/>
        <pt x="376" y="651" on="0"/>
        <pt x="412" y="653" on="1"/>
        <pt x="412" y="596" on="1"/>
        <pt x="377" y="595" on="0"/>
        <pt x="337" y="594" on="1"/>
        <pt x="302" y="593" on="0"/>
        <pt x="215" y="592" on="0"/>
        <pt x="167" y="592" on="1"/>
        <pt x="139" y="592" on="1"/>
        <pt x="139" y="400" on="1"/>
        <pt x="151" y="402" on="0"/>
        <pt x="165" y="405" on="1"/>
        <pt x="177" y="407" on="0"/>
        <pt x="209" y="410" on="0"/>
        <pt x="229" y="410" on="1"/>
        <pt x="337" y="410" on="0"/>
        <pt x="464" y="312" on="0"/>
        <pt x="464" y="206" on="1"/>
        <pt x="464" y="160" on="0"/>
        <pt x="434" y="81" on="0"/>
        <pt x="376" y="23" on="0"/>
        <pt x="288" y="-10" on="0"/>
        <pt x="231" y="-10" on="1"/>
        <pt x="202" y="-10" on="0"/>
        <pt x="142" y="-7" on="0"/>
        <pt x="117" y="-5" on="1"/>
        <pt x="88" y="-2" on="0"/>
        <pt x="60" y="1" on="1"/>
        <pt x="60" y="56" on="1"/>
        <pt x="84" y="53" on="0"/>
        <pt x="111" y="51" on="1"/>
        <pt x="134" y="49" on="0"/>
        <pt x="194" y="46" on="0"/>
        <pt x="228" y="46" on="1"/>
        <pt x="319" y="46" on="0"/>
        <pt x="405" y="135" on="0"/>
        <pt x="405" y="210" on="1"/>
        <pt x="405" y="251" on="0"/>
        <pt x="377" y="307" on="0"/>
        <pt x="327" y="340" on="0"/>
        <pt x="257" y="354" on="0"/>
        <pt x="214" y="354" on="1"/>
        <pt x="187" y="354" on="0"/>
        <pt x="139" y="348" on="0"/>
        <pt x="121" y="344" on="1"/>
        <pt x="100" y="340" on="0"/>
        <pt x="83" y="334" on="1"/>
      </contour>
    </TTGlyph>
    <TTGlyph name="four" xMin="70" yMin="0" xMax="501" yMax="653">
      <contour>
        <pt x="191" y="653" on="1"/>
        <pt x="139" y="294" on="1"/>
        <pt x="440" y="294" on="1"/>
        <pt x="440" y="653" on="1"/>
        <pt x="501" y="653" on="1"/>
        <pt x="501" y="0" on="1"/>
        <pt x="440" y="0" on="1"/>
        <pt x="440" y="237" on="1"/>
        <pt x="70" y="237" on="1"/>
        <pt x="130" y="653" on="1"/>
      </contour>
    </TTGlyph>
    <TTGlyph name="fraction" xMin="50" yMin="0" xMax="327" yMax="653">
      <contour>
        <pt x="327" y="653" on="1"/>
        <pt x="109" y="0" on="1"/>
        <pt x="50" y="0" on="1"/>
        <pt x="269" y="653" on="1"/>
      </contour>
    </TTGlyph>
    <TTGlyph name="g" xMin="25" yMin="-257" xMax="570" yMax="508">
      <contour>
        <pt x="25" y="111" on="1"/>
        <pt x="25" y="137" on="0"/>
        <pt x="48" y="178" on="0"/>
        <pt x="87" y="206" on="0"/>
        <pt x="141" y="222" on="0"/>
        <pt x="173" y="223" on="1"/>
        <pt x="137" y="267" on="0"/>
        <pt x="137" y="333" on="1"/>
        <pt x="137" y="374" on="0"/>
        <pt x="165" y="439" on="0"/>
        <pt x="215" y="484" on="0"/>
        <pt x="284" y="508" on="0"/>
        <pt x="325" y="508" on="1"/>
        <pt x="344" y="508" on="0"/>
        <pt x="378" y="503" on="0"/>
        <pt x="394" y="498" on="1"/>
        <pt x="559" y="498" on="1"/>
        <pt x="559" y="447" on="1"/>
        <pt x="468" y="453" on="1"/>
        <pt x="489" y="431" on="0"/>
        <pt x="513" y="371" on="0"/>
        <pt x="513" y="333" on="1"/>
        <pt x="513" y="292" on="0"/>
        <pt x="485" y="228" on="0"/>
        <pt x="435" y="183" on="0"/>
        <pt x="366" y="159" on="0"/>
        <pt x="325" y="159" on="1"/>
        <pt x="269" y="159" on="0"/>
        <pt x="227" y="180" on="1"/>
        <pt x="219" y="181" on="0"/>
        <pt x="203" y="182" on="0"/>
        <pt x="194" y="182" on="1"/>
        <pt x="174" y="182" on="0"/>
        <pt x="134" y="176" on="0"/>
        <pt x="101" y="160" on="0"/>
        <pt x="80" y="134" on="0"/>
        <pt x="80" y="114" on="1"/>
        <pt x="80" y="94" on="0"/>
        <pt x="98" y="69" on="0"/>
        <pt x="130" y="56" on="0"/>
        <pt x="175" y="52" on="0"/>
        <pt x="201" y="52" on="1"/>
        <pt x="232" y="52" on="0"/>
        <pt x="302" y="55" on="0"/>
        <pt x="339" y="55" on="1"/>
        <pt x="381" y="55" on="0"/>
        <pt x="464" y="44" on="0"/>
        <pt x="530" y="13" on="0"/>
        <pt x="570" y="-45" on="0"/>
        <pt x="570" y="-91" on="1"/>
        <pt x="570" y="-139" on="0"/>
        <pt x="526" y="-202" on="0"/>
        <pt x="456" y="-241" on="0"/>
        <pt x="368" y="-257" on="0"/>
        <pt x="324" y="-257" on="1"/>
        <pt x="280" y="-257" on="0"/>
        <pt x="195" y="-241" on="0"/>
        <pt x="127" y="-202" on="0"/>
        <pt x="85" y="-138" on="0"/>
        <pt x="85" y="-91" on="1"/>
        <pt x="85" y="-59" on="0"/>
        <pt x="88" y="1" on="0"/>
        <pt x="90" y="18" on="1"/>
        <pt x="61" y="30" on="0"/>
        <pt x="25" y="74" on="0"/>
      </contour>
      <contour>
        <pt x="217" y="-1" on="1"/>
        <pt x="198" y="-1" on="0"/>
        <pt x="161" y="1" on="0"/>
        <pt x="143" y="4" on="1"/>
        <pt x="142" y="-4" on="0"/>
        <pt x="140" y="-52" on="0"/>
        <pt x="140" y="-91" on="1"/>
        <pt x="140" y="-146" on="0"/>
        <pt x="233" y="-205" on="0"/>
        <pt x="324" y="-205" on="1"/>
        <pt x="357" y="-205" on="0"/>
        <pt x="424" y="-196" on="0"/>
        <pt x="480" y="-170" on="0"/>
        <pt x="515" y="-126" on="0"/>
        <pt x="515" y="-91" on="1"/>
        <pt x="515" y="-61" on="0"/>
        <pt x="484" y="-24" on="0"/>
        <pt x="434" y="-5" on="0"/>
        <pt x="368" y="2" on="0"/>
        <pt x="334" y="2" on="1"/>
        <pt x="309" y="2" on="0"/>
        <pt x="249" y="-1" on="0"/>
      </contour>
      <contour>
        <pt x="324" y="456" on="1"/>
        <pt x="263" y="456" on="0"/>
        <pt x="192" y="390" on="0"/>
        <pt x="192" y="334" on="1"/>
        <pt x="192" y="278" on="0"/>
        <pt x="263" y="212" on="0"/>
        <pt x="324" y="212" on="1"/>
        <pt x="384" y="212" on="0"/>
        <pt x="456" y="278" on="0"/>
        <pt x="456" y="334" on="1"/>
        <pt x="456" y="390" on="0"/>
        <pt x="384" y="456" on="0"/>
      </contour>
    </TTGlyph>
    <TTGlyph name="germandbls" xMin="85" yMin="-250" xMax="477" yMax="734">
      <contour>
        <pt x="85" y="494" on="1"/>
        <pt x="85" y="545" on="0"/>
        <pt x="101" y="633" on="0"/>
        <pt x="137" y="697" on="0"/>
        <pt x="197" y="734" on="0"/>
        <pt x="242" y="734" on="1"/>
        <pt x="317" y="734" on="0"/>
        <pt x="388" y="661" on="0"/>
        <pt x="388" y="602" on="1"/>
        <pt x="388" y="565" on="0"/>
        <pt x="358" y="521" on="0"/>
        <pt x="321" y="489" on="0"/>
        <pt x="291" y="460" on="0"/>
        <pt x="291" y="437" on="1"/>
        <pt x="291" y="405" on="0"/>
        <pt x="319" y="366" on="0"/>
        <pt x="360" y="336" on="0"/>
        <pt x="408" y="309" on="0"/>
        <pt x="449" y="267" on="0"/>
        <pt x="477" y="205" on="0"/>
        <pt x="477" y="155" on="1"/>
        <pt x="477" y="118" on="0"/>
        <pt x="450" y="57" on="0"/>
        <pt x="399" y="14" on="0"/>
        <pt x="328" y="-10" on="0"/>
        <pt x="284" y="-10" on="1"/>
        <pt x="237" y="-10" on="0"/>
        <pt x="163" y="-4" on="0"/>
        <pt x="140" y="-2" on="1"/>
        <pt x="140" y="-250" on="1"/>
        <pt x="85" y="-250" on="1"/>
      </contour>
      <contour>
        <pt x="140" y="50" on="1"/>
        <pt x="151" y="48" on="0"/>
        <pt x="224" y="42" on="0"/>
        <pt x="292" y="42" on="1"/>
        <pt x="353" y="42" on="0"/>
        <pt x="419" y="103" on="0"/>
        <pt x="419" y="155" on="1"/>
        <pt x="419" y="193" on="0"/>
        <pt x="391" y="240" on="0"/>
        <pt x="349" y="274" on="0"/>
        <pt x="300" y="301" on="0"/>
        <pt x="258" y="338" on="0"/>
        <pt x="230" y="393" on="0"/>
        <pt x="230" y="437" on="1"/>
        <pt x="230" y="473" on="0"/>
        <pt x="262" y="515" on="0"/>
        <pt x="299" y="546" on="0"/>
        <pt x="331" y="577" on="0"/>
        <pt x="331" y="602" on="1"/>
        <pt x="331" y="638" on="0"/>
        <pt x="287" y="682" on="0"/>
        <pt x="242" y="682" on="1"/>
        <pt x="210" y="682" on="0"/>
        <pt x="171" y="652" on="0"/>
        <pt x="148" y="601" on="0"/>
        <pt x="140" y="534" on="0"/>
        <pt x="140" y="497" on="1"/>
      </contour>
    </TTGlyph>
    <TTGlyph name="grave" xMin="163" yMin="567" xMax="357" yMax="726">
      <contour>
        <pt x="335" y="567" on="1"/>
        <pt x="163" y="677" on="1"/>
        <pt x="199" y="726" on="1"/>
        <pt x="357" y="601" on="1"/>
      </contour>
    </TTGlyph>
    <TTGlyph name="greater" xMin="60" yMin="80" xMax="360" yMax="450">
      <contour>
        <pt x="94" y="80" on="1"/>
        <pt x="62" y="127" on="1"/>
        <pt x="258" y="263" on="1"/>
        <pt x="60" y="401" on="1"/>
        <pt x="94" y="450" on="1"/>
        <pt x="360" y="265" on="1"/>
      </contour>
    </TTGlyph>
    <TTGlyph name="guillemotleft" xMin="60" yMin="19" xMax="545" yMax="483">
      <contour>
        <pt x="298" y="19" on="1"/>
        <pt x="92" y="203" on="1"/>
        <pt x="60" y="230" on="0"/>
        <pt x="60" y="251" on="1"/>
        <pt x="60" y="272" on="0"/>
        <pt x="92" y="299" on="1"/>
        <pt x="298" y="483" on="1"/>
        <pt x="335" y="442" on="1"/>
        <pt x="119" y="251" on="1"/>
        <pt x="335" y="60" on="1"/>
      </contour>
      <contour>
        <pt x="508" y="19" on="1"/>
        <pt x="302" y="203" on="1"/>
        <pt x="270" y="230" on="0"/>
        <pt x="270" y="251" on="1"/>
        <pt x="270" y="272" on="0"/>
        <pt x="302" y="299" on="1"/>
        <pt x="508" y="483" on="1"/>
        <pt x="545" y="442" on="1"/>
        <pt x="329" y="251" on="1"/>
        <pt x="545" y="60" on="1"/>
      </contour>
    </TTGlyph>
    <TTGlyph name="guillemotright" xMin="70" yMin="19" xMax="555" yMax="483">
      <contour>
        <pt x="280" y="60" on="1"/>
        <pt x="496" y="251" on="1"/>
        <pt x="280" y="442" on="1"/>
        <pt x="317" y="483" on="1"/>
        <pt x="523" y="299" on="1"/>
        <pt x="555" y="272" on="0"/>
        <pt x="555" y="251" on="1"/>
        <pt x="555" y="230" on="0"/>
        <pt x="523" y="203" on="1"/>
        <pt x="317" y="19" on="1"/>
      </contour>
      <contour>
        <pt x="70" y="60" on="1"/>
        <pt x="286" y="251" on="1"/>
        <pt x="70" y="442" on="1"/>
        <pt x="107" y="483" on="1"/>
        <pt x="313" y="299" on="1"/>
        <pt x="345" y="272" on="0"/>
        <pt x="345" y="251" on="1"/>
        <pt x="345" y="230" on="0"/>
        <pt x="313" y="203" on="1"/>
        <pt x="107" y="19" on="1"/>
      </contour>
    </TTGlyph>
    <TTGlyph name="guilsinglleft" xMin="60" yMin="19" xMax="335" yMax="483">
      <contour>
        <pt x="298" y="19" on="1"/>
        <pt x="92" y="203" on="1"/>
        <pt x="60" y="230" on="0"/>
        <pt x="60" y="251" on="1"/>
        <pt x="60" y="272" on="0"/>
        <pt x="92" y="299" on="1"/>
        <pt x="298" y="483" on="1"/>
        <pt x="335" y="442" on="1"/>
        <pt x="119" y="251" on="1"/>
        <pt x="335" y="60" on="1"/>
      </contour>
    </TTGlyph>
    <TTGlyph name="guilsinglright" xMin="70" yMin="19" xMax="345" yMax="483">
      <contour>
        <pt x="70" y="60" on="1"/>
        <pt x="286" y="251" on="1"/>
        <pt x="70" y="442" on="1"/>
        <pt x="107" y="483" on="1"/>
        <pt x="313" y="299" on="1"/>
        <pt x="345" y="272" on="0"/>
        <pt x="345" y="251" on="1"/>
        <pt x="345" y="230" on="0"/>
        <pt x="313" y="203" on="1"/>
        <pt x="107" y="19" on="1"/>
      </contour>
    </TTGlyph>
    <TTGlyph name="h" xMin="85" yMin="0" xMax="487" yMax="726">
      <contour>
        <pt x="434" y="0" on="1"/>
        <pt x="418" y="30" on="0"/>
        <pt x="408" y="105" on="0"/>
        <pt x="408" y="134" on="1"/>
        <pt x="408" y="158" on="0"/>
        <pt x="410" y="200" on="0"/>
        <pt x="413" y="247" on="0"/>
        <pt x="416" y="301" on="0"/>
        <pt x="416" y="336" on="1"/>
        <pt x="416" y="398" on="0"/>
        <pt x="360" y="456" on="0"/>
        <pt x="303" y="456" on="1"/>
        <pt x="249" y="456" on="0"/>
        <pt x="175" y="403" on="0"/>
        <pt x="140" y="355" on="1"/>
        <pt x="140" y="0" on="1"/>
        <pt x="85" y="0" on="1"/>
        <pt x="85" y="726" on="1"/>
        <pt x="140" y="726" on="1"/>
        <pt x="140" y="420" on="1"/>
        <pt x="172" y="465" on="0"/>
        <pt x="255" y="508" on="0"/>
        <pt x="303" y="508" on="1"/>
        <pt x="391" y="508" on="0"/>
        <pt x="471" y="424" on="0"/>
        <pt x="471" y="347" on="1"/>
        <pt x="471" y="311" on="0"/>
        <pt x="468" y="252" on="0"/>
        <pt x="465" y="200" on="0"/>
        <pt x="463" y="152" on="0"/>
        <pt x="463" y="128" on="1"/>
        <pt x="463" y="95" on="0"/>
        <pt x="473" y="35" on="0"/>
        <pt x="487" y="0" on="1"/>
      </contour>
    </TTGlyph>
    <TTGlyph name="hyphen" xMin="100" yMin="277" xMax="397" yMax="334">
      <contour>
        <pt x="397" y="277" on="1"/>
        <pt x="100" y="277" on="1"/>
        <pt x="100" y="334" on="1"/>
        <pt x="397" y="334" on="1"/>
      </contour>
    </TTGlyph>
    <TTGlyph name="i" xMin="55" yMin="0" xMax="161" yMax="709">
      <contour>
        <pt x="89" y="505" on="1"/>
        <pt x="108" y="491" on="0"/>
        <pt x="131" y="456" on="0"/>
        <pt x="145" y="416" on="0"/>
        <pt x="150" y="374" on="0"/>
        <pt x="150" y="353" on="1"/>
        <pt x="150" y="0" on="1"/>
        <pt x="95" y="0" on="1"/>
        <pt x="95" y="353" on="1"/>
        <pt x="95" y="393" on="0"/>
        <pt x="75" y="451" on="0"/>
        <pt x="55" y="472" on="1"/>
      </contour>
      <contour>
        <pt x="68" y="662" on="1"/>
        <pt x="68" y="682" on="0"/>
        <pt x="95" y="709" on="0"/>
        <pt x="114" y="709" on="1"/>
        <pt x="134" y="709" on="0"/>
        <pt x="161" y="682" on="0"/>
        <pt x="161" y="662" on="1"/>
        <pt x="161" y="643" on="0"/>
        <pt x="134" y="616" on="0"/>
        <pt x="114" y="616" on="1"/>
        <pt x="95" y="616" on="0"/>
        <pt x="68" y="643" on="0"/>
      </contour>
    </TTGlyph>
    <TTGlyph name="iacute" xMin="53" yMin="0" xMax="193" yMax="732">
      <contour>
        <pt x="89" y="505" on="1"/>
        <pt x="108" y="491" on="0"/>
        <pt x="131" y="456" on="0"/>
        <pt x="145" y="416" on="0"/>
        <pt x="150" y="374" on="0"/>
        <pt x="150" y="353" on="1"/>
        <pt x="150" y="0" on="1"/>
        <pt x="95" y="0" on="1"/>
        <pt x="95" y="353" on="1"/>
        <pt x="95" y="393" on="0"/>
        <pt x="75" y="451" on="0"/>
        <pt x="55" y="472" on="1"/>
      </contour>
      <contour>
        <pt x="53" y="584" on="1"/>
        <pt x="143" y="732" on="1"/>
        <pt x="193" y="699" on="1"/>
        <pt x="86" y="560" on="1"/>
      </contour>
    </TTGlyph>
    <TTGlyph name="icircumflex" xMin="-16" yMin="0" xMax="258" yMax="768">
      <contour>
        <pt x="89" y="505" on="1"/>
        <pt x="108" y="491" on="0"/>
        <pt x="131" y="456" on="0"/>
        <pt x="145" y="416" on="0"/>
        <pt x="150" y="374" on="0"/>
        <pt x="150" y="353" on="1"/>
        <pt x="150" y="0" on="1"/>
        <pt x="95" y="0" on="1"/>
        <pt x="95" y="353" on="1"/>
        <pt x="95" y="393" on="0"/>
        <pt x="75" y="451" on="0"/>
        <pt x="55" y="472" on="1"/>
      </contour>
      <contour>
        <pt x="216" y="584" on="1"/>
        <pt x="121" y="712" on="1"/>
        <pt x="27" y="584" on="1"/>
        <pt x="-16" y="613" on="1"/>
        <pt x="73" y="736" on="1"/>
        <pt x="96" y="768" on="0"/>
        <pt x="121" y="768" on="1"/>
        <pt x="146" y="768" on="0"/>
        <pt x="169" y="736" on="1"/>
        <pt x="258" y="614" on="1"/>
      </contour>
    </TTGlyph>
    <TTGlyph name="idieresis" xMin="-38" yMin="0" xMax="212" yMax="707">
      <contour>
        <pt x="89" y="505" on="1"/>
        <pt x="108" y="491" on="0"/>
        <pt x="131" y="456" on="0"/>
        <pt x="145" y="416" on="0"/>
        <pt x="150" y="374" on="0"/>
        <pt x="150" y="353" on="1"/>
        <pt x="150" y="0" on="1"/>
        <pt x="95" y="0" on="1"/>
        <pt x="95" y="353" on="1"/>
        <pt x="95" y="393" on="0"/>
        <pt x="75" y="451" on="0"/>
        <pt x="55" y="472" on="1"/>
      </contour>
      <contour>
        <pt x="-38" y="662" on="1"/>
        <pt x="-38" y="681" on="0"/>
        <pt x="-12" y="707" on="0"/>
        <pt x="6" y="707" on="1"/>
        <pt x="25" y="707" on="0"/>
        <pt x="51" y="681" on="0"/>
        <pt x="51" y="662" on="1"/>
        <pt x="51" y="644" on="0"/>
        <pt x="25" y="618" on="0"/>
        <pt x="6" y="618" on="1"/>
        <pt x="-12" y="618" on="0"/>
        <pt x="-38" y="644" on="0"/>
      </contour>
      <contour>
        <pt x="123" y="662" on="1"/>
        <pt x="123" y="681" on="0"/>
        <pt x="149" y="707" on="0"/>
        <pt x="167" y="707" on="1"/>
        <pt x="186" y="707" on="0"/>
        <pt x="212" y="681" on="0"/>
        <pt x="212" y="662" on="1"/>
        <pt x="212" y="644" on="0"/>
        <pt x="186" y="618" on="0"/>
        <pt x="167" y="618" on="1"/>
        <pt x="149" y="618" on="0"/>
        <pt x="123" y="644" on="0"/>
      </contour>
    </TTGlyph>
    <TTGlyph name="igrave" xMin="-16" yMin="0" xMax="150" yMax="732">
      <contour>
        <pt x="89" y="505" on="1"/>
        <pt x="108" y="491" on="0"/>
        <pt x="131" y="456" on="0"/>
        <pt x="145" y="416" on="0"/>
        <pt x="150" y="374" on="0"/>
        <pt x="150" y="353" on="1"/>
        <pt x="150" y="0" on="1"/>
        <pt x="95" y="0" on="1"/>
        <pt x="95" y="353" on="1"/>
        <pt x="95" y="393" on="0"/>
        <pt x="75" y="451" on="0"/>
        <pt x="55" y="472" on="1"/>
      </contour>
      <contour>
        <pt x="91" y="560" on="1"/>
        <pt x="-16" y="699" on="1"/>
        <pt x="34" y="732" on="1"/>
        <pt x="124" y="584" on="1"/>
      </contour>
    </TTGlyph>
    <TTGlyph name="j" xMin="57" yMin="-250" xMax="163" yMax="709">
      <contour>
        <pt x="91" y="505" on="1"/>
        <pt x="110" y="491" on="0"/>
        <pt x="133" y="456" on="0"/>
        <pt x="147" y="416" on="0"/>
        <pt x="152" y="374" on="0"/>
        <pt x="152" y="353" on="1"/>
        <pt x="152" y="-250" on="1"/>
        <pt x="97" y="-250" on="1"/>
        <pt x="97" y="353" on="1"/>
        <pt x="97" y="393" on="0"/>
        <pt x="77" y="451" on="0"/>
        <pt x="57" y="472" on="1"/>
      </contour>
      <contour>
        <pt x="70" y="662" on="1"/>
        <pt x="70" y="682" on="0"/>
        <pt x="97" y="709" on="0"/>
        <pt x="116" y="709" on="1"/>
        <pt x="136" y="709" on="0"/>
        <pt x="163" y="682" on="0"/>
        <pt x="163" y="662" on="1"/>
        <pt x="163" y="643" on="0"/>
        <pt x="136" y="616" on="0"/>
        <pt x="116" y="616" on="1"/>
        <pt x="97" y="616" on="0"/>
        <pt x="70" y="643" on="0"/>
      </contour>
    </TTGlyph>
    <TTGlyph name="k" xMin="85" yMin="0" xMax="487" yMax="726">
      <contour>
        <pt x="425" y="0" on="1"/>
        <pt x="371" y="120" on="1"/>
        <pt x="355" y="155" on="0"/>
        <pt x="309" y="198" on="0"/>
        <pt x="267" y="200" on="1"/>
        <pt x="266" y="200" on="1"/>
        <pt x="258" y="200" on="1"/>
        <pt x="140" y="200" on="1"/>
        <pt x="140" y="0" on="1"/>
        <pt x="85" y="0" on="1"/>
        <pt x="85" y="726" on="1"/>
        <pt x="140" y="726" on="1"/>
        <pt x="140" y="409" on="1"/>
        <pt x="163" y="454" on="0"/>
        <pt x="240" y="508" on="0"/>
        <pt x="297" y="508" on="1"/>
        <pt x="334" y="508" on="0"/>
        <pt x="397" y="487" on="0"/>
        <pt x="443" y="448" on="0"/>
        <pt x="469" y="391" on="0"/>
        <pt x="469" y="356" on="1"/>
        <pt x="469" y="296" on="0"/>
        <pt x="409" y="229" on="0"/>
        <pt x="362" y="214" on="1"/>
        <pt x="382" y="201" on="0"/>
        <pt x="410" y="166" on="0"/>
        <pt x="420" y="146" on="1"/>
        <pt x="487" y="0" on="1"/>
      </contour>
      <contour>
        <pt x="297" y="459" on="1"/>
        <pt x="261" y="459" on="0"/>
        <pt x="203" y="423" on="0"/>
        <pt x="163" y="365" on="0"/>
        <pt x="142" y="291" on="0"/>
        <pt x="142" y="252" on="1"/>
        <pt x="258" y="252" on="1"/>
        <pt x="309" y="252" on="0"/>
        <pt x="370" y="271" on="0"/>
        <pt x="402" y="301" on="0"/>
        <pt x="412" y="338" on="0"/>
        <pt x="412" y="356" on="1"/>
        <pt x="412" y="403" on="0"/>
        <pt x="352" y="459" on="0"/>
      </contour>
    </TTGlyph>
    <TTGlyph name="l" xMin="85" yMin="-9" xMax="180" yMax="726">
      <contour>
        <pt x="85" y="726" on="1"/>
        <pt x="140" y="726" on="1"/>
        <pt x="140" y="143" on="1"/>
        <pt x="140" y="103" on="0"/>
        <pt x="160" y="45" on="0"/>
        <pt x="180" y="24" on="1"/>
        <pt x="146" y="-9" on="1"/>
        <pt x="127" y="4" on="0"/>
        <pt x="103" y="40" on="0"/>
        <pt x="90" y="80" on="0"/>
        <pt x="85" y="122" on="0"/>
        <pt x="85" y="143" on="1"/>
      </contour>
    </TTGlyph>
    <TTGlyph name="less" xMin="30" yMin="80" xMax="330" yMax="450">
      <contour>
        <pt x="296" y="450" on="1"/>
        <pt x="328" y="403" on="1"/>
        <pt x="132" y="267" on="1"/>
        <pt x="330" y="129" on="1"/>
        <pt x="296" y="80" on="1"/>
        <pt x="30" y="265" on="1"/>
      </contour>
    </TTGlyph>
    <TTGlyph name="logicalnot" xMin="40" yMin="147" xMax="400" yMax="322">
      <contour>
        <pt x="338" y="264" on="1"/>
        <pt x="40" y="264" on="1"/>
        <pt x="40" y="322" on="1"/>
        <pt x="400" y="322" on="1"/>
        <pt x="400" y="147" on="1"/>
        <pt x="338" y="147" on="1"/>
      </contour>
    </TTGlyph>
    <TTGlyph name="m" xMin="50" yMin="0" xMax="762" yMax="508">
      <contour>
        <pt x="390" y="0" on="1"/>
        <pt x="390" y="336" on="1"/>
        <pt x="390" y="399" on="0"/>
        <pt x="337" y="456" on="0"/>
        <pt x="288" y="456" on="1"/>
        <pt x="268" y="456" on="0"/>
        <pt x="226" y="443" on="0"/>
        <pt x="187" y="417" on="0"/>
        <pt x="155" y="381" on="0"/>
        <pt x="145" y="358" on="1"/>
        <pt x="145" y="353" on="1"/>
        <pt x="145" y="0" on="1"/>
        <pt x="90" y="0" on="1"/>
        <pt x="90" y="353" on="1"/>
        <pt x="90" y="393" on="0"/>
        <pt x="70" y="451" on="0"/>
        <pt x="50" y="472" on="1"/>
        <pt x="84" y="505" on="1"/>
        <pt x="107" y="488" on="0"/>
        <pt x="132" y="443" on="0"/>
        <pt x="138" y="417" on="1"/>
        <pt x="165" y="463" on="0"/>
        <pt x="246" y="508" on="0"/>
        <pt x="294" y="508" on="1"/>
        <pt x="343" y="508" on="0"/>
        <pt x="417" y="462" on="0"/>
        <pt x="434" y="415" on="1"/>
        <pt x="463" y="463" on="0"/>
        <pt x="547" y="508" on="0"/>
        <pt x="588" y="508" on="1"/>
        <pt x="660" y="508" on="0"/>
        <pt x="747" y="424" on="0"/>
        <pt x="747" y="347" on="1"/>
        <pt x="747" y="311" on="0"/>
        <pt x="744" y="252" on="0"/>
        <pt x="741" y="200" on="0"/>
        <pt x="738" y="152" on="0"/>
        <pt x="738" y="128" on="1"/>
        <pt x="738" y="95" on="0"/>
        <pt x="748" y="35" on="0"/>
        <pt x="762" y="0" on="1"/>
        <pt x="709" y="0" on="1"/>
        <pt x="693" y="30" on="0"/>
        <pt x="683" y="105" on="0"/>
        <pt x="683" y="134" on="1"/>
        <pt x="683" y="158" on="0"/>
        <pt x="685" y="200" on="0"/>
        <pt x="688" y="247" on="0"/>
        <pt x="691" y="301" on="0"/>
        <pt x="691" y="336" on="1"/>
        <pt x="691" y="398" on="0"/>
        <pt x="640" y="456" on="0"/>
        <pt x="589" y="456" on="1"/>
        <pt x="497" y="456" on="0"/>
        <pt x="445" y="357" on="1"/>
        <pt x="445" y="347" on="1"/>
        <pt x="445" y="0" on="1"/>
      </contour>
    </TTGlyph>
    <TTGlyph name="macron" xMin="97" yMin="627" xMax="423" yMax="684">
      <contour>
        <pt x="423" y="627" on="1"/>
        <pt x="97" y="627" on="1"/>
        <pt x="97" y="684" on="1"/>
        <pt x="423" y="684" on="1"/>
      </contour>
    </TTGlyph>
    <TTGlyph name="minus" xMin="50" yMin="265" xMax="392" yMax="322">
      <contour>
        <pt x="392" y="322" on="1"/>
        <pt x="392" y="265" on="1"/>
        <pt x="50" y="265" on="1"/>
        <pt x="50" y="322" on="1"/>
      </contour>
    </TTGlyph>
    <TTGlyph name="multiply" xMin="60" yMin="75" xMax="442" yMax="451">
      <contour>
        <pt x="250" y="225" on="1"/>
        <pt x="101" y="75" on="1"/>
        <pt x="60" y="116" on="1"/>
        <pt x="209" y="265" on="1"/>
        <pt x="67" y="408" on="1"/>
        <pt x="110" y="451" on="1"/>
        <pt x="252" y="308" on="1"/>
        <pt x="394" y="451" on="1"/>
        <pt x="435" y="410" on="1"/>
        <pt x="293" y="268" on="1"/>
        <pt x="442" y="119" on="1"/>
        <pt x="399" y="76" on="1"/>
      </contour>
    </TTGlyph>
    <TTGlyph name="n" xMin="50" yMin="0" xMax="492" yMax="508">
      <contour>
        <pt x="439" y="0" on="1"/>
        <pt x="423" y="30" on="0"/>
        <pt x="413" y="105" on="0"/>
        <pt x="413" y="134" on="1"/>
        <pt x="413" y="158" on="0"/>
        <pt x="415" y="200" on="0"/>
        <pt x="418" y="247" on="0"/>
        <pt x="421" y="301" on="0"/>
        <pt x="421" y="336" on="1"/>
        <pt x="421" y="398" on="0"/>
        <pt x="365" y="456" on="0"/>
        <pt x="308" y="456" on="1"/>
        <pt x="254" y="456" on="0"/>
        <pt x="180" y="403" on="0"/>
        <pt x="145" y="355" on="1"/>
        <pt x="145" y="353" on="1"/>
        <pt x="145" y="0" on="1"/>
        <pt x="90" y="0" on="1"/>
        <pt x="90" y="353" on="1"/>
        <pt x="90" y="393" on="0"/>
        <pt x="70" y="451" on="0"/>
        <pt x="50" y="472" on="1"/>
        <pt x="84" y="505" on="1"/>
        <pt x="108" y="488" on="0"/>
        <pt x="134" y="439" on="0"/>
        <pt x="139" y="413" on="1"/>
        <pt x="172" y="461" on="0"/>
        <pt x="257" y="508" on="0"/>
        <pt x="308" y="508" on="1"/>
        <pt x="396" y="508" on="0"/>
        <pt x="476" y="424" on="0"/>
        <pt x="476" y="347" on="1"/>
        <pt x="476" y="311" on="0"/>
        <pt x="473" y="252" on="0"/>
        <pt x="470" y="200" on="0"/>
        <pt x="468" y="152" on="0"/>
        <pt x="468" y="128" on="1"/>
        <pt x="468" y="95" on="0"/>
        <pt x="478" y="35" on="0"/>
        <pt x="492" y="0" on="1"/>
      </contour>
    </TTGlyph>
    <TTGlyph name="nine" xMin="70" yMin="-10" xMax="519" yMax="663">
      <contour>
        <pt x="519" y="327" on="1"/>
        <pt x="519" y="229" on="0"/>
        <pt x="480" y="99" on="0"/>
        <pt x="408" y="22" on="0"/>
        <pt x="307" y="-10" on="0"/>
        <pt x="245" y="-10" on="1"/>
        <pt x="215" y="-10" on="0"/>
        <pt x="155" y="-5" on="0"/>
        <pt x="121" y="-2" on="1"/>
        <pt x="121" y="50" on="1"/>
        <pt x="160" y="47" on="0"/>
        <pt x="226" y="42" on="0"/>
        <pt x="252" y="42" on="1"/>
        <pt x="307" y="42" on="0"/>
        <pt x="383" y="79" on="0"/>
        <pt x="431" y="147" on="0"/>
        <pt x="453" y="241" on="0"/>
        <pt x="455" y="297" on="1"/>
        <pt x="430" y="286" on="0"/>
        <pt x="340" y="262" on="0"/>
        <pt x="283" y="262" on="1"/>
        <pt x="226" y="262" on="0"/>
        <pt x="145" y="290" on="0"/>
        <pt x="94" y="340" on="0"/>
        <pt x="70" y="411" on="0"/>
        <pt x="70" y="453" on="1"/>
        <pt x="70" y="500" on="0"/>
        <pt x="95" y="577" on="0"/>
        <pt x="147" y="633" on="0"/>
        <pt x="227" y="663" on="0"/>
        <pt x="283" y="663" on="1"/>
        <pt x="347" y="663" on="0"/>
        <pt x="437" y="611" on="0"/>
        <pt x="493" y="521" on="0"/>
        <pt x="519" y="398" on="0"/>
      </contour>
      <contour>
        <pt x="282" y="317" on="1"/>
        <pt x="336" y="317" on="0"/>
        <pt x="430" y="341" on="0"/>
        <pt x="455" y="351" on="1"/>
        <pt x="453" y="408" on="0"/>
        <pt x="429" y="503" on="0"/>
        <pt x="385" y="570" on="0"/>
        <pt x="322" y="608" on="0"/>
        <pt x="282" y="608" on="1"/>
        <pt x="239" y="608" on="0"/>
        <pt x="181" y="585" on="0"/>
        <pt x="146" y="543" on="0"/>
        <pt x="131" y="485" on="0"/>
        <pt x="131" y="451" on="1"/>
        <pt x="131" y="385" on="0"/>
        <pt x="204" y="317" on="0"/>
      </contour>
    </TTGlyph>
    <TTGlyph name="ntilde" xMin="50" yMin="0" xMax="492" yMax="701">
      <contour>
        <pt x="439" y="0" on="1"/>
        <pt x="423" y="30" on="0"/>
        <pt x="413" y="105" on="0"/>
        <pt x="413" y="134" on="1"/>
        <pt x="413" y="158" on="0"/>
        <pt x="415" y="200" on="0"/>
        <pt x="418" y="247" on="0"/>
        <pt x="421" y="301" on="0"/>
        <pt x="421" y="336" on="1"/>
        <pt x="421" y="398" on="0"/>
        <pt x="365" y="456" on="0"/>
        <pt x="308" y="456" on="1"/>
        <pt x="254" y="456" on="0"/>
        <pt x="180" y="403" on="0"/>
        <pt x="145" y="355" on="1"/>
        <pt x="145" y="353" on="1"/>
        <pt x="145" y="0" on="1"/>
        <pt x="90" y="0" on="1"/>
        <pt x="90" y="353" on="1"/>
        <pt x="90" y="393" on="0"/>
        <pt x="70" y="451" on="0"/>
        <pt x="50" y="472" on="1"/>
        <pt x="84" y="505" on="1"/>
        <pt x="108" y="488" on="0"/>
        <pt x="134" y="439" on="0"/>
        <pt x="139" y="413" on="1"/>
        <pt x="172" y="461" on="0"/>
        <pt x="257" y="508" on="0"/>
        <pt x="308" y="508" on="1"/>
        <pt x="396" y="508" on="0"/>
        <pt x="476" y="424" on="0"/>
        <pt x="476" y="347" on="1"/>
        <pt x="476" y="311" on="0"/>
        <pt x="473" y="252" on="0"/>
        <pt x="470" y="200" on="0"/>
        <pt x="468" y="152" on="0"/>
        <pt x="468" y="128" on="1"/>
        <pt x="468" y="95" on="0"/>
        <pt x="478" y="35" on="0"/>
        <pt x="492" y="0" on="1"/>
      </contour>
      <contour>
        <pt x="78" y="627" on="1"/>
        <pt x="92" y="668" on="0"/>
        <pt x="153" y="700" on="0"/>
        <pt x="198" y="700" on="1"/>
        <pt x="220" y="700" on="0"/>
        <pt x="258" y="689" on="0"/>
        <pt x="293" y="676" on="0"/>
        <pt x="327" y="665" on="0"/>
        <pt x="347" y="665" on="1"/>
        <pt x="372" y="665" on="0"/>
        <pt x="408" y="679" on="0"/>
        <pt x="419" y="701" on="1"/>
        <pt x="468" y="683" on="1"/>
        <pt x="454" y="642" on="0"/>
        <pt x="393" y="610" on="0"/>
        <pt x="348" y="610" on="1"/>
        <pt x="327" y="610" on="0"/>
        <pt x="289" y="621" on="0"/>
        <pt x="253" y="634" on="0"/>
        <pt x="218" y="645" on="0"/>
        <pt x="199" y="645" on="1"/>
        <pt x="174" y="645" on="0"/>
        <pt x="138" y="631" on="0"/>
        <pt x="127" y="609" on="1"/>
      </contour>
    </TTGlyph>
</ttFont>
